<svg width="25" height="34" viewBox="0 0 25 34" fill="none" xmlns="http://www.w3.org/2000/svg">
<path d="M18.2254 23.7313C18.7747 23.9146 19.1409 24.098 19.6902 24.098C20.7888 24.4648 21.8874 25.0149 22.986 25.7484C23.7183 26.2985 24.2676 27.032 24.4507 27.9488C24.6338 29.049 24.2676 29.9659 23.5352 30.6994C22.8029 31.6162 21.7043 32.1663 20.6057 32.5331C18.7747 33.2666 16.7606 33.6333 14.7465 33.8167C12.7324 34.0001 10.7183 34.0001 8.70426 33.6333C6.87328 33.4499 5.04229 32.8998 3.21131 32.1664C2.29581 31.7996 1.38032 31.2495 0.831024 30.3326C-0.267568 29.049 -0.267568 27.5821 0.831024 26.2985C1.56342 25.3816 2.29581 24.8315 3.3944 24.4648C4.3099 24.098 5.04229 23.9146 5.95778 23.5479H6.14088C5.95778 23.3645 5.95778 23.3645 5.95778 23.1812C4.3099 20.9807 2.84511 18.7802 2.11271 16.213C1.56342 14.5627 1.19722 12.9124 1.38032 11.0787C1.56342 8.14472 2.84511 5.57751 5.04229 3.56043C11.2676 -1.94071 21.155 1.17661 23.1691 9.24495C23.7183 11.6288 23.3521 14.0126 22.6198 16.3964C21.7043 18.9636 20.2395 21.1641 18.7747 23.1812C18.4085 23.5479 18.2254 23.5479 18.2254 23.7313ZM12.1831 27.032C12.3662 26.8486 12.3662 26.8486 12.5493 26.8486C13.6479 25.7484 14.7465 24.4648 15.8451 23.3645C17.6761 21.3474 19.1409 19.147 20.0564 16.5798C20.9719 14.5627 21.3381 12.5456 20.7888 10.3452C19.8733 5.94426 15.662 2.64357 10.9014 3.37706C8.70426 3.7438 6.87328 4.66065 5.59159 6.311C4.1268 8.14471 3.3944 10.1618 3.3944 12.5456C3.5775 14.3793 4.1268 16.0297 4.85919 17.4967C6.14088 20.0639 7.78877 22.2643 9.61976 24.4648C10.3522 25.3816 11.2676 26.2985 12.1831 27.032ZM12.5493 31.7996C13.0986 31.7996 14.1972 31.7996 15.1127 31.6162C16.7606 31.4329 18.2254 31.0661 19.8733 30.516C20.6057 30.1493 21.155 29.9659 21.7043 29.4158C22.2536 28.8657 22.2536 28.3156 21.7043 27.7654C21.3381 27.3987 20.7888 27.032 20.2395 26.8486C19.1409 26.2985 18.0423 25.9317 16.9437 25.7484C16.7606 25.7484 16.5775 25.7484 16.5775 25.9317C15.4789 27.032 14.3803 28.1322 13.0986 29.4158C12.5493 29.9659 12 29.9659 11.4507 29.4158C10.3521 28.3156 9.07046 27.2153 7.97187 25.9317C7.78877 25.7484 7.78877 25.7484 7.42257 25.7484C6.87328 25.9317 6.32398 25.9317 5.77469 26.1151C4.67609 26.4818 3.7606 26.8486 2.84511 27.3987C1.92962 28.1322 1.92962 28.8657 2.84511 29.5992C3.3944 29.9659 4.1268 30.3326 4.85919 30.6994C7.23947 31.6162 9.61976 31.7996 12.5493 31.7996Z" fill="#BD995F"/>
<path d="M12.1831 17.4966C9.07047 17.4966 6.69019 14.9294 6.69019 11.812C6.69019 8.87811 9.25357 6.31091 12.1831 6.31091C15.2958 6.31091 17.6761 8.87811 17.6761 11.812C17.6761 15.1127 15.1127 17.4966 12.1831 17.4966ZM15.4789 11.9954C15.4789 10.1617 14.0141 8.69474 12.1831 8.69474C10.3522 8.69474 8.88737 10.1617 8.88737 11.9954C8.88737 13.8291 10.3522 15.2961 12.1831 15.2961C14.0141 15.2961 15.4789 13.8291 15.4789 11.9954Z" fill="#BD995F"/>
</svg>
