<svg width="29" height="21" viewBox="0 0 29 21" fill="none" xmlns="http://www.w3.org/2000/svg">
<path d="M28.1127 4.24834C28.1127 3.14811 27.7465 2.23126 26.831 1.49777C26.2817 0.947656 25.3662 0.764282 24.6338 0.764282H3.7606C3.57751 0.764282 3.21131 0.764282 3.02821 0.764282C1.38032 0.947653 0.0986328 2.41462 0.0986328 4.06496C0.0986328 8.2825 0.0986328 12.3167 0.0986328 16.5342C0.0986328 18.0012 1.19722 19.2848 2.66201 19.8349C3.02821 19.8349 3.39441 20.0183 3.7606 20.0183C5.22539 20.0183 6.50708 20.0183 7.97187 20.0183C8.70427 20.0183 9.43666 20.0183 9.98596 20.0183H24.6338C26.0986 20.0183 27.1972 19.2848 27.9296 18.0012C28.1127 17.6344 28.2958 17.0843 28.2958 16.7176C28.2958 13.4169 28.2958 9.93285 28.2958 6.63216L28.1127 4.24834ZM18.9578 9.74948L25.9155 4.24834C25.9155 7.18228 25.9155 10.1162 25.9155 13.0502V15.2506C25.9155 15.6174 25.9155 15.8007 25.9155 16.1675L18.9578 9.74948ZM13.6479 10.483L3.9437 2.96474C4.493 2.96474 5.22539 2.96474 5.77469 2.96474H10.1691C14.9296 2.96474 19.6902 2.96474 24.2676 2.96474L14.5634 10.6663C14.1972 10.6663 14.0141 10.6663 13.6479 10.483ZM10.9015 11.0331C11.4507 11.3998 12 11.7666 12.3662 12.1333C13.2817 12.8668 14.5634 12.8668 15.4789 12.3167C15.662 12.1333 15.8451 11.9499 16.0282 11.9499L17.1268 11.0331L24.2676 17.6344H20.2395C14.7465 17.6344 9.07046 17.6344 3.57751 17.6344L10.9015 11.0331ZM9.25356 9.74948L2.29582 16.1675C2.29582 13.0502 2.29582 10.1162 2.29582 6.99891V4.79845C2.29582 4.61508 2.29582 4.43171 2.29582 4.24834L9.25356 9.74948Z" fill="#BD995F"/>
</svg>
