<?xml version="1.0" encoding="utf-8"?>
<!-- Generator: Adobe Illustrator 22.0.0, SVG Export Plug-In . SVG Version: 6.00 Build 0)  -->
<svg version="1.1" id="Layer_1" xmlns="http://www.w3.org/2000/svg" xmlns:xlink="http://www.w3.org/1999/xlink" x="0px" y="0px"
	 viewBox="0 0 31.2 32" style="enable-background:new 0 0 31.2 32;" xml:space="preserve">
<style type="text/css">
	.st0{clip-path:url(#SVGID_2_);fill:url(#SVGID_3_);}
	.st1{clip-path:url(#SVGID_5_);fill:url(#SVGID_6_);}
	.st2{clip-path:url(#SVGID_8_);fill:url(#SVGID_9_);}
	.st3{clip-path:url(#SVGID_11_);fill:url(#SVGID_12_);}
	.st4{clip-path:url(#SVGID_14_);fill:url(#SVGID_15_);}
	.st5{clip-path:url(#SVGID_17_);fill:url(#SVGID_18_);}
	.st6{clip-path:url(#SVGID_20_);fill:url(#SVGID_21_);}
	.st7{clip-path:url(#SVGID_23_);fill:url(#SVGID_24_);}
	.st8{clip-path:url(#SVGID_26_);fill:url(#SVGID_27_);}
</style>
<g>
	<defs>
		<path id="SVGID_1_" d="M26.7,25.7c-0.4,0-0.5-0.1-0.5-0.5V9c0.9,0.1,1.6,0.8,1.6,1.7c0,4.6,0,9.2,0,13.8v1.5
			C27.5,25.9,27.2,25.7,26.7,25.7 M20.9,3.4c0,0,1,0.2,1.4,0.5c0.4,0.4,0.6,0.9,0.6,1.4c0,4.1,0,8.1,0,12.2l0,4.5l0,1
			c0,0.8,0,1.6,0,2.4c0,1.4,0.8,2.6,1.9,3.2c-3.3,0-6.7,0-10,0h-4.1l-5.3,0c-0.1,0-0.1,0-0.2,0c-1.1-0.1-1.8-0.8-1.8-1.9
			c0-7.2,0-14.3,0-21.5c0-0.1,0-0.3,0-0.4c0.2-0.9,0.9-1.4,1.8-1.4l4.8,0c1.3,0,2.6,0,3.9,0C16.3,3.4,18.6,3.4,20.9,3.4 M20.9,2.1
			c-3.6,0-7.2,0-10.8,0l-4.8,0c-1.6,0-2.8,1-3.1,2.5c0,0.2-0.1,0.5-0.1,0.7c0,7.2,0,14.3,0,21.5c0,1.8,1.2,3.1,3,3.2
			c0.1,0,0.2,0,0.3,0h5.2c5.1,0,10.1,0,15.2,0h0c1.1,0,1.9-0.4,2.6-1.1c0.5-0.6,0.7-1.2,0.7-1.9l0-2.3c0-4.6,0-9.2,0-13.9
			c0-1.6-1.3-2.9-3-3c-0.1,0-0.2,0-0.4,0l-0.8,0v17.5c0,1.1,0.6,1.7,1.7,1.8c0.3,0,0.4,0.1,0.5,0.3c0,0.1,0.1,0.2-0.1,0.4
			c0,0.1-0.1,0.2-0.4,0.2h0c-1.3,0-2.5-1.1-2.5-2.5c0-0.8,0-1.6,0-2.4l0-1l0-4.5c0-4.1,0-8.1,0-12.2c0-0.9-0.3-1.7-0.9-2.3
			C22.6,2.4,21.8,2.1,20.9,2.1C20.9,2.1,20.9,2.1,20.9,2.1"/>
	</defs>
	<clipPath id="SVGID_2_">
		<use xlink:href="#SVGID_1_"  style="overflow:visible;"/>
	</clipPath>
	
		<linearGradient id="SVGID_3_" gradientUnits="userSpaceOnUse" x1="-513.5385" y1="307.0353" x2="-512.5385" y2="307.0353" gradientTransform="matrix(0 -35.1338 -35.1338 0 10802.9355 -18003.8672)">
		<stop  offset="0" style="stop-color:#755400"/>
		<stop  offset="4.715310e-02" style="stop-color:#755400"/>
		<stop  offset="0.2288" style="stop-color:#855E33"/>
		<stop  offset="0.3249" style="stop-color:#8F6B3B"/>
		<stop  offset="0.3862" style="stop-color:#977641"/>
		<stop  offset="0.4833" style="stop-color:#A4824B"/>
		<stop  offset="0.6177" style="stop-color:#BD995F"/>
		<stop  offset="0.6822" style="stop-color:#CAA46B"/>
		<stop  offset="0.7982" style="stop-color:#EBC189"/>
		<stop  offset="1" style="stop-color:#EBC189"/>
	</linearGradient>
	<rect x="2.1" y="2.1" class="st0" width="27" height="27.8"/>
</g>
<g>
	<defs>
		<path id="SVGID_4_" d="M5.3,30.7c-2.3,0-4-1.7-4-4.1v-3.1c0-6.1,0-12.2,0-18.3C1.3,3,3,1.3,5.2,1.3c2.6,0,5.3,0,7.9,0
			c2.6,0,5.3,0,7.9,0c2.2,0,3.9,1.7,3.9,3.9v1.7h1c2.3,0,3.9,1.7,3.9,4c0,5.3,0,10.5,0,15.8c0,0.2,0,0.3,0,0.5
			c-0.3,2.1-1.9,3.4-4,3.5c-3.7,0-7.2,0-10.5,0C11.9,30.7,8.6,30.7,5.3,30.7 M5.2,0C2.3,0,0,2.3,0,5.2c0,6.1,0,12.2,0,18.4v3.1
			C0,29.7,2.2,32,5.3,32c3.3,0,6.6,0,10.1,0c3.4,0,6.9,0,10.5,0c2.7,0,4.8-1.8,5.2-4.6c0-0.2,0-0.5,0-0.7c0-5.3,0-10.5,0-15.8
			c0-2.9-2.1-5.1-5-5.3V5.2c0-2.9-2.3-5.2-5.2-5.2c-2.7,0-5.4,0-8.1,0C10.4,0,7.8,0,5.2,0"/>
	</defs>
	<clipPath id="SVGID_5_">
		<use xlink:href="#SVGID_4_"  style="overflow:visible;"/>
	</clipPath>
	
		<linearGradient id="SVGID_6_" gradientUnits="userSpaceOnUse" x1="-513.5385" y1="307.0353" x2="-512.5385" y2="307.0353" gradientTransform="matrix(0 -35.1338 -35.1338 0 10802.9277 -18003.8672)">
		<stop  offset="0" style="stop-color:#755400"/>
		<stop  offset="4.715310e-02" style="stop-color:#755400"/>
		<stop  offset="0.2288" style="stop-color:#855E33"/>
		<stop  offset="0.3249" style="stop-color:#8F6B3B"/>
		<stop  offset="0.3862" style="stop-color:#977641"/>
		<stop  offset="0.4833" style="stop-color:#A4824B"/>
		<stop  offset="0.6177" style="stop-color:#BD995F"/>
		<stop  offset="0.6822" style="stop-color:#CAA46B"/>
		<stop  offset="0.7982" style="stop-color:#EBC189"/>
		<stop  offset="1" style="stop-color:#EBC189"/>
	</linearGradient>
	<rect x="0" class="st1" width="31.2" height="32"/>
</g>
<g>
	<defs>
		<path id="SVGID_7_" d="M6,11.6c-0.3,0-0.5-0.2-0.5-0.5c0-1.4,0-2.8,0-4.3c0-0.4,0.2-0.5,0.5-0.5c1.2,0,2.4,0,3.6,0
			c1.2,0,2.4,0,3.5,0c0.3,0,0.5,0.1,0.5,0.5V11c0,0.4-0.1,0.6-0.6,0.6l-2.5,0h-1l-1.1,0c-0.4,0-0.7,0-1.1,0
			C6.9,11.6,6.4,11.6,6,11.6 M6,5.1c-1,0-1.7,0.7-1.7,1.8c0,1.4,0,2.8,0,4.3c0,1.1,0.7,1.8,1.8,1.8c0.5,0,1,0,1.5,0c0.3,0,0.7,0,1,0
			h1.1h1l2.5,0c1.1,0,1.8-0.7,1.8-1.9V6.9c0-1.1-0.7-1.8-1.8-1.8c-1.2,0-2.4,0-3.6,0C8.3,5.1,7.1,5.1,6,5.1"/>
	</defs>
	<clipPath id="SVGID_8_">
		<use xlink:href="#SVGID_7_"  style="overflow:visible;"/>
	</clipPath>
	
		<linearGradient id="SVGID_9_" gradientUnits="userSpaceOnUse" x1="-513.5385" y1="307.0353" x2="-512.5385" y2="307.0353" gradientTransform="matrix(0 -35.1338 -35.1338 0 10796.874 -18003.8672)">
		<stop  offset="0" style="stop-color:#755400"/>
		<stop  offset="4.715310e-02" style="stop-color:#755400"/>
		<stop  offset="0.2288" style="stop-color:#855E33"/>
		<stop  offset="0.3249" style="stop-color:#8F6B3B"/>
		<stop  offset="0.3862" style="stop-color:#977641"/>
		<stop  offset="0.4833" style="stop-color:#A4824B"/>
		<stop  offset="0.6177" style="stop-color:#BD995F"/>
		<stop  offset="0.6822" style="stop-color:#CAA46B"/>
		<stop  offset="0.7982" style="stop-color:#EBC189"/>
		<stop  offset="1" style="stop-color:#EBC189"/>
	</linearGradient>
	<rect x="4.2" y="5.1" class="st2" width="10.7" height="7.8"/>
</g>
<g>
	<defs>
		<path id="SVGID_10_" d="M7.6,8.5h3.8v1H7.6V8.5z M6.3,10.8h6.4V7.2H6.3V10.8z"/>
	</defs>
	<clipPath id="SVGID_11_">
		<use xlink:href="#SVGID_10_"  style="overflow:visible;"/>
	</clipPath>
	
		<linearGradient id="SVGID_12_" gradientUnits="userSpaceOnUse" x1="-513.5385" y1="307.0353" x2="-512.5385" y2="307.0353" gradientTransform="matrix(0 -35.1338 -35.1338 0 10796.8779 -18003.8672)">
		<stop  offset="0" style="stop-color:#755400"/>
		<stop  offset="4.715310e-02" style="stop-color:#755400"/>
		<stop  offset="0.2288" style="stop-color:#855E33"/>
		<stop  offset="0.3249" style="stop-color:#8F6B3B"/>
		<stop  offset="0.3862" style="stop-color:#977641"/>
		<stop  offset="0.4833" style="stop-color:#A4824B"/>
		<stop  offset="0.6177" style="stop-color:#BD995F"/>
		<stop  offset="0.6822" style="stop-color:#CAA46B"/>
		<stop  offset="0.7982" style="stop-color:#EBC189"/>
		<stop  offset="1" style="stop-color:#EBC189"/>
	</linearGradient>
	<rect x="6.3" y="7.2" class="st3" width="6.4" height="3.5"/>
</g>
<g>
	<defs>
		<path id="SVGID_13_" d="M6.1,20.4c-0.1,0-0.2,0-0.3,0c-0.2,0-0.3-0.2-0.3-0.2c0-0.1-0.1-0.2,0-0.4c0.1-0.1,0.2-0.2,0.5-0.2h0
			c1.8,0,3.7,0,5.5,0l1.5,0l6.9,0c0.1,0,0.3,0,0.4,0c0.1,0,0.2,0.1,0.3,0.2c0.1,0.1,0.1,0.2,0,0.3c0,0.1-0.1,0.3-0.6,0.3H6.1z
			 M4.5,19.1c-0.3,0.5-0.4,1.1-0.1,1.6c0.2,0.5,0.7,0.9,1.3,1c0.2,0,0.3,0,0.5,0l14,0c1.2,0,1.6-0.6,1.8-1.2c0.2-0.5,0.1-1-0.2-1.4
			c-0.3-0.4-0.7-0.7-1.2-0.8c-0.2,0-0.4,0-0.6,0l-5.4,0l-3,0c-1.8,0-3.7,0-5.5,0C5.8,18.3,5,18.3,4.5,19.1"/>
	</defs>
	<clipPath id="SVGID_14_">
		<use xlink:href="#SVGID_13_"  style="overflow:visible;"/>
	</clipPath>
	
		<linearGradient id="SVGID_15_" gradientUnits="userSpaceOnUse" x1="-513.5385" y1="307.0356" x2="-512.5385" y2="307.0356" gradientTransform="matrix(0 -35.1338 -35.1338 0 10800.458 -18003.8672)">
		<stop  offset="0" style="stop-color:#755400"/>
		<stop  offset="4.715310e-02" style="stop-color:#755400"/>
		<stop  offset="0.2288" style="stop-color:#855E33"/>
		<stop  offset="0.3249" style="stop-color:#8F6B3B"/>
		<stop  offset="0.3862" style="stop-color:#977641"/>
		<stop  offset="0.4833" style="stop-color:#A4824B"/>
		<stop  offset="0.6177" style="stop-color:#BD995F"/>
		<stop  offset="0.6822" style="stop-color:#CAA46B"/>
		<stop  offset="0.7982" style="stop-color:#EBC189"/>
		<stop  offset="1" style="stop-color:#EBC189"/>
	</linearGradient>
	<rect x="4.1" y="18.3" class="st4" width="18" height="3.4"/>
</g>
<g>
	<defs>
		<path id="SVGID_16_" d="M19.2,24l0.4,0c0.3,0,0.6,0,0.8,0c0.2,0,0.3,0.2,0.3,0.2c0,0.1,0.1,0.2,0,0.4c-0.1,0.1-0.2,0.2-0.5,0.2h0
			c-3.1,0-6.2,0-9.3,0h-0.7H6c-0.1,0-0.1,0-0.2,0c-0.2,0-0.4-0.2-0.4-0.4c0-0.1,0-0.2,0.1-0.3C5.7,24.1,5.8,24,6,24
			c1.7,0,3.4,0,5.1,0H19.2z M19.5,22.7l-0.3,0l-8.1,0c-1.7,0-3.4,0-5.1,0c-0.5,0-1,0.2-1.3,0.5c-0.3,0.3-0.5,0.8-0.5,1.2
			c0,0.8,0.7,1.5,1.5,1.6c0.1,0,0.2,0,0.4,0l4.1,0c3.3,0,6.7,0,10,0h0c0.7,0,1.3-0.3,1.6-0.8c0.3-0.5,0.4-1.1,0.1-1.7
			c-0.3-0.5-0.8-0.9-1.4-0.9c-0.2,0-0.4,0-0.5,0C19.8,22.7,19.7,22.7,19.5,22.7"/>
	</defs>
	<clipPath id="SVGID_17_">
		<use xlink:href="#SVGID_16_"  style="overflow:visible;"/>
	</clipPath>
	
		<linearGradient id="SVGID_18_" gradientUnits="userSpaceOnUse" x1="-513.5385" y1="307.0342" x2="-512.5385" y2="307.0342" gradientTransform="matrix(0 -35.1338 -35.1338 0 10800.457 -18003.8672)">
		<stop  offset="0" style="stop-color:#755400"/>
		<stop  offset="4.715310e-02" style="stop-color:#755400"/>
		<stop  offset="0.2288" style="stop-color:#855E33"/>
		<stop  offset="0.3249" style="stop-color:#8F6B3B"/>
		<stop  offset="0.3862" style="stop-color:#977641"/>
		<stop  offset="0.4833" style="stop-color:#A4824B"/>
		<stop  offset="0.6177" style="stop-color:#BD995F"/>
		<stop  offset="0.6822" style="stop-color:#CAA46B"/>
		<stop  offset="0.7982" style="stop-color:#EBC189"/>
		<stop  offset="1" style="stop-color:#EBC189"/>
	</linearGradient>
	<rect x="4.2" y="22.7" class="st5" width="17.9" height="3.4"/>
</g>
<g>
	<defs>
		<path id="SVGID_19_" d="M5.9,16c-0.2,0-0.3-0.2-0.3-0.2s-0.1-0.2,0-0.4c0.1-0.1,0.2-0.2,0.5-0.2h0l14.1,0c0.1,0,0.2,0,0.3,0
			c0.1,0,0.3,0.1,0.3,0.3c0,0.1,0.1,0.2-0.1,0.4c0,0.1-0.1,0.1-0.4,0.1h0c-1.2,0-2.5,0-3.7,0h-1.7h-1.7H6.4H6.2c0,0-0.1,0-0.1,0
			C6,16,5.9,16,5.9,16 M6.1,13.9c-0.8,0-1.3,0.3-1.6,0.8c-0.3,0.5-0.3,1.1-0.1,1.6c0.3,0.5,0.8,0.9,1.3,0.9c0.2,0,0.3,0,0.5,0l0.1,0
			l5.1,0l3.4,0c1.8,0,3.6,0,5.4,0h0c0.2,0,0.9,0,1.4-0.5c0.4-0.5,0.6-1.1,0.4-1.7c-0.2-0.6-0.7-1-1.3-1.2c-0.2,0-0.3,0-0.5,0
			L6.1,13.9L6.1,13.9z"/>
	</defs>
	<clipPath id="SVGID_20_">
		<use xlink:href="#SVGID_19_"  style="overflow:visible;"/>
	</clipPath>
	
		<linearGradient id="SVGID_21_" gradientUnits="userSpaceOnUse" x1="-513.5385" y1="307.0349" x2="-512.5385" y2="307.0349" gradientTransform="matrix(0 -35.1338 -35.1338 0 10800.4609 -18003.8672)">
		<stop  offset="0" style="stop-color:#755400"/>
		<stop  offset="4.715310e-02" style="stop-color:#755400"/>
		<stop  offset="0.2288" style="stop-color:#855E33"/>
		<stop  offset="0.3249" style="stop-color:#8F6B3B"/>
		<stop  offset="0.3862" style="stop-color:#977641"/>
		<stop  offset="0.4833" style="stop-color:#A4824B"/>
		<stop  offset="0.6177" style="stop-color:#BD995F"/>
		<stop  offset="0.6822" style="stop-color:#CAA46B"/>
		<stop  offset="0.7982" style="stop-color:#EBC189"/>
		<stop  offset="1" style="stop-color:#EBC189"/>
	</linearGradient>
	<rect x="4.1" y="13.9" class="st6" width="18" height="3.4"/>
</g>
<g>
	<defs>
		<path id="SVGID_22_" d="M17.1,11.6c-0.3,0-0.5-0.2-0.5-0.4c0-0.4,0.4-0.4,0.5-0.4c0.2,0,0.4,0,0.6,0c0.2,0,0.3,0,0.5,0l0.5,0
			l0.5,0c0.4,0,0.7,0,1.1,0c0.2,0,0.5,0.1,0.5,0.4c0,0.2-0.2,0.4-0.5,0.4c-0.5,0-1,0-1.6,0C18.2,11.6,17.6,11.6,17.1,11.6 M17.1,9.5
			c-1,0-1.7,0.7-1.7,1.7c0,1,0.7,1.7,1.7,1.7c0.5,0,1.1,0,1.6,0c0.5,0,1.1,0,1.6,0c1,0,1.7-0.8,1.8-1.7c0-1-0.8-1.7-1.8-1.7
			c-0.4,0-0.8,0-1.1,0h-0.5l-0.5,0c-0.2,0-0.3,0-0.5,0C17.5,9.5,17.3,9.5,17.1,9.5"/>
	</defs>
	<clipPath id="SVGID_23_">
		<use xlink:href="#SVGID_22_"  style="overflow:visible;"/>
	</clipPath>
	
		<linearGradient id="SVGID_24_" gradientUnits="userSpaceOnUse" x1="-513.5385" y1="307.0353" x2="-512.5385" y2="307.0353" gradientTransform="matrix(0 -35.1338 -35.1338 0 10806.0186 -18003.8672)">
		<stop  offset="0" style="stop-color:#755400"/>
		<stop  offset="4.715310e-02" style="stop-color:#755400"/>
		<stop  offset="0.2288" style="stop-color:#855E33"/>
		<stop  offset="0.3249" style="stop-color:#8F6B3B"/>
		<stop  offset="0.3862" style="stop-color:#977641"/>
		<stop  offset="0.4833" style="stop-color:#A4824B"/>
		<stop  offset="0.6177" style="stop-color:#BD995F"/>
		<stop  offset="0.6822" style="stop-color:#CAA46B"/>
		<stop  offset="0.7982" style="stop-color:#EBC189"/>
		<stop  offset="1" style="stop-color:#EBC189"/>
	</linearGradient>
	<rect x="15.3" y="9.5" class="st7" width="6.7" height="3.4"/>
</g>
<g>
	<defs>
		<path id="SVGID_25_" d="M19.3,6.4L19.3,6.4c0.3,0,0.6,0,0.8,0c0.1,0,0.2,0,0.3,0c0.2,0,0.3,0.2,0.3,0.4c0,0.2-0.1,0.4-0.2,0.4
			c-1.1,0-2.3,0-3.6,0c0,0-0.1-0.1-0.2-0.1c-0.1-0.1-0.1-0.2-0.1-0.4c0.1-0.2,0.2-0.3,0.3-0.3c0.2,0,0.4,0,0.7,0c0.2,0,0.3,0,0.5,0
			l0.5,0L19.3,6.4z M19.1,5.1h-1v0c-0.4,0-0.7,0-1.1,0c-0.7,0-1.2,0.4-1.5,1.1c-0.2,0.6-0.1,1.3,0.3,1.7c0.2,0.2,0.6,0.5,1,0.5
			c0.8,0,1.4,0,2.1,0c0.6,0,1.1,0,1.7,0c0.8,0,1.5-0.7,1.5-1.6c0-0.8-0.5-1.5-1.2-1.7c-0.2-0.1-0.4-0.1-0.6-0.1c-0.2,0-0.4,0-0.6,0
			C19.4,5.1,19.2,5.1,19.1,5.1"/>
	</defs>
	<clipPath id="SVGID_26_">
		<use xlink:href="#SVGID_25_"  style="overflow:visible;"/>
	</clipPath>
	
		<linearGradient id="SVGID_27_" gradientUnits="userSpaceOnUse" x1="-513.5385" y1="307.0367" x2="-512.5385" y2="307.0367" gradientTransform="matrix(0 -35.1338 -35.1338 0 10806.0117 -18003.8672)">
		<stop  offset="0" style="stop-color:#755400"/>
		<stop  offset="4.715310e-02" style="stop-color:#755400"/>
		<stop  offset="0.2288" style="stop-color:#855E33"/>
		<stop  offset="0.3249" style="stop-color:#8F6B3B"/>
		<stop  offset="0.3862" style="stop-color:#977641"/>
		<stop  offset="0.4833" style="stop-color:#A4824B"/>
		<stop  offset="0.6177" style="stop-color:#BD995F"/>
		<stop  offset="0.6822" style="stop-color:#CAA46B"/>
		<stop  offset="0.7982" style="stop-color:#EBC189"/>
		<stop  offset="1" style="stop-color:#EBC189"/>
	</linearGradient>
	<rect x="15.2" y="5.1" class="st8" width="6.9" height="3.4"/>
</g>
</svg>
