<svg width="50" height="50" viewBox="0 0 50 50" fill="none" xmlns="http://www.w3.org/2000/svg">
<g clip-path="url(#clip0)">
<path d="M24.8295 49.659C38.5424 49.659 49.659 38.5424 49.659 24.8295C49.659 11.1165 38.5424 0 24.8295 0C11.1165 0 0 11.1165 0 24.8295C0 38.5424 11.1165 49.659 24.8295 49.659Z" fill="#3B5998"/>
<path d="M31.072 25.8014H26.6415V42.0328H19.9289V25.8014H16.7363V20.097H19.9289V16.4057C19.9289 13.766 21.1828 9.63245 26.7012 9.63245L31.6735 9.65325V15.1903H28.0658C27.474 15.1903 26.6419 15.4859 26.6419 16.7452V20.1024H31.6584L31.072 25.8014Z" fill="white"/>
</g>
<defs>
<clipPath id="clip0">
<rect width="49.659" height="49.659" fill="white"/>
</clipPath>
</defs>
</svg>
