<?xml version="1.0" encoding="utf-8"?>
<!-- Generator: Adobe Illustrator 22.0.0, SVG Export Plug-In . SVG Version: 6.00 Build 0)  -->
<svg version="1.1" id="Capa_1" xmlns="http://www.w3.org/2000/svg" xmlns:xlink="http://www.w3.org/1999/xlink" x="0px" y="0px"
	 viewBox="0 0 31.6 25" style="enable-background:new 0 0 31.6 25;" xml:space="preserve">
<style type="text/css">
	.st0{clip-path:url(#SVGID_2_);fill:url(#SVGID_3_);}
	.st1{clip-path:url(#SVGID_5_);fill:url(#SVGID_6_);}
	.st2{clip-path:url(#SVGID_8_);fill:url(#SVGID_9_);}
</style>
<g>
	<defs>
		<path id="SVGID_1_" d="M5.3,19.1c0.4-1.7,1.5-2.9,3.3-3.3c2.2-0.5,4.4,0.9,5,3.1c0.6,2.2-0.7,4.4-2.9,5c-0.5,0.1-1,0.2-1.4,0.2
			c-0.9,0-1.8,0-2.8,0v0c-1.1,0-2.3,0-3.4,0C1.9,24,0.9,23,0.9,21.8c0-1.3,0.8-2.4,2-2.6c0.6-0.1,1.1,0,1.7,0.2
			c0.1,0.1,0.2,0.1,0.3,0.1C5.1,19.6,5.2,19.4,5.3,19.1 M6.3,16c-0.9,0.6-1.4,1.5-1.8,2.6c-0.2,0-0.3-0.1-0.4-0.1
			c-1.2-0.3-2.3,0-3.2,0.9c-0.9,0.9-1.2,2.1-0.8,3.3C0.6,24.1,1.9,25,3.5,25c1.9,0,3.8,0,5.8,0c0.3,0,0.7,0,1-0.1
			c2.8-0.5,4.6-2.9,4.2-5.7c-0.3-1.9-1.3-3.3-3.1-4c-0.7-0.3-1.3-0.4-1.9-0.4C8.3,14.9,7.3,15.2,6.3,16"/>
	</defs>
	<clipPath id="SVGID_2_">
		<use xlink:href="#SVGID_1_"  style="overflow:visible;"/>
	</clipPath>
	
		<linearGradient id="SVGID_3_" gradientUnits="userSpaceOnUse" x1="-500.821" y1="327.1557" x2="-499.821" y2="327.1557" gradientTransform="matrix(0 24.7131 24.7131 0 -8077.7124 12376.8408)">
		<stop  offset="0" style="stop-color:#EBC189"/>
		<stop  offset="0.2018" style="stop-color:#EBC189"/>
		<stop  offset="0.3178" style="stop-color:#CAA46B"/>
		<stop  offset="0.3823" style="stop-color:#BD995F"/>
		<stop  offset="0.5167" style="stop-color:#A4824B"/>
		<stop  offset="0.6138" style="stop-color:#977641"/>
		<stop  offset="0.6751" style="stop-color:#8F6B3B"/>
		<stop  offset="0.7712" style="stop-color:#855E33"/>
		<stop  offset="0.9528" style="stop-color:#755400"/>
		<stop  offset="1" style="stop-color:#755400"/>
	</linearGradient>
	<rect x="-0.2" y="14.9" class="st0" width="15.1" height="10.2"/>
</g>
<g>
	<defs>
		<path id="SVGID_4_" d="M17.1,8.8C16.9,9,16.8,9,16.6,9c-1-0.1-2,0-2.9,0.6c-0.3,0.2-0.4,0.4-0.3,0.7c0.1,0.3,0.4,0.3,0.7,0.1
			c0.8-0.5,1.7-0.6,2.7-0.4c0.5,0.1,0.5,0.1,0.7-0.4c0.8-1.7,2.2-2.7,4.1-2.9c2.8-0.3,5.3,1.9,5.4,4.8c0,0.7,0.1,0.8,0.8,0.6
			c1.3-0.3,2.5,0.5,2.8,1.8c0.2,1.2-0.7,2.5-2,2.6c-0.5,0.1-1,0-1.6,0c-0.3,0-0.5,0.1-0.5,0.4c0,0.3,0.2,0.5,0.5,0.4
			c0.6,0,1.1,0,1.7,0c1.3-0.1,2.5-1.1,2.7-2.5c0.3-1.4-0.3-2.8-1.6-3.4c-0.6-0.3-1.2-0.4-1.9-0.3c0-0.2,0-0.3-0.1-0.4
			c-0.1-1-0.5-1.8-1.1-2.6c-1.2-1.6-3-2.4-4.7-2.4C20.2,5.8,18.2,6.8,17.1,8.8"/>
	</defs>
	<clipPath id="SVGID_5_">
		<use xlink:href="#SVGID_4_"  style="overflow:visible;"/>
	</clipPath>
	
		<linearGradient id="SVGID_6_" gradientUnits="userSpaceOnUse" x1="-500.821" y1="327.156" x2="-499.821" y2="327.156" gradientTransform="matrix(0 24.7131 24.7131 0 -8062.4888 12376.8408)">
		<stop  offset="0" style="stop-color:#EBC189"/>
		<stop  offset="0.2018" style="stop-color:#EBC189"/>
		<stop  offset="0.3178" style="stop-color:#CAA46B"/>
		<stop  offset="0.3823" style="stop-color:#BD995F"/>
		<stop  offset="0.5167" style="stop-color:#A4824B"/>
		<stop  offset="0.6138" style="stop-color:#977641"/>
		<stop  offset="0.6751" style="stop-color:#8F6B3B"/>
		<stop  offset="0.7712" style="stop-color:#855E33"/>
		<stop  offset="0.9528" style="stop-color:#755400"/>
		<stop  offset="1" style="stop-color:#755400"/>
	</linearGradient>
	<rect x="13.3" y="5.8" class="st1" width="18.4" height="11.6"/>
</g>
<g>
	<defs>
		<path id="SVGID_7_" d="M12.9,0.9c-0.4,0.1-0.7,0.2-1,0.3c-5,2-8.1,7.3-7.3,12.6c0.1,0.8,0.4,1.5,0.6,2.2c0.1,0.4,0.3,0.5,0.6,0.4
			C6,16.5,6.1,16.2,6,15.9c0,0,0-0.1,0-0.1c-0.6-1.7-0.8-3.4-0.5-5.1c0.7-3.9,2.8-6.8,6.4-8.4c0.1,0,0.2-0.1,0.3-0.1
			c-1.9,4.6-1.3,8.7,2.3,12.2c3.4,3.2,7.4,3.7,11.7,1.9c-0.1,0.2-0.1,0.3-0.2,0.5c-1.3,2.8-3.4,4.7-6.3,5.8c-1.3,0.5-2.6,0.6-4,0.6
			l-0.3,0c-0.3,0-0.5,0.1-0.5,0.4c0,0.3,0.2,0.5,0.5,0.5c0.9,0,1.9,0,2.8-0.2c4.7-1,7.8-3.8,9.3-8.4c0.1-0.2,0-0.4-0.2-0.4
			c-0.1,0-0.3,0-0.5,0.1C25,16,23.1,16.5,21,16.3c-3.6-0.3-6.3-2.1-7.9-5.4c-1.6-3.1-1.4-6.2,0.4-9.3c0.1-0.2,0.3-0.5,0.1-0.7
			c-0.1-0.1-0.3-0.1-0.4-0.1C13,0.9,12.9,0.9,12.9,0.9"/>
	</defs>
	<clipPath id="SVGID_8_">
		<use xlink:href="#SVGID_7_"  style="overflow:visible;"/>
	</clipPath>
	
		<linearGradient id="SVGID_9_" gradientUnits="userSpaceOnUse" x1="-500.7843" y1="327.152" x2="-499.7843" y2="327.152" gradientTransform="matrix(0 24.7131 24.7131 0 -8069.2969 12376.8369)">
		<stop  offset="0" style="stop-color:#EBC189"/>
		<stop  offset="0.2018" style="stop-color:#EBC189"/>
		<stop  offset="0.3178" style="stop-color:#CAA46B"/>
		<stop  offset="0.3823" style="stop-color:#BD995F"/>
		<stop  offset="0.5167" style="stop-color:#A4824B"/>
		<stop  offset="0.6138" style="stop-color:#977641"/>
		<stop  offset="0.6751" style="stop-color:#8F6B3B"/>
		<stop  offset="0.7712" style="stop-color:#855E33"/>
		<stop  offset="0.9528" style="stop-color:#755400"/>
		<stop  offset="1" style="stop-color:#755400"/>
	</linearGradient>
	<rect x="3.7" y="0.9" class="st2" width="23.8" height="22.9"/>
</g>
</svg>
