<svg width="51" height="50" viewBox="0 0 51 50" fill="none" xmlns="http://www.w3.org/2000/svg">
<g clip-path="url(#clip0)">
<path d="M25.3412 0C38.9974 0 50.1707 11.1733 50.1707 24.8295C50.1707 38.4857 38.9974 49.659 25.3412 49.659C11.685 49.659 0.511719 38.4855 0.511719 24.8295C0.511719 11.1734 11.685 0 25.3412 0Z" fill="#DD4B39"/>
<path d="M37.9109 20.6393V23.4326H40.7041V26.226H37.9109V29.0193H35.1176V26.226H32.3242V23.4326H35.1176V20.6393H37.9109Z" fill="white"/>
<path d="M12.7703 31.8126C9.04589 28.0882 9.0459 21.5704 12.9254 17.8461C15.7188 15.0528 19.7535 14.4321 23.3228 15.8287L24.7194 16.6047L26.2712 17.691L23.7883 20.174L22.8572 19.5533C20.6847 18.1567 17.5809 18.467 15.5637 20.4844C13.2358 22.8122 13.0807 27.0022 15.5637 29.4851C17.8915 31.9681 22.0815 31.9681 24.254 29.4851C24.8746 28.8645 25.4955 27.9332 25.6506 27.0022V26.6917H20.064V23.5881H28.9095L29.0646 24.3641V26.5366C28.9095 28.554 28.1335 30.5715 26.7368 31.9681C23.0125 35.537 16.4947 35.537 12.7703 31.8126Z" fill="white"/>
</g>
<defs>
<clipPath id="clip0">
<rect width="49.659" height="49.659" fill="white" transform="translate(0.511719)"/>
</clipPath>
</defs>
</svg>
