<svg width="44" height="44" viewBox="0 0 44 44" fill="none" xmlns="http://www.w3.org/2000/svg">
<path d="M43.1996 20.0702C42.2314 19.2982 41.4568 18.3333 40.6822 17.5614C40.1013 16.9825 39.5204 16.4035 38.9395 15.6316C38.9395 11.7719 38.9395 8.10526 38.9395 4.24561V3.47368C38.9395 2.50877 38.1649 1.73684 37.1967 1.73684C34.873 1.73684 32.5493 1.73684 30.2256 1.73684C29.2574 1.73684 28.4828 2.50877 28.4828 3.47368V5.40351L23.2545 0.578947C22.4799 -0.192982 21.5117 -0.192982 20.7371 0.578947L0.985669 19.8772C0.792027 20.0702 0.598387 20.2632 0.404745 20.6491C0.0174612 21.4211 -0.176181 22.386 0.211102 23.1579C0.598386 23.9298 1.37295 24.5088 2.34116 24.5088C3.11573 24.5088 3.8903 24.5088 4.66486 24.5088H5.24579V40.5263C5.24579 41.4912 5.63307 42.2632 6.214 43.0351C6.79492 43.614 7.76314 44 8.5377 44C10.0868 44 11.8296 44 13.3787 44H15.3152C16.6707 44 17.2516 43.4211 17.2516 42.0702V30.1053C17.2516 29.9123 17.2516 29.9123 17.2516 29.7193C17.2516 29.7193 17.4452 29.7193 17.6389 29.7193H25.9655C26.1591 29.7193 26.1591 29.7193 26.3527 29.7193C26.3527 29.7193 26.3527 29.9123 26.3527 30.1053V42.0702C26.3527 43.2281 26.9337 43.807 28.0955 43.807H35.2603C35.4539 43.807 35.6476 43.807 35.8412 43.807C37.3903 43.421 38.5522 42.0702 38.5522 40.3333V24.3158H39.1331C39.9077 24.3158 40.6822 24.3158 41.4568 24.3158C42.0377 24.3158 42.8123 23.9298 43.1996 23.5439C44.3614 22.5789 44.1678 21.0351 43.1996 20.0702ZM29.8383 40.7193V30.2982C29.8383 27.9825 28.4828 26.6316 26.1591 26.6316H24.2227C22.0926 26.6316 19.7689 26.6316 17.6389 26.6316C15.8961 26.6316 14.5406 27.7895 14.1533 29.3333C14.1533 29.7193 14.1533 29.9123 14.1533 30.2982V40.9123H12.9915C11.636 40.9123 10.2805 40.9123 9.11863 40.9123C8.92498 40.9123 8.73134 40.9123 8.73134 40.9123C8.73134 40.9123 8.73134 40.7193 8.73134 40.5263C8.73134 36.2807 8.73134 31.8421 8.73134 27.5965V23.5439C8.73134 22.193 8.15042 21.614 6.79492 21.614H4.47122L22.0926 4.4386L28.8701 11C29.0637 11.193 29.451 11.5789 30.2256 11.5789C31.1938 11.5789 31.7747 10.807 31.7747 9.84211V5.59649H35.4539V7.91228C35.4539 10.807 35.4539 13.5088 35.4539 16.4035C35.4539 17.1754 35.6476 17.7544 36.2285 18.3333C37.1967 19.2982 38.1649 20.2632 39.1331 21.2281L39.5204 21.614H37.1967C36.0348 21.614 35.2603 22.193 35.2603 23.5439V40.7193C35.2603 40.9123 35.2603 41.1053 35.2603 41.1053C35.2603 41.1053 35.0666 41.1053 34.873 41.1053H29.8383V40.7193Z" fill="#BD995F"/>
</svg>
