<svg width="19" height="19" viewBox="0 0 19 19" fill="none" xmlns="http://www.w3.org/2000/svg">
<g clip-path="url(#clip0)">
<path d="M18.9815 5.58605C18.937 4.57651 18.7737 3.88246 18.5398 3.28105C18.2986 2.64267 17.9274 2.07114 17.4411 1.59601C16.966 1.1135 16.3907 0.738563 15.7597 0.501074C15.1548 0.267211 14.4644 0.103956 13.4549 0.0594446C12.4378 0.011164 12.1149 0 9.5353 0C6.95569 0 6.63281 0.011164 5.6195 0.0556749C4.60995 0.100186 3.9159 0.263586 3.31464 0.497305C2.67612 0.738563 2.10458 1.10973 1.62946 1.59601C1.14695 2.07114 0.772155 2.64644 0.534521 3.27743C0.300658 3.88246 0.137403 4.57274 0.0928918 5.58228C0.0446112 6.59936 0.0334473 6.92225 0.0334473 9.50186C0.0334473 12.0815 0.0446112 12.4043 0.0891222 13.4177C0.133633 14.4272 0.297033 15.1213 0.530897 15.7227C0.772155 16.361 1.14695 16.9326 1.62946 17.4077C2.10458 17.8902 2.67989 18.2651 3.31087 18.5026C3.9159 18.7365 4.60618 18.8998 5.61587 18.9443C6.62904 18.9889 6.95207 18.9999 9.53167 18.9999C12.1113 18.9999 12.4342 18.9889 13.4475 18.9443C14.457 18.8998 15.1511 18.7365 15.7523 18.5026C17.0292 18.009 18.0388 16.9994 18.5324 15.7227C18.7662 15.1176 18.9296 14.4272 18.9741 13.4177C19.0186 12.4043 19.0298 12.0815 19.0298 9.50186C19.0298 6.92225 19.026 6.59936 18.9815 5.58605ZM17.2705 13.3434C17.2296 14.2713 17.0737 14.7724 16.9438 15.1065C16.6246 15.9342 15.9676 16.5911 15.1399 16.9104C14.8059 17.0403 14.3012 17.1962 13.3769 17.2369C12.3747 17.2816 12.0742 17.2926 9.53907 17.2926C7.00397 17.2926 6.69965 17.2816 5.70112 17.2369C4.77321 17.1962 4.27213 17.0403 3.93808 16.9104C3.52618 16.7582 3.15124 16.5169 2.84691 16.2014C2.53142 15.8933 2.29017 15.5221 2.13793 15.1102C2.00802 14.7762 1.85216 14.2713 1.81142 13.3472C1.76676 12.345 1.75574 12.0443 1.75574 9.50925C1.75574 6.97416 1.76676 6.66983 1.81142 5.67145C1.85216 4.74353 2.00802 4.24246 2.13793 3.90841C2.29017 3.49636 2.53142 3.12157 2.85068 2.81709C3.15864 2.5016 3.5298 2.26034 3.94185 2.10825C4.2759 1.97835 4.78075 1.82248 5.70489 1.7816C6.70704 1.73709 7.00774 1.72592 9.54269 1.72592C12.0816 1.72592 12.3821 1.73709 13.3806 1.7816C14.3085 1.82248 14.8096 1.97835 15.1437 2.10825C15.5556 2.26034 15.9305 2.5016 16.2348 2.81709C16.5503 3.12519 16.7916 3.49636 16.9438 3.90841C17.0737 4.24246 17.2296 4.74716 17.2705 5.67145C17.315 6.6736 17.3262 6.97416 17.3262 9.50925C17.3262 12.0443 17.315 12.3413 17.2705 13.3434Z" fill="#14361D"/>
<path d="M9.53513 4.62097C6.84055 4.62097 4.6543 6.80708 4.6543 9.50181C4.6543 12.1965 6.84055 14.3826 9.53513 14.3826C12.2299 14.3826 14.416 12.1965 14.416 9.50181C14.416 6.80708 12.2299 4.62097 9.53513 4.62097ZM9.53513 12.6679C7.78703 12.6679 6.36906 11.2501 6.36906 9.50181C6.36906 7.75356 7.78703 6.33573 9.53513 6.33573C11.2834 6.33573 12.7012 7.75356 12.7012 9.50181C12.7012 11.2501 11.2834 12.6679 9.53513 12.6679Z" fill="#14361D"/>
<path d="M15.7485 4.42803C15.7485 5.05727 15.2383 5.56748 14.6089 5.56748C13.9797 5.56748 13.4695 5.05727 13.4695 4.42803C13.4695 3.79864 13.9797 3.28857 14.6089 3.28857C15.2383 3.28857 15.7485 3.79864 15.7485 4.42803Z" fill="#14361D"/>
</g>
<defs>
<clipPath id="clip0">
<rect width="19" height="19" fill="white"/>
</clipPath>
</defs>
</svg>
