<svg width="342" height="128" viewBox="0 0 342 128" fill="none" xmlns="http://www.w3.org/2000/svg">
<path d="M156.308 22.6461H159.507L165.415 48.9846H161.723L160.492 43.3231H155.323L154.338 48.9846H150.646L156.308 22.6461ZM158.031 30.2769L156.061 39.8769H159.754L158.031 30.2769Z" fill="#231F20"/>
<path d="M167.385 33.2308H165.416V30.2769H167.385V27.8154C167.385 24.1231 169.846 22.8923 172.308 22.8923H174.031V26.3385H172.308C171.569 26.3385 171.323 26.8308 171.323 27.5692V30.2769H174.031V33.2308H171.323V48.9846H167.631V33.2308H167.385Z" fill="#231F20"/>
<path d="M178.954 50.9538C178.954 51.9385 179.692 52.9231 180.923 52.9231C182.154 52.9231 182.646 52.1846 182.646 50.9538V47.2615C181.908 48.4923 180.677 49.2308 179.2 49.2308C177.723 49.2308 176.492 48.7385 176 47.5077C175.508 46.7692 175.261 45.5385 175.261 43.5692V36.1846C175.261 33.4769 175.261 32.4923 175.754 31.7538C176.492 30.7692 177.231 30.0308 179.2 30.0308C181.169 30.0308 181.908 30.7692 182.646 32V30.2769H186.338V51.2C186.338 53.6615 184.615 56.6154 180.677 56.6154C178.461 56.6154 175.507 55.3846 175.015 50.9538H178.954ZM178.954 43.0769C178.954 44.3077 179.446 45.2923 180.923 45.2923C181.908 45.2923 182.892 44.5538 182.892 43.3231V35.9385C182.892 34.4615 182.154 33.7231 180.923 33.7231C179.692 33.7231 178.954 34.7077 178.954 36.1846V43.0769Z" fill="#231F20"/>
<path d="M189.539 22.6461H193.231V32C193.969 30.7692 194.954 30.0308 196.677 30.0308C198.646 30.0308 200.615 31.2615 200.615 34.7077V48.9846H196.923V35.9385C196.923 34.4615 196.185 33.7231 194.954 33.7231C193.477 33.7231 192.985 34.7077 192.985 36.1846V48.7385H189.292V22.6461H189.539Z" fill="#231F20"/>
<path d="M210.954 47.0154C209.969 48.4923 208.985 49.2308 207.262 49.2308C205.539 49.2308 203.077 48.4923 203.077 44.3077C203.077 40.1231 204.308 37.9077 208.985 37.9077C209.477 37.9077 209.969 37.9077 210.708 37.9077V35.9385C210.708 34.7077 210.216 33.7231 208.739 33.7231C207.754 33.7231 206.77 34.4615 206.523 35.6923H202.831C202.831 33.9692 203.569 32.7385 204.554 31.5077C205.539 30.5231 207.016 30.0308 208.739 30.0308C211.939 30.0308 214.4 32 214.4 35.9385V48.9846H210.708V47.0154H210.954ZM210.954 40.8615C210.462 40.8615 210.216 40.8615 209.969 40.8615C208.246 40.8615 207.016 41.6 207.016 43.5692C207.016 45.0461 207.754 46.0308 208.985 46.0308C210.216 46.0308 210.954 45.0461 210.954 43.5692V40.8615Z" fill="#231F20"/>
<path d="M217.6 30.2769H221.293V32C222.031 30.7692 223.016 30.0308 224.739 30.0308C226.708 30.0308 228.677 31.2615 228.677 34.7077V48.9846H224.985V35.9385C224.985 34.4615 224.246 33.7231 223.016 33.7231C221.539 33.7231 221.046 34.7077 221.046 36.4308V48.9846H217.354V30.2769H217.6Z" fill="#231F20"/>
<path d="M251.077 43.0769C251.077 46.2769 248.369 49.2308 245.169 49.2308C242.215 49.2308 239.015 47.7538 239.015 43.0769V28.5538C239.015 25.1077 241.477 22.4 245.169 22.4C248.615 22.4 251.323 25.1077 251.323 28.8V30.2769H247.631V28.8C247.631 27.3231 246.646 26.0923 245.415 26.0923C243.446 26.0923 243.2 27.3231 243.2 29.0461V42.5846C243.2 44.0615 243.692 45.2923 245.415 45.2923C246.4 45.2923 247.877 44.8 247.877 42.5846V41.3538H251.569V43.0769H251.077Z" fill="#231F20"/>
<path d="M260.923 47.0154C259.938 48.4923 258.954 49.2308 257.231 49.2308C255.507 49.2308 253.046 48.4923 253.046 44.3077C253.046 40.1231 254.277 37.9077 258.954 37.9077C259.446 37.9077 259.938 37.9077 260.677 37.9077V35.9385C260.677 34.7077 260.184 33.7231 258.707 33.7231C257.723 33.7231 256.738 34.4615 256.492 35.6923H252.8C252.8 33.9692 253.538 32.7385 254.523 31.5077C255.508 30.5231 256.984 30.0308 258.707 30.0308C261.907 30.0308 264.369 32 264.369 35.9385V48.9846H260.677V47.0154H260.923ZM260.923 40.8615C260.431 40.8615 260.184 40.8615 259.938 40.8615C258.215 40.8615 256.984 41.6 256.984 43.5692C256.984 45.0461 257.723 46.0308 258.954 46.0308C260.184 46.0308 260.923 45.0461 260.923 43.5692V40.8615Z" fill="#231F20"/>
<path d="M267.569 30.2769H271.262V32C272 30.7692 272.985 30.0308 274.708 30.0308C276.677 30.0308 278.646 31.2615 278.646 34.7077V48.9846H274.954V35.9385C274.954 34.4615 274.216 33.7231 272.985 33.7231C271.508 33.7231 271.016 34.7077 271.016 36.4308V48.9846H267.323V30.2769H267.569Z" fill="#231F20"/>
<path d="M288.985 47.0154C288 48.4923 287.015 49.2308 285.292 49.2308C283.569 49.2308 281.108 48.4923 281.108 44.3077C281.108 40.1231 282.338 37.9077 287.015 37.9077C287.507 37.9077 288 37.9077 288.738 37.9077V35.9385C288.738 34.7077 288.246 33.7231 286.769 33.7231C285.784 33.7231 284.8 34.4615 284.554 35.6923H280.861C280.861 33.9692 281.6 32.7385 282.584 31.5077C283.569 30.5231 285.046 30.0308 286.769 30.0308C289.969 30.0308 292.431 32 292.431 35.9385V48.9846H288.738V47.0154H288.985ZM288.985 40.8615C288.492 40.8615 288.246 40.8615 288 40.8615C286.277 40.8615 285.046 41.6 285.046 43.5692C285.046 45.0461 285.784 46.0308 287.015 46.0308C288.246 46.0308 288.985 45.0461 288.985 43.5692V40.8615Z" fill="#231F20"/>
<path d="M303.015 47.2615C302.031 48.2461 301.292 49.2308 299.323 49.2308C297.846 49.2308 296.616 48.7385 296.123 47.5077C295.631 46.7692 295.385 45.5385 295.385 43.5692V36.1846C295.385 33.4769 295.385 32.4923 295.877 31.7538C296.616 30.7692 297.354 30.0308 299.323 30.0308C300.8 30.0308 302.031 30.7692 302.769 32V22.6461H306.462V48.9846H302.769V47.2615H303.015ZM299.323 42.8308C299.323 44.3077 299.816 45.2923 301.293 45.2923C302.523 45.2923 303.262 44.3077 303.262 43.0769V35.6923C303.262 34.4615 302.523 33.7231 301.293 33.7231C299.816 33.7231 299.323 34.7077 299.323 35.9385V42.8308Z" fill="#231F20"/>
<path d="M309.908 22.6461H313.6V26.3385H309.908V22.6461ZM309.908 30.2769H313.6V48.9846H309.908V30.2769Z" fill="#231F20"/>
<path d="M323.938 47.0154C322.954 48.4923 321.969 49.2308 320.246 49.2308C318.523 49.2308 316.062 48.4923 316.062 44.3077C316.062 40.1231 317.292 37.9077 321.969 37.9077C322.461 37.9077 322.954 37.9077 323.692 37.9077V35.9385C323.692 34.7077 323.2 33.7231 321.723 33.7231C320.738 33.7231 319.754 34.4615 319.508 35.6923H316.308C316.308 33.9692 317.046 32.7385 318.031 31.5077C319.015 30.5231 320.492 30.0308 322.215 30.0308C325.415 30.0308 327.877 32 327.877 35.9385V48.9846H324.185V47.0154H323.938ZM323.938 40.8615C323.446 40.8615 323.2 40.8615 322.954 40.8615C321.231 40.8615 320 41.6 320 43.5692C320 45.0461 320.738 46.0308 321.969 46.0308C323.2 46.0308 323.938 45.0461 323.938 43.5692V40.8615Z" fill="#231F20"/>
<path d="M330.339 30.2769H334.031V32C334.769 30.7692 335.754 30.0308 337.477 30.0308C339.446 30.0308 341.415 31.2615 341.415 34.7077V48.9846H337.723V35.9385C337.723 34.4615 336.985 33.7231 335.754 33.7231C334.277 33.7231 333.785 34.7077 333.785 36.4308V48.9846H330.092V30.2769H330.339Z" fill="#231F20"/>
<path d="M152.369 65.2308H150.4V79.5077H152.369V65.2308Z" fill="#231F20"/>
<path d="M162.954 69.4154H160.985V68.9231C160.985 67.9385 160.492 67.2 159.508 67.2C158.277 67.2 158.031 68.1846 158.031 69.1692C158.031 70.1538 158.031 70.6461 159.261 71.1385L160.738 71.8769C162.461 72.6154 162.954 73.6 162.954 75.8154C162.954 78.2769 161.969 80 159.508 80C157.538 80 156.062 78.5231 156.062 76.5538V75.5692H158.031V76.3077C158.031 77.0462 158.523 77.7846 159.508 77.7846C160.985 77.7846 160.985 77.0462 160.985 75.5692C160.985 74.0923 160.738 73.8461 159.754 73.3538L158.277 72.8615C156.554 72.1231 156.062 70.8923 156.062 69.1692C156.062 66.9538 157.292 65.2308 159.508 65.2308C161.477 65.2308 162.954 66.9538 162.954 68.4308V69.4154Z" fill="#231F20"/>
<path d="M166.646 65.2308H168.615V77.5385H172.8V79.5077H166.646V65.2308Z" fill="#231F20"/>
<path d="M178.462 65.2308H180.185L183.385 79.5077H181.415L180.923 76.3077H178.215L177.723 79.5077H175.754L178.462 65.2308ZM179.2 69.4154L178.215 74.5846H180.185L179.2 69.4154Z" fill="#231F20"/>
<path d="M186.338 65.2308H188.308L191.015 72.8615L193.477 65.2308H195.692V79.5077H193.477V70.8923L191.508 77.0461H190.523L188.308 70.8923V79.5077H186.338V65.2308Z" fill="#231F20"/>
<path d="M201.6 65.2308H199.631V79.5077H201.6V65.2308Z" fill="#231F20"/>
<path d="M212.185 76.3077C212.185 78.0308 210.708 79.7538 208.985 79.7538C207.508 79.7538 205.539 79.0154 205.539 76.3077V68.4308C205.539 66.4615 206.769 65.2308 208.985 65.2308C210.954 65.2308 212.185 66.7077 212.185 68.6769V69.4154H210.216V68.6769C210.216 67.9385 209.723 67.2 208.985 67.2C208 67.2 207.754 67.9385 207.754 68.9231V76.3077C207.754 77.0462 208 77.7846 208.985 77.7846C209.477 77.7846 210.216 77.5385 210.216 76.3077V75.5692H212.185V76.3077Z" fill="#231F20"/>
<path d="M232.615 76.3077C232.615 78.0308 231.139 79.7538 229.415 79.7538C227.939 79.7538 225.969 79.0154 225.969 76.3077V68.4308C225.969 66.4615 227.2 65.2308 229.415 65.2308C231.385 65.2308 232.615 66.7077 232.615 68.6769V69.4154H230.646V68.6769C230.646 67.9385 230.154 67.2 229.415 67.2C228.431 67.2 228.185 67.9385 228.185 68.9231V76.3077C228.185 77.0462 228.431 77.7846 229.415 77.7846C229.908 77.7846 230.646 77.5385 230.646 76.3077V75.5692H232.615V76.3077Z" fill="#231F20"/>
<path d="M236.062 68.6769C236.062 66.2154 237.785 65.2308 239.508 65.2308C241.231 65.2308 242.954 66.4615 242.954 68.6769V76.3077C242.954 78.7692 241.231 79.7538 239.508 79.7538C237.785 79.7538 236.062 78.5231 236.062 76.3077V68.6769ZM238.031 76.0615C238.031 77.0461 238.769 77.5385 239.508 77.5385C240.246 77.5385 240.985 77.0461 240.985 76.0615V68.4308C240.985 67.4461 240.246 66.9538 239.508 66.9538C238.769 66.9538 238.031 67.4461 238.031 68.4308V76.0615Z" fill="#231F20"/>
<path d="M246.892 65.2308H248.861L251.323 72.8615H251.569L254.031 65.2308H256V79.5077H254.031V70.8923L251.815 77.0461H250.831L248.861 70.8923V79.5077H246.892V65.2308Z" fill="#231F20"/>
<path d="M259.938 65.2308H261.908L264.615 72.8615L267.323 65.2308H269.292V79.5077H267.323V70.8923L265.108 77.0461H264.123L262.154 70.8923V79.5077H259.938V65.2308Z" fill="#231F20"/>
<path d="M279.877 76.3077C279.877 78.2769 278.4 79.7538 276.431 79.7538C274.708 79.7538 272.985 78.2769 272.985 76.3077V65.2308H274.954V76.0615C274.954 77.0461 275.446 77.5385 276.185 77.5385C276.923 77.5385 277.416 77.0461 277.416 76.0615V65.2308H279.385V76.3077H279.877Z" fill="#231F20"/>
<path d="M283.815 65.2308H285.785L288.739 73.8462H288.985V65.2308H290.954V79.5077H288.985L285.785 70.8923V79.5077H283.815V65.2308Z" fill="#231F20"/>
<path d="M296.861 65.2308H294.892V79.5077H296.861V65.2308Z" fill="#231F20"/>
<path d="M302.277 67.2H299.815V65.2308H306.708V67.2H304.492V79.5077H302.277V67.2Z" fill="#231F20"/>
<path d="M311.63 73.3538L308.677 65.2308H310.892L312.615 70.8923L314.338 65.2308H316.554L313.6 73.3538V79.5077H311.63V73.3538Z" fill="#231F20"/>
<path d="M341.169 111.015C340.923 111.015 340.677 111.262 340.431 111.262C340.431 111.262 339.938 111.262 339.446 111.015C338.954 110.769 338.461 110.523 337.969 110.523C337.231 110.523 336.492 111.015 335.754 111.754C335.015 112.492 334.277 113.723 333.046 115.446C332.8 115.446 332.554 115.2 332.308 115.2V119.631C334.031 119.631 335.508 118.892 337.231 117.415C338.215 116.431 339.2 115.2 339.938 113.723C340.184 113.477 340.431 112.985 340.923 112.492C341.415 112 341.415 111.754 341.415 111.262C341.661 111.015 341.415 110.769 341.169 111.015ZM334.769 115.692C334.277 115.692 334.031 115.692 333.538 115.692C335.015 113.723 336 112.492 336.492 112.492C337.231 112.492 338.215 112.738 339.2 112.985C338.215 114.708 336.492 115.692 334.769 115.692Z" fill="#231F20"/>
<path d="M332.308 114.954C331.816 114.462 331.323 113.969 331.077 113.477C330.831 112.985 330.831 112 330.831 110.769C330.831 109.785 331.077 108.308 331.323 106.092C331.816 103.877 331.816 102.4 331.816 102.154C331.816 101.908 331.816 101.908 331.816 101.908C331.816 101.908 331.816 101.908 331.569 102.154C331.077 103.631 330.585 104.862 330.092 105.846C329.354 109.785 329.108 112.492 329.108 114.462C329.108 116.185 329.354 117.415 330.092 118.154C330.585 118.892 331.323 119.385 332.308 119.385V114.954Z" fill="#231F20"/>
<path d="M326.154 111.015C325.908 110.523 325.661 110.031 325.415 110.031C325.415 110.031 325.169 110.277 324.677 110.769C324.185 111.262 323.938 111.754 323.938 112C323.446 112 323.2 112.492 322.461 113.231C321.723 114.215 321.231 114.954 320.738 115.2V116.923C321.231 116.431 321.723 115.938 322.215 115.446C322.708 114.954 323.2 114.462 323.446 114.462C323.692 114.462 323.938 114.462 324.184 114.462C324.431 114.462 324.677 114.462 324.923 114.462C325.169 114.462 325.415 114.215 325.661 113.969C325.908 113.477 326.154 112.985 326.154 112.738C326.646 112.246 326.646 111.754 326.154 111.015Z" fill="#231F20"/>
<path d="M319.015 115.938C319.754 114.954 320.246 114.215 320.246 113.723C320.246 113.231 320 112.738 319.508 112.492C319.015 112.246 318.523 112 317.785 112C316.308 112 315.323 112.492 314.585 113.723V113.969C314.585 113.969 314.585 113.969 314.831 113.969C315.077 113.969 315.077 113.969 315.323 113.969C315.815 113.969 316.308 113.969 316.554 114.215C316.8 114.462 317.046 114.462 317.046 114.708C317.046 114.954 316.8 115.2 316.554 115.446C316.062 115.692 315.815 115.692 315.323 115.692C314.831 115.692 314.338 115.446 313.846 115.446V119.877C315.323 119.877 316.554 119.138 317.292 117.908C317.539 117.908 317.538 117.908 317.785 117.908C318.769 117.908 319.754 117.415 320.985 116.431V114.708C320.492 115.692 319.754 115.938 319.015 115.938Z" fill="#231F20"/>
<path d="M313.846 115.692C313.6 115.446 313.354 115.446 312.861 115.446C311.631 115.446 310.154 116.923 308.185 120.123V120.369C308.185 120.369 308.185 120.615 308.431 120.615C308.431 120.615 308.677 120.615 308.677 120.369C309.415 119.385 310.4 119.138 311.138 119.138C311.631 119.138 311.877 119.385 312.123 119.631C312.369 120.123 312.862 120.123 313.6 120.123V115.692H313.846Z" fill="#231F20"/>
<path d="M304 119.385C304 120.615 303.754 121.6 303.754 122.092C303.754 122.338 303.754 122.585 303.754 122.585C303.754 122.585 304 122.585 304 122.338C304.738 121.108 305.231 119.877 305.477 118.154C305.969 114.708 306.215 112.492 306.462 111.508V111.262C306.462 111.015 306.462 111.015 306.462 111.015C306.462 111.015 306.215 111.262 305.969 111.508C304.985 113.723 304.492 114.708 304.492 114.954C304.492 115.938 304.246 117.415 304 119.385Z" fill="#231F20"/>
<path d="M289.969 118.154C295.138 116.185 300.308 113.477 304.985 109.538C305.969 108.8 306.954 108.062 308.185 107.569C308.431 107.569 308.677 107.077 309.169 106.585C309.661 105.846 309.908 105.354 310.154 104.615C310.154 104.615 310.154 104.369 309.908 104.369C309.415 104.369 307.692 105.354 304.985 107.323C296.862 113.231 287.754 116.185 278.154 116.185V120.123C281.846 120.369 285.785 119.631 289.969 118.154Z" fill="#231F20"/>
<path d="M265.846 114.462C265.6 115.446 265.108 116.431 264.615 117.169C263.877 117.662 263.384 118.154 262.4 118.154C262.154 118.154 261.661 118.154 261.415 117.908C262.154 117.169 262.646 116.185 263.138 114.462C263.385 113.723 263.631 112.246 263.877 110.031C264.123 107.569 264.369 105.846 264.615 104.862C264.615 104.615 264.615 104.615 264.615 104.369C264.615 104.123 264.615 104.123 264.615 104.123C264.615 104.123 264.369 104.369 264.123 104.615C263.138 106.585 262.4 107.815 262.4 108.554C262.154 111.015 261.908 112.492 261.908 113.231C261.662 115.446 261.169 116.923 260.677 117.662C260.431 117.908 260.185 117.908 260.185 118.4C260.185 118.646 260.185 118.892 260.431 119.138C260.923 120.123 261.662 120.862 261.908 120.862C262.4 120.862 263.138 120.615 263.877 119.877C264.861 118.892 265.6 117.662 266.092 115.938C267.323 118.892 271.262 120.369 277.908 120.369V116.431C275.446 116.431 273.231 115.938 271.261 114.954C268.8 113.723 267.569 112.246 267.569 110.277C267.569 108.308 267.815 105.846 268.554 103.385V103.138C268.554 103.138 268.308 103.138 268.308 103.385C268.061 103.877 267.569 104.615 267.323 105.108C266.831 105.846 266.585 106.338 266.585 106.585C266.338 110.031 266.092 112.738 265.846 114.462Z" fill="#231F20"/>
<path d="M253.292 110.769C253.784 110.031 254.523 109.538 255.507 109.046C254.769 108.8 254.523 108.554 254.523 108.308C254.523 108.062 254.769 107.569 255.261 106.831C255.754 106.092 256.246 105.354 256.492 105.108H256.738C257.477 105.108 257.969 105.354 258.461 105.6C258.954 105.846 259.2 106.338 259.2 106.585C259.2 106.831 258.954 107.323 258.707 107.815C258.215 108.308 257.723 108.8 257.231 109.046C255.261 110.031 253.784 111.015 253.046 112V110.769H253.292Z" fill="#231F20"/>
<path d="M253.293 110.769C252.554 111.508 251.816 112.492 251.323 113.477C250.831 114.462 250.585 115.2 250.585 115.938C250.585 116.431 250.831 116.923 251.323 117.415C251.816 117.662 252.308 117.908 252.554 118.4C253.046 118.646 253.293 119.138 253.293 119.385C253.293 119.631 253.046 120.123 252.554 120.862C251.816 121.6 251.077 122.338 250.339 122.831C249.354 123.569 248.123 123.815 247.139 123.815C245.662 123.815 244.431 123.323 243.692 122.585C242.954 121.846 242.708 120.862 242.708 119.877C242.708 118.154 243.693 115.446 245.416 112C245.662 111.754 245.662 111.508 245.662 111.262V111.015C245.416 111.015 245.416 111.262 245.169 111.508C242.708 115.692 241.477 119.385 241.477 122.831C241.477 124.308 241.969 125.538 242.708 126.523C243.446 127.508 244.677 128 246.154 128C248.369 128 250.339 126.769 252.308 124.308C254.277 121.846 255.262 119.385 255.262 116.677C255.262 115.938 255.016 115.446 254.769 115.2C254.769 115.2 254.277 114.954 253.785 114.462C253.292 114.215 253.293 113.969 253.293 113.477C253.293 113.231 253.539 112.985 253.785 112.492V110.769H253.293Z" fill="#231F20"/>
<path d="M241.477 109.538C241.231 111.015 241.231 112 241.231 112.246C241.231 112.492 241.231 112.738 241.231 112.738C241.231 112.738 241.477 112.738 241.477 112.492C242.216 111.262 242.708 109.785 243.2 107.815C243.2 107.077 243.446 105.6 243.692 103.631C243.939 101.908 243.939 100.923 244.185 100.185V99.9385C244.185 99.6923 244.185 99.6923 244.185 99.6923C244.185 99.6923 243.939 99.9385 243.939 100.185C243.2 101.908 242.708 103.138 242.462 103.631C241.723 106.092 241.477 108.062 241.477 109.538Z" fill="#231F20"/>
<path d="M234.585 115.446V117.169C236.8 115.2 237.785 113.231 237.785 111.262C237.785 110.277 237.539 109.538 237.046 108.8C236.554 108.308 236.308 108.062 235.569 108.062C235.077 108.062 234.585 108.554 234.092 109.785C233.6 110.769 233.354 111.508 233.354 112C233.354 112.246 233.6 112.492 233.846 112.738C234.092 112.985 234.339 112.985 234.585 112.985C234.831 112.985 235.077 112.985 235.323 112.985C235.569 112.985 235.816 112.985 235.816 112.985C236.308 112.985 236.308 113.231 236.308 113.723C236.308 113.723 235.816 114.462 234.585 115.446Z" fill="#231F20"/>
<path d="M232.862 116.185C232.615 116.185 232.615 116.185 232.862 116.185C233.6 115.2 234.092 114.462 234.092 113.969C234.092 113.477 233.846 112.985 233.354 112.738C232.862 112.492 232.369 112.246 231.631 112.246C230.154 112.246 229.169 112.738 228.431 113.969V114.215C228.431 114.215 228.431 114.215 228.677 114.215C228.923 114.215 228.923 114.215 229.169 114.215C229.662 114.215 229.908 114.215 230.4 114.462C230.646 114.708 230.892 114.708 230.892 114.954C230.892 115.2 230.646 115.446 230.4 115.692C229.908 115.938 229.662 115.938 229.169 115.938C228.677 115.938 228.185 115.692 227.692 115.446V119.877C229.169 119.877 230.154 119.138 231.139 117.908C231.385 117.908 231.385 117.908 231.631 117.908C232.615 117.908 233.6 117.415 234.831 116.431V114.708C234.092 115.938 233.6 116.185 232.862 116.185Z" fill="#231F20"/>
<path d="M227.446 115.938C226.954 115.446 226.462 114.954 226.215 114.462C225.969 113.969 225.969 112.985 225.969 111.754C225.969 110.769 226.215 109.292 226.462 107.077C226.954 104.862 226.954 103.385 226.954 103.138C226.954 102.892 226.954 102.892 226.954 102.892C226.954 102.892 226.954 102.892 226.708 103.138C226.215 104.615 225.723 105.846 225.231 106.831C224.492 110.769 224.246 113.477 224.246 115.446C224.246 117.169 224.492 118.4 225.231 119.138C225.723 119.877 226.462 120.369 227.446 120.369V115.938Z" fill="#231F20"/>
<path d="M221.538 108.8C221.538 108.554 221.538 108.308 221.538 108.308C221.538 108.062 221.538 107.815 221.292 107.815C221.046 107.815 221.046 108.062 220.8 108.554C220.554 108.8 220.554 109.292 220.307 110.031C220.061 110.769 219.815 111.262 219.815 111.508C219.815 111.754 219.815 112 219.815 112.246C219.815 112.492 219.815 112.985 219.815 113.477C219.815 114.215 219.815 114.708 219.815 114.954C219.815 115.938 219.815 116.677 219.569 117.169C218.831 118.892 217.846 120.123 216.123 121.108C214.646 122.092 212.923 122.338 211.446 122.338C210.215 122.338 209.23 122.092 208.246 121.6C207.261 120.862 206.523 119.877 206.523 118.646C206.523 117.415 207.015 115.692 208 113.723C208 113.477 208 113.477 208 113.231V112.985C207.754 112.985 207.754 113.231 207.507 113.477C206.031 116.431 205.046 118.892 205.046 121.354C205.046 122.831 205.538 124.062 206.277 125.046C207.261 126.031 208.492 126.523 210.215 126.523C212.923 126.523 215.384 125.046 217.6 122.338C219.815 119.385 221.046 116.185 221.292 112C221.538 110.769 221.538 109.538 221.538 108.8ZM212.431 114.462C212.923 113.723 213.169 113.231 213.415 113.231C213.907 113.231 214.4 113.477 214.892 113.969C215.384 114.462 215.63 114.954 215.63 115.2C215.63 115.692 215.384 116.185 214.892 116.923C214.4 117.662 214.154 117.908 213.908 117.908C213.908 117.908 213.661 117.908 213.415 117.662C212.923 117.415 212.677 117.169 212.677 117.169C211.938 116.923 211.692 116.677 211.692 116.431C211.938 115.938 212.184 115.2 212.431 114.462Z" fill="#231F20"/>
<path d="M201.846 109.785C202.092 109.292 202.339 108.554 202.585 107.815C202.831 107.077 202.831 106.338 202.831 106.092C202.831 105.846 202.831 105.6 202.585 105.6C202.585 105.6 202.339 105.846 202.339 106.092C202.092 106.585 201.6 107.077 201.354 107.077C200.369 107.077 199.877 106.338 199.877 104.615C199.877 104.123 199.877 103.385 200.123 102.154C200.369 101.415 200.369 100.677 200.615 99.9385C200.615 99.6923 200.615 99.4461 200.615 99.4461C200.615 99.4461 200.369 99.4462 200.369 99.6923C198.892 102.892 198.154 105.846 198.154 108.554C198.154 109.292 198.4 110.031 198.646 110.523C198.892 111.015 199.631 111.262 200.123 111.262H200.369C198.646 114.954 197.662 117.415 197.662 118.892C197.662 119.385 197.908 119.877 198.154 120.369C198.4 120.862 198.892 120.862 199.385 120.862C200.123 120.862 200.862 120.369 201.6 119.138C202.339 118.154 202.585 117.415 202.585 116.677C202.585 115.692 202.092 115.2 201.354 114.954C200.862 115.692 200.616 116.185 200.369 116.677C199.877 116.431 199.385 116.185 199.385 115.446C199.631 114.708 200.369 112.985 201.846 109.785Z" fill="#231F20"/>
<path d="M188.308 111.754C188.8 111.262 189.046 110.523 189.539 110.031C190.523 109.046 191.508 108.554 192 108.554C192.246 108.554 192.246 108.554 192.493 108.554C192.493 108.554 192.739 108.554 192.985 108.554C193.231 108.554 193.723 108.062 194.216 107.323C194.708 106.585 194.954 105.846 194.954 105.6C194.954 105.108 194.708 104.862 193.969 104.862C193.477 104.862 192.492 105.354 191.508 106.338C190.523 107.323 189.539 108.554 188.554 109.785C187.077 112 186.339 113.969 186.339 115.692C186.339 116.185 186.585 116.677 187.077 117.169C187.077 117.169 187.569 117.415 188.554 117.662C189.046 117.908 189.293 118.154 189.293 118.4C189.293 118.892 189.046 119.385 188.554 120.123C187.816 120.862 187.077 121.6 186.339 122.092C185.108 122.831 184.123 123.077 182.892 123.077C181.416 123.077 180.431 122.585 179.692 121.846C178.954 121.108 178.708 120.123 178.708 119.138C178.708 118.154 178.954 116.677 179.692 114.708C180.185 113.231 180.923 112 181.662 110.523C181.662 110.277 181.908 110.031 181.908 110.031V109.785C181.662 109.785 181.416 110.031 181.169 110.523C178.708 114.708 177.231 118.4 177.231 121.6C177.231 123.323 177.477 124.554 178.462 125.538C179.2 126.523 180.431 127.015 181.908 127.015C184.369 127.015 186.339 125.785 188.308 123.077C190.031 120.615 190.769 118.154 190.769 115.692C190.769 114.954 190.523 114.462 190.031 114.215C189.539 113.969 189.046 113.969 188.8 113.723C188.308 113.477 188.062 113.231 188.062 112.738C187.816 112.738 188.062 112.492 188.308 111.754Z" fill="#231F20"/>
<path d="M170.092 113.723C170.585 113.477 171.077 113.231 171.569 113.231C172.308 113.231 172.8 113.477 173.292 113.723C173.785 113.969 174.031 114.462 174.031 114.954C174.031 115.2 173.785 115.692 173.292 115.938C172.8 116.185 172.308 116.431 171.815 116.431C171.077 116.431 170.585 116.185 170.339 115.938V120.615C171.815 120.615 173.046 119.385 174.277 117.169C175.262 115.2 175.754 113.723 175.754 112.246C175.754 111.508 175.508 110.769 174.769 110.277C174.277 109.785 173.539 109.538 172.8 109.538C172.554 109.538 172.308 109.538 172.308 109.538L181.415 98.9538C181.662 98.7077 181.908 98.2154 182.4 97.2308C182.646 96.4923 183.139 95.7538 183.139 95.2615V95.0154V94.7692C183.139 94.7692 182.892 94.7692 182.892 95.0154C181.662 96.4923 179.692 98.9538 176.985 102.154C173.785 105.6 171.815 108.062 170.585 109.538L170.092 113.723Z" fill="#231F20"/>
<path d="M170.338 115.938C169.846 115.446 169.846 114.954 169.846 114.462C169.846 114.215 169.846 113.723 170.092 113.723V110.031C170.092 109.538 170.338 106.585 171.077 101.415C171.077 101.169 171.077 101.169 171.077 101.169C171.077 101.169 170.831 101.169 170.831 101.415C170.585 102.4 170.092 103.631 169.6 105.108C169.354 107.077 169.108 109.046 168.615 111.015C168.123 113.969 167.877 115.938 167.877 116.677C167.877 119.385 168.615 120.862 170.338 120.862V115.938Z" fill="#231F20"/>
<path d="M162.461 120.615C162.954 120.615 163.692 120.123 164.185 119.385C164.677 118.4 164.923 117.169 165.169 115.938V115.692C165.169 115.446 165.169 115.446 165.169 115.446C165.169 115.446 164.923 115.692 164.677 115.938C164.431 116.431 164.185 116.677 163.692 116.677C163.2 116.677 162.708 116.431 162.461 116.185V120.615Z" fill="#231F20"/>
<path d="M162.461 115.938C162.215 115.446 161.969 114.954 161.969 113.969C161.969 113.477 162.461 110.031 163.446 103.385C163.446 103.138 163.446 103.138 163.446 103.138C163.446 103.138 163.2 103.138 163.2 103.385C162.708 104.615 162.215 105.6 161.969 106.338C161.723 107.815 161.231 109.785 160.985 111.754C160.492 114.215 160.492 115.938 160.492 116.923C160.492 119.385 161.231 120.615 162.461 120.615V115.938Z" fill="#231F20"/>
<path d="M153.6 113.477C153.6 113.723 153.6 113.969 153.846 114.215C155.077 115.2 155.815 115.938 155.815 116.677C155.815 116.923 155.569 117.415 154.831 117.908C154.092 118.646 153.354 119.138 152.615 119.877C152.123 120.123 152.123 120.369 152.123 120.369C152.123 120.369 152.123 120.369 152.369 120.369C152.369 120.369 152.615 120.369 152.861 120.369C154.092 120.123 155.323 119.385 156.062 118.646C156.554 118.154 156.8 117.662 157.292 116.677C157.785 115.692 158.031 114.708 158.031 113.969C158.031 112.492 157.292 111.508 155.815 110.523C155.569 110.277 155.323 110.523 155.323 110.523C154.338 111.754 153.846 112.738 153.6 113.477Z" fill="#231F20"/>
<path d="M150.646 110.031C150.4 111.508 150.4 112.492 150.4 112.738C150.4 112.985 150.4 113.231 150.4 113.231C150.4 113.231 150.646 113.231 150.646 112.985C151.385 111.754 151.877 110.277 152.369 108.308C152.369 107.569 152.615 106.092 152.861 104.123C153.108 102.4 153.108 101.415 153.354 100.677V100.431C153.354 100.185 153.354 100.185 153.354 100.185C153.354 100.185 153.108 100.431 153.108 100.677C152.369 102.4 151.877 103.631 151.631 104.123C150.892 106.585 150.646 108.554 150.646 110.031Z" fill="#231F20"/>
<path d="M333.046 124.554C333.538 123.815 333.785 123.323 334.031 123.323C334.523 123.323 335.015 123.569 335.508 124.062C336 124.554 336.246 125.046 336.246 125.292C336.246 125.785 336 126.277 335.508 126.769C335.015 127.262 334.769 127.754 334.523 127.754C334.523 127.754 334.031 127.508 333.292 127.015C333.046 126.769 332.8 126.769 332.554 126.523C332.308 126.523 332.308 126.277 332.308 126.031C332.308 126.031 332.554 125.538 333.046 124.554Z" fill="#231F20"/>
<path d="M237.046 97.2308C237.538 96.4923 237.785 96 238.031 96C238.523 96 239.015 96.2461 239.508 96.7385C240 97.2308 240.246 97.7231 240.246 97.9692C240.246 98.4615 240 98.9538 239.508 99.4461C239.015 99.9384 238.769 100.431 238.523 100.431C238.523 100.431 238.031 100.185 237.292 99.6923C237.046 99.4462 236.8 99.4461 236.554 99.2C236.308 99.2 236.308 98.9538 236.308 98.7077C236.308 98.7077 236.554 97.9692 237.046 97.2308Z" fill="#231F20"/>
<path d="M228.185 97.7231C228.677 96.9846 228.923 96.4923 229.169 96.4923C229.662 96.4923 230.154 96.7385 230.646 97.2308C231.139 97.7231 231.385 98.2154 231.385 98.4615C231.385 98.9539 231.139 99.4462 230.646 99.9385C230.154 100.431 229.908 100.923 229.662 100.923C229.662 100.923 229.169 100.677 228.431 100.185C228.185 99.9385 227.939 99.9385 227.692 99.6923C227.446 99.6923 227.446 99.4462 227.446 99.2C227.446 99.2 227.692 98.7077 228.185 97.7231Z" fill="#231F20"/>
<path d="M165.169 98.2154C165.661 97.4769 165.908 96.9846 166.154 96.9846C166.646 96.9846 167.138 97.2308 167.631 97.7231C168.123 98.2154 168.369 98.7077 168.369 98.9538C168.369 99.4461 168.123 99.9385 167.631 100.431C167.138 100.923 166.892 101.415 166.646 101.415C166.646 101.415 166.154 101.169 165.415 100.677C165.169 100.431 164.923 100.431 164.677 100.185C164.431 100.185 164.431 99.9385 164.431 99.6923C164.431 99.4462 164.677 98.9538 165.169 98.2154Z" fill="#231F20"/>
<path d="M313.354 109.785C313.354 109.538 313.354 109.538 313.107 109.292C312.615 109.292 312.369 109.292 311.877 109.292C311.384 109.538 310.892 109.785 310.892 110.523C310.892 110.769 311.138 111.015 311.384 111.508C311.877 111.754 311.877 112 311.877 112.246C311.877 112.492 311.631 112.492 311.384 112.738C311.384 112.738 310.892 112.738 309.908 112.985C309.415 112.985 309.169 113.231 309.169 113.477C309.169 113.723 309.415 113.723 310.154 113.723C311.877 113.723 312.861 113.231 312.861 112.246C312.861 112 312.615 111.754 312.369 111.262C311.877 111.015 311.63 110.769 311.63 110.523C311.63 110.277 311.877 110.277 312.123 110.277C312.123 110.277 312.615 110.277 313.107 110.277C313.107 110.031 313.354 109.785 313.354 109.785Z" fill="#231F20"/>
<path d="M46.7694 102.4C44.8002 100.923 41.8463 100.185 38.154 100.185C36.6771 100.185 35.2002 100.431 33.7233 100.677C32.2464 100.923 30.7694 101.415 29.5386 101.908C28.3079 102.4 26.831 103.138 25.8463 103.877V111.015C27.3233 109.538 28.8002 108.554 30.7694 107.569C32.4925 106.585 34.4617 106.338 36.4309 106.338C38.154 106.338 39.3848 106.585 39.8771 107.323C40.3694 108.062 40.6156 109.046 40.6156 110.277C40.3694 110.523 39.8771 110.523 39.631 110.769C39.3848 110.769 38.8925 111.015 38.154 111.262C37.4156 111.508 36.4309 111.754 35.2002 112.246C32.9848 112.985 31.0156 113.723 29.7848 114.462C28.3079 115.2 27.3232 115.938 26.5848 117.169C25.8463 118.154 25.354 119.631 25.354 121.108C25.354 122.092 25.6002 123.323 26.0925 124.308C26.5848 125.292 27.3233 126.277 28.554 126.769C29.7848 127.508 31.2617 127.754 33.231 127.754C35.2002 127.754 36.9233 127.508 38.154 127.015C39.3848 126.523 40.6156 125.785 41.6002 125.046C41.8463 125.785 42.3386 126.523 42.8309 127.015C43.3232 127.508 44.5541 127.754 46.031 127.754C47.7541 127.754 48.9848 127.508 50.2156 127.262C50.2156 127.262 50.2156 127.262 50.4617 127.262V108.8C49.7233 106.092 48.7386 103.877 46.7694 102.4ZM40.3694 120.862C39.6309 121.354 39.1387 121.846 38.4002 122.092C37.6617 122.338 37.1694 122.585 36.4309 122.585C35.6925 122.585 35.2002 122.338 34.7079 121.846C34.2156 121.354 33.9694 120.615 33.9694 119.877C33.9694 118.646 34.4617 117.662 35.4463 116.923C36.4309 116.185 38.154 115.446 40.3694 114.462V120.862Z" fill="#18601F"/>
<path d="M76.0614 126.031C75.323 126.277 74.3384 126.523 73.5999 126.769C72.6153 127.015 71.8769 127.262 70.6461 127.508C69.6615 127.754 68.4307 127.754 67.1999 127.754C64.246 127.754 61.7845 127.262 59.8153 126.277C57.846 125.292 56.3691 124.062 55.1384 122.585C54.1538 121.108 53.4153 119.631 52.923 118.154C52.4307 116.677 52.1846 115.2 52.1846 113.969C52.1846 112.738 52.4307 111.508 52.923 109.785C53.4153 108.308 54.1538 106.831 55.1384 105.354C56.123 103.877 57.5999 102.646 59.8153 101.662C61.7845 100.677 64.246 100.185 67.1999 100.185C69.1691 100.185 70.6461 100.431 71.8769 100.677C73.1076 100.923 74.3384 101.415 75.5692 101.908V109.292C72.6153 108.308 70.1537 107.815 68.4307 107.815C66.7076 107.815 65.2307 108.308 63.9999 109.292C62.7692 110.277 62.0307 111.754 62.0307 113.969C62.0307 115.446 62.2769 116.431 63.0153 117.415C63.7538 118.4 64.4922 119.138 65.4769 119.631C66.4615 120.123 67.446 120.369 68.4307 120.369C69.4153 120.369 70.3999 120.123 71.6307 119.877C72.8615 119.631 74.3384 119.138 76.0614 118.646V126.031Z" fill="#18601F"/>
<path d="M88.6155 100.923H79.2617V127.262H88.6155V100.923Z" fill="#18601F"/>
<path d="M115.446 126.031C114.708 126.277 113.723 126.523 112.985 126.769C112 127.015 111.262 127.262 110.031 127.508C109.046 127.754 107.815 127.754 106.585 127.754C103.631 127.754 101.169 127.262 99.2 126.277C97.2308 125.292 95.7539 124.062 94.5231 122.585C93.5385 121.108 92.8001 119.631 92.3078 118.154C91.8155 116.677 91.5693 115.2 91.5693 113.969C91.5693 112.738 91.8155 111.508 92.3078 109.785C92.8001 108.308 93.5385 106.831 94.5231 105.354C95.5078 103.877 96.9847 102.646 99.2 101.662C101.169 100.677 103.631 100.185 106.585 100.185C108.554 100.185 110.031 100.431 111.262 100.677C112.492 100.923 113.723 101.415 114.954 101.908V109.292C112 108.308 109.539 107.815 107.815 107.815C106.092 107.815 104.615 108.308 103.385 109.292C102.154 110.277 101.415 111.754 101.415 113.969C101.415 115.446 101.662 116.431 102.4 117.415C103.139 118.4 103.877 119.138 104.862 119.631C105.846 120.123 106.831 120.369 107.815 120.369C108.8 120.369 109.785 120.123 111.015 119.877C112.246 119.631 113.723 119.138 115.446 118.646V126.031Z" fill="#18601F"/>
<path d="M113.477 34.9538L107.815 40.3692L70.1537 10.0923L32.246 40.3692L26.8306 34.9538L70.1537 0L113.477 34.9538Z" fill="#18601F"/>
<path d="M116.923 90.0923C123.569 68.9231 112.738 57.1077 99.2 49.2308C89.1077 43.3231 77.7846 39.6308 70.4 35.6923C63.2616 39.6308 51.6923 43.3231 41.6 49.2308C27.8154 57.1077 16.9846 68.4308 22.6462 89.1077L0 66.9538L32.7384 40.6154L70.1538 10.0923L107.815 40.3692L140.554 66.7077L116.923 90.0923Z" fill="#6CBE45"/>
<path fill-rule="evenodd" clip-rule="evenodd" d="M64.7385 45.5385C52.9231 53.4154 20.6771 60.0615 34.954 94.7692H60.8001C39.8771 70.1538 60.0616 50.9538 64.7385 45.5385Z" fill="#6CBE45"/>
<path fill-rule="evenodd" clip-rule="evenodd" d="M99.1999 94.7692C99.446 94.7692 99.6922 94.5231 99.6922 94.2769C99.9384 92.8 94.523 89.1077 93.5383 88.6154C91.323 87.3846 91.3229 87.1385 93.046 85.4154C96.4922 82.2154 107.323 80.2462 107.077 78.7692C106.831 77.2923 102.154 76.8 102.4 74.3385C102.4 73.3539 104.615 70.4 105.846 68.9231C107.077 67.4462 105.6 67.2 104.123 67.4462C102.646 67.6923 99.446 68.6769 97.9691 68.6769C94.2768 68.6769 95.0152 67.4462 95.5076 64.2462C95.5076 63.7539 95.7537 62.5231 95.0153 62.2769C94.2768 62.0308 90.3384 66.7077 88.8614 67.6923C87.6307 68.4308 85.1691 70.8923 83.6922 70.1539C82.2153 69.4154 83.1999 65.4769 83.1999 64.2462C83.446 61.7846 86.1537 54.1538 85.1691 53.6615C84.1845 52.9231 82.9537 54.4 82.4614 54.6462C77.5384 57.6 77.046 59.5692 75.8152 54.1539C75.8152 53.9077 75.5691 53.4154 75.5691 53.1692C75.0768 50.2154 76.7999 46.2769 76.0614 45.7846C75.5691 45.2923 73.1076 48.7385 72.6153 49.2308C67.9384 55.3846 67.4461 65.2308 71.6307 72.8615C76.3076 81.7231 76.3076 89.6 75.323 93.0462C75.323 93.2923 74.8306 94.0308 74.8306 94.5231H99.1999V94.7692Z" fill="#ED1C24"/>
<path fill-rule="evenodd" clip-rule="evenodd" d="M65.723 50.9538C54.4 71.1385 72.3691 94.5231 72.3691 94.5231H65.723C65.9692 94.7692 46.523 73.3538 65.723 50.9538Z" fill="#6CBE45"/>
</svg>
