<?xml version="1.0" encoding="utf-8"?>
<!-- Generator: Adobe Illustrator 22.0.0, SVG Export Plug-In . SVG Version: 6.00 Build 0)  -->
<svg version="1.1" id="Capa_1" xmlns="http://www.w3.org/2000/svg" xmlns:xlink="http://www.w3.org/1999/xlink" x="0px" y="0px"
	 viewBox="0 0 31.6 25" style="enable-background:new 0 0 31.6 25;" xml:space="preserve">
<style type="text/css">
	.st0{clip-path:url(#SVGID_2_);fill:url(#SVGID_3_);}
</style>
<g>
	<defs>
		<path id="SVGID_1_" d="M9.8,20.1c-1.9-1.5-3.2-3.7-3.6-6.2C5.3,8.7,8.5,4.6,12.1,3.2c-0.8,2.1-1.1,4.1-0.7,6
			c0.4,2,1.5,3.9,3.3,5.5c1.9,1.6,3.9,2.5,6.2,2.5c1.4,0,2.8-0.3,4.3-0.9c-0.7,1.6-1.7,2.9-3.1,4c-1.5,1.2-3.2,1.8-5.1,2
			c-0.3,0-0.6,0-0.9,0C13.7,22.2,11.6,21.5,9.8,20.1 M12.8,1.8C12.8,1.8,12.8,1.8,12.8,1.8C7.5,3.4,4.3,8.6,5.2,14.1
			c0.4,2.6,1.7,4.9,3.7,6.6c2,1.7,4.5,2.6,7.1,2.6h0l0.3,0c0.2,0,0.5,0,0.7,0c0.1,0,0.2,0,0.3,0c0,0,0.1,0,0.1,0
			c3.3-0.4,5.9-2,7.8-4.7c0.6-0.9,1.1-2,1.4-3.1c0-0.2,0-0.5-0.2-0.6c-0.1-0.1-0.3-0.1-0.4-0.1c0,0-0.1,0-0.1,0
			c-0.1,0-0.1,0.1-0.2,0.1c0,0,0,0,0,0c-3.1,1.8-6.9,1.6-9.7-0.4c-3.2-2.4-4.5-6.6-3.1-10.3C13,3.7,13.2,3.3,13.4,3
			c0.1-0.1,0.1-0.3,0.2-0.4c0.1-0.1,0.2-0.4-0.1-0.7c-0.1-0.1-0.3-0.1-0.4-0.1c0,0-0.1,0-0.1,0c0,0,0,0,0,0
			C12.9,1.8,12.9,1.8,12.8,1.8"/>
	</defs>
	<clipPath id="SVGID_2_">
		<use xlink:href="#SVGID_1_"  style="overflow:visible;"/>
	</clipPath>
	
		<linearGradient id="SVGID_3_" gradientUnits="userSpaceOnUse" x1="-508.7348" y1="326.7797" x2="-507.7348" y2="326.7797" gradientTransform="matrix(-0.2316 25.475 25.475 0.2316 -8427.0225 12888.126)">
		<stop  offset="0" style="stop-color:#EBC189"/>
		<stop  offset="0.2018" style="stop-color:#EBC189"/>
		<stop  offset="0.3178" style="stop-color:#CAA46B"/>
		<stop  offset="0.3823" style="stop-color:#BD995F"/>
		<stop  offset="0.5167" style="stop-color:#A4824B"/>
		<stop  offset="0.6138" style="stop-color:#977641"/>
		<stop  offset="0.6751" style="stop-color:#8F6B3B"/>
		<stop  offset="0.7712" style="stop-color:#855E33"/>
		<stop  offset="0.9528" style="stop-color:#755400"/>
		<stop  offset="1" style="stop-color:#755400"/>
	</linearGradient>
	<polygon class="st0" points="26.7,1.8 26.5,23.5 4.1,23.3 4.3,1.6 	"/>
</g>
</svg>
