<svg width="36" height="36" viewBox="0 0 36 36" fill="none" xmlns="http://www.w3.org/2000/svg">
<g clip-path="url(#clip0)">
<path d="M17.9999 0C14.5225 0 11.6934 2.82916 11.6934 6.30654V18.7012C11.6934 22.1781 14.5225 25.0073 17.9999 25.0073C21.4773 25.0073 24.3064 22.1978 24.3064 18.7445V6.30654C24.3064 2.82916 21.4773 0 17.9999 0ZM21.6783 18.7441C21.6783 20.7482 20.0281 22.3791 17.9999 22.3791C15.9717 22.3791 14.3211 20.7293 14.3211 18.7007V6.30654C14.3211 4.27795 15.9713 2.62772 17.9999 2.62772C20.0285 2.62772 21.6787 4.27795 21.6783 6.30654V18.7441Z" fill="#454545"/>
<path d="M19.3138 28.7737H16.686V34.6861H19.3138V28.7737Z" fill="#454545"/>
<path d="M21.4602 33.3723H14.5404C13.8147 33.3723 13.2266 33.9605 13.2266 34.6862C13.2266 35.4119 13.8147 36 14.5404 36H21.4602C22.1859 36 22.774 35.4119 22.774 34.6862C22.774 33.9605 22.1859 33.3723 21.4602 33.3723Z" fill="#454545"/>
<path d="M27.9417 16.5109C27.216 16.5109 26.6279 17.099 26.6279 17.8247V18.8758C26.6279 23.6329 22.7572 27.5036 18.0001 27.5036C13.2426 27.5036 9.37235 23.633 9.37235 18.8758V17.8247C9.37235 17.099 8.78418 16.5109 8.05849 16.5109C7.33279 16.5109 6.74463 17.099 6.74463 17.8247V18.8758C6.74463 25.0821 11.7938 30.1313 18.0001 30.1313C24.2064 30.1313 29.2556 25.0821 29.2556 18.8758V17.8247C29.2556 17.0991 28.6674 16.5109 27.9417 16.5109Z" fill="#454545"/>
</g>
<defs>
<clipPath id="clip0">
<rect width="36" height="36" fill="white"/>
</clipPath>
</defs>
</svg>
