<?xml version="1.0" encoding="utf-8"?>
<!-- Generator: Adobe Illustrator 22.0.0, SVG Export Plug-In . SVG Version: 6.00 Build 0)  -->
<svg version="1.1" id="Layer_1" xmlns="http://www.w3.org/2000/svg" xmlns:xlink="http://www.w3.org/1999/xlink" x="0px" y="0px"
	 viewBox="0 0 28.6 39.9" style="enable-background:new 0 0 28.6 39.9;" xml:space="preserve">
<style type="text/css">
	.st0{clip-path:url(#SVGID_2_);fill:url(#SVGID_3_);}
	.st1{clip-path:url(#SVGID_5_);fill:url(#SVGID_6_);}
	.st2{clip-path:url(#SVGID_8_);fill:url(#SVGID_9_);}
	.st3{clip-path:url(#SVGID_11_);fill:url(#SVGID_12_);}
	.st4{clip-path:url(#SVGID_14_);fill:url(#SVGID_15_);}
	.st5{clip-path:url(#SVGID_17_);fill:url(#SVGID_18_);}
	.st6{clip-path:url(#SVGID_20_);fill:url(#SVGID_21_);}
	.st7{clip-path:url(#SVGID_23_);fill:url(#SVGID_24_);}
</style>
<g>
	<defs>
		<path id="SVGID_1_" d="M14.4,39c-0.5,0-0.6,0-0.7-0.3h1.1C14.8,39,14.7,39,14.4,39L14.4,39z M12.2,37.2c-0.3-0.2-0.6-0.4-0.9-0.5
			c-0.2-0.1-0.4-0.2-0.6-0.3c-0.5-0.3-1.1-1-1.4-1.6h10.1c-0.3,0.6-0.7,1.1-1.2,1.4c-0.3,0.2-0.6,0.4-0.8,0.5
			c-0.1,0.1-0.2,0.1-0.3,0.2c-0.5,0.3-1,0.6-1.6,0.9c-0.1,0-0.2,0.1-0.3,0.1c0,0-0.1,0-0.1,0c0,0-0.1,0-0.1,0c-0.2,0-0.4,0-0.6,0
			C13.6,37.9,12.9,37.8,12.2,37.2 M8.8,33.5h11c0,0.4,0,0.4-0.4,0.4H9.3C8.9,33.9,8.8,33.9,8.8,33.5 M8.7,32.6c-0.1,0-0.2,0-0.2-0.1
			c-0.3-0.3-0.5-0.6-0.8-1l-0.1-0.1H21l-0.1,0.2c-0.2,0.3-0.5,0.6-0.7,0.9c0,0.1-0.2,0.1-0.2,0.1c-1.9,0-3.8,0-5.8,0
			C12.4,32.6,10.6,32.6,8.7,32.6 M21.4,28.2c-0.2-0.1-0.3-0.2-0.5-0.3c-0.5-0.3-0.7-0.7-0.8-1.2c-0.1-0.4-0.2-0.8-0.6-1.1
			c-0.1-0.1-0.2-0.3-0.2-0.4c0-2.5,0-5.1,0-8c0-0.1,0.1-0.2,0.2-0.3c0.2-0.3,0.5-0.6,0.6-1.1c0.1-0.6,0.4-1,0.8-1.2
			c0.2-0.1,0.3-0.2,0.5-0.3c0,0,0,0,0,0L21.4,28.2C21.5,28.2,21.5,28.2,21.4,28.2 M7.1,14.1c0,0,0.1,0,0.1,0.1
			c0.2,0.1,0.4,0.3,0.6,0.4c0.3,0.3,0.6,0.6,0.6,1.1c0.1,0.5,0.3,0.8,0.6,1.1c0.1,0.1,0.2,0.2,0.2,0.3c0,2.6,0,5.3,0,8
			c0,0.1-0.1,0.2-0.1,0.3c-0.3,0.3-0.5,0.7-0.6,1.2c-0.1,0.6-0.4,1-0.9,1.3c-0.2,0.1-0.3,0.2-0.5,0.3l0,0V14.1z M8,28.7
			c0.8-0.5,1.2-1.1,1.4-2.1c0-0.2,0.2-0.4,0.4-0.6c0.2-0.2,0.3-0.3,0.3-0.6c0-2.8,0-5.7,0-8.5c0-0.2,0-0.4-0.3-0.6
			c-0.3-0.2-0.4-0.4-0.5-0.7c-0.2-0.9-0.6-1.5-1.2-1.9c-0.8-0.4-1.1-1.1-1-2h14.3c0.2,1-0.1,1.4-0.9,1.9c-0.7,0.4-1.1,1.1-1.4,2
			c-0.1,0.3-0.3,0.5-0.5,0.7c-0.2,0.2-0.3,0.3-0.3,0.6c0,2.8,0,5.7,0,8.5c0,0.3,0.1,0.5,0.3,0.6c0.2,0.2,0.4,0.4,0.5,0.7
			c0.1,0.8,0.5,1.4,1.2,1.8c1,0.6,1.1,0.9,1,2H7.1C7,29.7,7.1,29.2,8,28.7 M7.7,10.6C8,10.3,8.2,10,8.5,9.7c0,0,0.1,0,0.2,0
			c3.8,0,7.5,0,11.3,0c0.1,0,0.2,0.1,0.2,0.1c0.2,0.3,0.5,0.6,0.7,0.9l0.1,0.1H7.6L7.7,10.6z M8.9,8.4h10.5c0.2,0,0.3,0,0.4,0.1
			c0,0,0,0.2,0,0.3h-11L8.9,8.4z M10.3,6.1c0.3-0.3,0.7-0.5,1.2-0.8c1.1-0.5,1.9-1.2,2.5-2.1c0.1-0.1,0.2-0.1,0.3-0.1h0
			c0.1,0,0.2,0,0.3,0.1c0.6,0.9,1.5,1.6,2.5,2.1c1,0.5,1.7,1.1,2.2,2c0,0.1,0.1,0.1,0.1,0.2H9.2C9.5,6.9,9.9,6.5,10.3,6.1 M13.8,2.1
			c-0.1-0.1-0.2-0.3-0.2-0.5c0-0.4,0.3-0.7,0.7-0.7h0c0.4,0,0.8,0.4,0.8,0.8c0,0.4-0.3,0.7-0.7,0.7h0C14.1,2.3,13.9,2.3,13.8,2.1
			 M13.2,0.5c-0.7,0.7-0.6,1.6,0.1,2.4C12.8,3.6,12,4.2,11,4.7C9.4,5.4,8.5,6.6,8.1,8.2c-0.2,0.7-0.5,1.3-1,1.9
			c-0.2,0.3-0.5,0.6-0.7,0.9c-0.1,0.1-0.2,0.3-0.2,0.5c0,6.5,0,13,0,19.5c0,0.1,0.1,0.3,0.2,0.5c0.2,0.2,0.4,0.5,0.6,0.7
			c0.2,0.3,0.5,0.6,0.7,0.9c0.1,0.2,0.2,0.4,0.2,0.6c0.3,1.4,0.9,2.5,1.9,3.3c0.5,0.4,1.1,0.7,1.7,1l0.1,0c0.7,0.4,1.2,0.7,1.4,1.4
			c0,0,0,0.1,0.1,0.1c0,0,0,0,0,0.1c0.1,0.3,0.3,0.4,0.6,0.4c0.4,0,0.7,0,1,0c0,0,0.1,0,0.1,0c0.3,0,0.6-0.2,0.7-0.5
			c0.2-0.7,0.7-1.2,1.6-1.5c0.1,0,0.2-0.1,0.3-0.1l0.2-0.1c1.7-0.8,2.8-2.2,3.2-4.1c0-0.2,0.1-0.4,0.3-0.6c0.2-0.3,0.5-0.6,0.7-0.9
			c0.2-0.2,0.4-0.4,0.5-0.7c0.1-0.1,0.2-0.3,0.2-0.4c0-0.4,0-0.7,0-1.1c0-0.3,0-0.5,0-0.8c0-5.3,0-10.6,0-15.9c0-0.2,0-0.5,0-0.7
			c0-0.4,0-0.7,0-1.1c0-0.1-0.1-0.3-0.2-0.4c-0.2-0.3-0.4-0.5-0.6-0.8c-0.2-0.3-0.5-0.6-0.7-0.9c-0.1-0.1-0.1-0.3-0.2-0.4
			c-0.4-1.9-1.4-3.3-3.1-4.2c-0.3-0.2-0.6-0.3-1-0.5c-0.5-0.3-0.9-0.7-1.3-1.3c0.8-0.9,0.8-1.8,0.1-2.5C15.1,0.1,14.7,0,14.3,0
			C13.9,0,13.5,0.2,13.2,0.5"/>
	</defs>
	<clipPath id="SVGID_2_">
		<use xlink:href="#SVGID_1_"  style="overflow:visible;"/>
	</clipPath>
	
		<linearGradient id="SVGID_3_" gradientUnits="userSpaceOnUse" x1="-509.7377" y1="310.5247" x2="-508.7377" y2="310.5247" gradientTransform="matrix(0 -39.7026 -39.7026 0 12342.9619 -20194.5879)">
		<stop  offset="0" style="stop-color:#755400"/>
		<stop  offset="4.715310e-02" style="stop-color:#755400"/>
		<stop  offset="0.2288" style="stop-color:#855E33"/>
		<stop  offset="0.3249" style="stop-color:#8F6B3B"/>
		<stop  offset="0.3862" style="stop-color:#977641"/>
		<stop  offset="0.4833" style="stop-color:#A4824B"/>
		<stop  offset="0.6177" style="stop-color:#BD995F"/>
		<stop  offset="0.6822" style="stop-color:#CAA46B"/>
		<stop  offset="0.7982" style="stop-color:#EBC189"/>
		<stop  offset="1" style="stop-color:#EBC189"/>
	</linearGradient>
	<rect x="6.3" y="0" class="st0" width="16.1" height="39.9"/>
</g>
<g>
	<defs>
		<path id="SVGID_4_" d="M23.3,22.9c-0.1,0-0.2,0.1-0.2,0.2c-0.1,0.2,0,0.5,0.3,0.6l0.6,0.4c0.7,0.4,1.5,0.8,2.2,1.3l0.1,0
			c0.1,0,0.2,0.1,0.3,0.1c0,0,0.1,0,0.1,0c0.1,0,0.2,0,0.2-0.1c0.1-0.1,0.2-0.2,0.2-0.4v0l0,0c0,0,0,0,0-0.1c0-0.1-0.1-0.1-0.2-0.2
			c-0.1-0.1-0.3-0.2-0.4-0.3c-0.1,0-0.1-0.1-0.2-0.1L23.8,23c-0.1-0.1-0.2-0.1-0.3-0.1C23.4,22.9,23.4,22.9,23.3,22.9"/>
	</defs>
	<clipPath id="SVGID_5_">
		<use xlink:href="#SVGID_4_"  style="overflow:visible;"/>
	</clipPath>
	
		<linearGradient id="SVGID_6_" gradientUnits="userSpaceOnUse" x1="-509.7377" y1="310.5256" x2="-508.7377" y2="310.5256" gradientTransform="matrix(0 -39.7026 -39.7026 0 12353.6826 -20194.5879)">
		<stop  offset="0" style="stop-color:#755400"/>
		<stop  offset="4.715310e-02" style="stop-color:#755400"/>
		<stop  offset="0.2288" style="stop-color:#855E33"/>
		<stop  offset="0.3249" style="stop-color:#8F6B3B"/>
		<stop  offset="0.3862" style="stop-color:#977641"/>
		<stop  offset="0.4833" style="stop-color:#A4824B"/>
		<stop  offset="0.6177" style="stop-color:#BD995F"/>
		<stop  offset="0.6822" style="stop-color:#CAA46B"/>
		<stop  offset="0.7982" style="stop-color:#EBC189"/>
		<stop  offset="1" style="stop-color:#EBC189"/>
	</linearGradient>
	<rect x="22.9" y="22.9" class="st1" width="4.1" height="2.7"/>
</g>
<g>
	<defs>
		<path id="SVGID_7_" d="M4.9,23c-1,0.6-2.1,1.2-3.1,1.7c-0.1,0.1-0.2,0.2-0.3,0.3c0,0.1,0,0.2,0.1,0.3c0.1,0.1,0.2,0.2,0.4,0.2
			c0.1,0,0.2,0,0.3-0.1l0.5-0.3c0.9-0.5,1.7-1,2.6-1.5c0.1-0.1,0.2-0.1,0.2-0.2c0,0,0,0,0-0.1l0,0l0-0.1c0-0.2-0.1-0.3-0.2-0.4
			c-0.1,0-0.1-0.1-0.2-0.1C5.1,22.9,5,23,4.9,23"/>
	</defs>
	<clipPath id="SVGID_8_">
		<use xlink:href="#SVGID_7_"  style="overflow:visible;"/>
	</clipPath>
	
		<linearGradient id="SVGID_9_" gradientUnits="userSpaceOnUse" x1="-509.7377" y1="310.5249" x2="-508.7377" y2="310.5249" gradientTransform="matrix(0 -39.7026 -39.7026 0 12332.2383 -20194.5879)">
		<stop  offset="0" style="stop-color:#755400"/>
		<stop  offset="4.715310e-02" style="stop-color:#755400"/>
		<stop  offset="0.2288" style="stop-color:#855E33"/>
		<stop  offset="0.3249" style="stop-color:#8F6B3B"/>
		<stop  offset="0.3862" style="stop-color:#977641"/>
		<stop  offset="0.4833" style="stop-color:#A4824B"/>
		<stop  offset="0.6177" style="stop-color:#BD995F"/>
		<stop  offset="0.6822" style="stop-color:#CAA46B"/>
		<stop  offset="0.7982" style="stop-color:#EBC189"/>
		<stop  offset="1" style="stop-color:#EBC189"/>
	</linearGradient>
	<rect x="1.6" y="22.9" class="st2" width="4.1" height="2.6"/>
</g>
<g>
	<defs>
		<path id="SVGID_10_" d="M2.1,14.4L2.1,14.4c-0.2,0-0.4,0.1-0.5,0.2c-0.1,0.1,0,0.3,0.1,0.5c0,0.1,0.1,0.1,0.2,0.2c0,0,0,0,0.1,0
			c0.9,0.5,1.9,1.1,2.8,1.6c0.1,0,0.1,0.1,0.2,0.1L5.2,17l0.1,0c0,0,0,0,0.1,0c0.1,0,0.2-0.1,0.2-0.2c0.1-0.2,0-0.4-0.1-0.4
			c0-0.1-0.1-0.1-0.2-0.2l0,0c-1-0.5-1.9-1.1-2.9-1.6c0,0,0,0,0,0C2.3,14.4,2.2,14.4,2.1,14.4C2.1,14.4,2.1,14.4,2.1,14.4"/>
	</defs>
	<clipPath id="SVGID_11_">
		<use xlink:href="#SVGID_10_"  style="overflow:visible;"/>
	</clipPath>
	
		<linearGradient id="SVGID_12_" gradientUnits="userSpaceOnUse" x1="-509.7377" y1="310.5247" x2="-508.7377" y2="310.5247" gradientTransform="matrix(0 -39.7026 -39.7026 0 12332.2354 -20194.5879)">
		<stop  offset="0" style="stop-color:#755400"/>
		<stop  offset="4.715310e-02" style="stop-color:#755400"/>
		<stop  offset="0.2288" style="stop-color:#855E33"/>
		<stop  offset="0.3249" style="stop-color:#8F6B3B"/>
		<stop  offset="0.3862" style="stop-color:#977641"/>
		<stop  offset="0.4833" style="stop-color:#A4824B"/>
		<stop  offset="0.6177" style="stop-color:#BD995F"/>
		<stop  offset="0.6822" style="stop-color:#CAA46B"/>
		<stop  offset="0.7982" style="stop-color:#EBC189"/>
		<stop  offset="1" style="stop-color:#EBC189"/>
	</linearGradient>
	<rect x="1.6" y="14.4" class="st3" width="4.1" height="2.7"/>
</g>
<g>
	<defs>
		<path id="SVGID_13_" d="M26.3,14.4L26.3,14.4c-1,0.6-1.9,1.1-2.9,1.6l0,0c-0.1,0.1-0.2,0.1-0.2,0.2c-0.1,0.1-0.1,0.3-0.1,0.4
			c0,0.1,0.1,0.2,0.2,0.2c0,0,0.1,0,0.1,0.1l0.1,0l0.2-0.1c0.1,0,0.2-0.1,0.2-0.1c0.9-0.5,1.9-1,2.8-1.6l0.1,0c0,0,0,0,0,0
			c0.1,0,0.2-0.1,0.2-0.2c0.1-0.2,0.2-0.4,0.1-0.5c-0.1-0.1-0.3-0.2-0.5-0.2c0,0,0,0,0,0C26.4,14.4,26.4,14.4,26.3,14.4"/>
	</defs>
	<clipPath id="SVGID_14_">
		<use xlink:href="#SVGID_13_"  style="overflow:visible;"/>
	</clipPath>
	
		<linearGradient id="SVGID_15_" gradientUnits="userSpaceOnUse" x1="-509.7377" y1="310.5247" x2="-508.7377" y2="310.5247" gradientTransform="matrix(0 -39.7026 -39.7026 0 12353.6719 -20194.5879)">
		<stop  offset="0" style="stop-color:#755400"/>
		<stop  offset="4.715310e-02" style="stop-color:#755400"/>
		<stop  offset="0.2288" style="stop-color:#855E33"/>
		<stop  offset="0.3249" style="stop-color:#8F6B3B"/>
		<stop  offset="0.3862" style="stop-color:#977641"/>
		<stop  offset="0.4833" style="stop-color:#A4824B"/>
		<stop  offset="0.6177" style="stop-color:#BD995F"/>
		<stop  offset="0.6822" style="stop-color:#CAA46B"/>
		<stop  offset="0.7982" style="stop-color:#EBC189"/>
		<stop  offset="1" style="stop-color:#EBC189"/>
	</linearGradient>
	<rect x="23" y="14.4" class="st4" width="4.1" height="2.7"/>
</g>
<g>
	<defs>
		<path id="SVGID_16_" d="M1.5,19.5H0.6c-0.4,0-0.6,0.1-0.6,0.4c0,0.1,0,0.2,0.1,0.3c0.1,0.1,0.3,0.1,0.5,0.1h0c0.4,0,0.8,0,1.2,0
			h2.1c0.2,0,0.5,0,0.6-0.4c0-0.1,0-0.2-0.1-0.3c-0.1-0.1-0.3-0.1-0.4-0.1c-0.5,0-1,0-1.4,0C2.2,19.5,1.8,19.5,1.5,19.5"/>
	</defs>
	<clipPath id="SVGID_17_">
		<use xlink:href="#SVGID_16_"  style="overflow:visible;"/>
	</clipPath>
	
		<linearGradient id="SVGID_18_" gradientUnits="userSpaceOnUse" x1="-509.7377" y1="310.5247" x2="-508.7377" y2="310.5247" gradientTransform="matrix(0 -39.7026 -39.7026 0 12330.8916 -20194.5879)">
		<stop  offset="0" style="stop-color:#755400"/>
		<stop  offset="4.715310e-02" style="stop-color:#755400"/>
		<stop  offset="0.2288" style="stop-color:#855E33"/>
		<stop  offset="0.3249" style="stop-color:#8F6B3B"/>
		<stop  offset="0.3862" style="stop-color:#977641"/>
		<stop  offset="0.4833" style="stop-color:#A4824B"/>
		<stop  offset="0.6177" style="stop-color:#BD995F"/>
		<stop  offset="0.6822" style="stop-color:#CAA46B"/>
		<stop  offset="0.7982" style="stop-color:#EBC189"/>
		<stop  offset="1" style="stop-color:#EBC189"/>
	</linearGradient>
	<rect x="0" y="19.5" class="st5" width="4.5" height="0.9"/>
</g>
<g>
	<defs>
		<path id="SVGID_19_" d="M24.7,19.5c-0.4,0-0.6,0.1-0.6,0.4c0,0.1,0,0.2,0.1,0.3c0.1,0.1,0.3,0.1,0.4,0.1h0c0.4,0,0.8,0,1.2,0h2.1
			c0.2,0,0.4,0,0.5-0.1c0.1-0.1,0.1-0.2,0.1-0.3c0-0.4-0.4-0.4-0.6-0.4c-0.8,0-1.6,0-2.4,0H24.7z"/>
	</defs>
	<clipPath id="SVGID_20_">
		<use xlink:href="#SVGID_19_"  style="overflow:visible;"/>
	</clipPath>
	
		<linearGradient id="SVGID_21_" gradientUnits="userSpaceOnUse" x1="-509.7377" y1="310.5247" x2="-508.7377" y2="310.5247" gradientTransform="matrix(0 -39.7026 -39.7026 0 12355.0195 -20194.5879)">
		<stop  offset="0" style="stop-color:#755400"/>
		<stop  offset="4.715310e-02" style="stop-color:#755400"/>
		<stop  offset="0.2288" style="stop-color:#855E33"/>
		<stop  offset="0.3249" style="stop-color:#8F6B3B"/>
		<stop  offset="0.3862" style="stop-color:#977641"/>
		<stop  offset="0.4833" style="stop-color:#A4824B"/>
		<stop  offset="0.6177" style="stop-color:#BD995F"/>
		<stop  offset="0.6822" style="stop-color:#CAA46B"/>
		<stop  offset="0.7982" style="stop-color:#EBC189"/>
		<stop  offset="1" style="stop-color:#EBC189"/>
	</linearGradient>
	<rect x="24.1" y="19.5" class="st6" width="4.5" height="0.9"/>
</g>
<g>
	<defs>
		<path id="SVGID_22_" d="M14.1,28.4c-0.3-0.2-0.5-0.4-0.8-0.6c-0.5-0.3-0.8-0.7-0.9-1.3c-0.1-0.5-0.4-0.8-0.6-1.1
			c-0.1-0.1-0.2-0.2-0.2-0.3c0-2.6,0-5.3,0-8c0-0.1,0.1-0.2,0.1-0.3c0.3-0.3,0.6-0.6,0.7-1.2c0.1-0.5,0.4-1,0.9-1.3
			c0.3-0.2,0.6-0.4,0.8-0.6c0.1-0.1,0.2-0.1,0.3-0.2l0.3,0.2c0.3,0.2,0.7,0.5,1,0.7c0.3,0.3,0.6,0.6,0.6,1c0.1,0.5,0.3,0.9,0.6,1.2
			c0.1,0.1,0.2,0.2,0.2,0.3c0,2.5,0,5.1,0,8c0,0.1-0.1,0.2-0.1,0.3c-0.3,0.3-0.6,0.6-0.7,1.2c-0.1,0.5-0.3,0.8-0.7,1.1
			c-0.3,0.2-0.6,0.4-0.9,0.7c-0.1,0.1-0.2,0.1-0.3,0.2C14.2,28.6,14.2,28.5,14.1,28.4 M14.3,12.2c-0.2,0-0.4,0.2-0.4,0.3
			c-0.2,0.5-0.5,0.8-1,1.1c-0.7,0.4-1.2,1-1.4,1.9c-0.1,0.3-0.2,0.6-0.5,0.7c-0.3,0.2-0.3,0.4-0.3,0.6c0,1.1,0,2.2,0,3.2l0,2
			c0,1,0,2.1,0,3.1c0,0.3,0.1,0.5,0.4,0.7c0.2,0.2,0.4,0.4,0.4,0.6c0.2,1,0.7,1.6,1.5,2c0.5,0.3,0.8,0.6,1,1.1
			c0.1,0.1,0.2,0.3,0.4,0.3c0,0,0,0,0,0c0.2,0,0.4-0.2,0.4-0.3c0.2-0.5,0.5-0.8,1.1-1.1c0.7-0.4,1.2-1,1.3-1.8
			c0.1-0.3,0.2-0.6,0.5-0.7c0.2-0.1,0.3-0.3,0.3-0.6c0-2.9,0-5.7,0-8.6c0-0.3-0.1-0.4-0.3-0.6c-0.2-0.2-0.4-0.4-0.5-0.7
			c-0.2-0.9-0.7-1.6-1.5-2c-0.5-0.2-0.8-0.6-1-1.1C14.7,12.4,14.5,12.2,14.3,12.2L14.3,12.2z"/>
	</defs>
	<clipPath id="SVGID_23_">
		<use xlink:href="#SVGID_22_"  style="overflow:visible;"/>
	</clipPath>
	
		<linearGradient id="SVGID_24_" gradientUnits="userSpaceOnUse" x1="-509.7377" y1="310.5248" x2="-508.7377" y2="310.5248" gradientTransform="matrix(0 -39.7026 -39.7026 0 12342.96 -20194.5879)">
		<stop  offset="0" style="stop-color:#755400"/>
		<stop  offset="4.715310e-02" style="stop-color:#755400"/>
		<stop  offset="0.2288" style="stop-color:#855E33"/>
		<stop  offset="0.3249" style="stop-color:#8F6B3B"/>
		<stop  offset="0.3862" style="stop-color:#977641"/>
		<stop  offset="0.4833" style="stop-color:#A4824B"/>
		<stop  offset="0.6177" style="stop-color:#BD995F"/>
		<stop  offset="0.6822" style="stop-color:#CAA46B"/>
		<stop  offset="0.7982" style="stop-color:#EBC189"/>
		<stop  offset="1" style="stop-color:#EBC189"/>
	</linearGradient>
	<rect x="10.7" y="12.2" class="st7" width="7.3" height="17.8"/>
</g>
</svg>
