<svg width="31" height="32" viewBox="0 0 31 32" fill="none" xmlns="http://www.w3.org/2000/svg">
<g clip-path="url(#clip0)">
<path d="M24.1295 11.5974H21.9556V6.60856C21.9556 3.07019 19.0329 0.191528 15.4406 0.191528C11.8482 0.191528 8.92559 3.07019 8.92559 6.60856V11.5974H6.75616C4.7604 11.5974 3.13672 13.2304 3.13672 15.2376V27.6142C3.13672 29.6214 4.7604 31.2544 6.75616 31.2544H24.1295C26.1252 31.2544 27.7489 29.6214 27.7489 27.6142V15.2376C27.7489 13.2304 26.1252 11.5974 24.1295 11.5974ZM11.3386 6.60856C11.3386 4.40832 13.1787 2.61832 15.4406 2.61832C17.7024 2.61832 19.5426 4.40832 19.5426 6.60856V11.5974H11.3386V6.60856ZM25.336 27.6142C25.336 28.2833 24.7947 28.8276 24.1295 28.8276H6.75616C6.09091 28.8276 5.54968 28.2833 5.54968 27.6142V15.2376C5.54968 14.5686 6.09091 14.0242 6.75616 14.0242H24.1295C24.7947 14.0242 25.336 14.5686 25.336 15.2376V27.6142Z" fill="#D4D4D4"/>
<path d="M15.4429 17.5431C14.2102 17.5431 13.2109 18.5481 13.2109 19.7879C13.2109 20.5795 13.6187 21.2749 14.2342 21.6746V24.3381C14.2342 25.0082 14.7744 25.5515 15.4407 25.5515C16.107 25.5515 16.6472 25.0082 16.6472 24.3381V21.6774C17.2651 21.2782 17.6749 20.5814 17.6749 19.7879C17.6749 18.5481 16.6756 17.5431 15.4429 17.5431Z" fill="#D4D4D4"/>
</g>
<defs>
<clipPath id="clip0">
<rect width="30.8859" height="31.0629" fill="white" transform="translate(0 0.191528)"/>
</clipPath>
</defs>
</svg>
