<svg width="812" height="172" viewBox="0 0 812 172" fill="none" xmlns="http://www.w3.org/2000/svg">
<g filter="url(#filter0_d)">
<rect x="340.323" y="41.3229" width="130.354" height="88.3541" rx="14.5524" fill="white" stroke="#D9D9D9" stroke-width="2.64589"/>
<path fill-rule="evenodd" clip-rule="evenodd" d="M379.372 101.646H371.314L365.273 78.6464C364.986 77.5884 364.377 76.6531 363.481 76.2123C361.246 75.1045 358.783 74.2228 356.096 73.7781V72.8927H369.075C370.867 72.8927 372.21 74.2228 372.434 75.7676L375.569 92.3581L383.622 72.8927H391.456L379.372 101.646ZM395.931 101.646H388.322L394.588 72.8927H402.197L395.931 101.646ZM412.047 80.858C412.271 79.3093 413.614 78.4239 415.182 78.4239C417.645 78.2015 420.328 78.6462 422.567 79.7502L423.911 73.5594C421.672 72.6739 419.208 72.2292 416.973 72.2292C409.588 72.2292 404.214 76.212 404.214 81.7397C404.214 85.9448 408.02 88.1528 410.707 89.4829C413.614 90.8092 414.734 91.6947 414.51 93.021C414.51 95.0105 412.271 95.896 410.036 95.896C407.348 95.896 404.661 95.2329 402.202 94.125L400.859 100.32C403.546 101.424 406.453 101.868 409.14 101.868C417.421 102.087 422.567 98.1078 422.567 92.1355C422.567 84.6146 412.047 84.1738 412.047 80.858ZM449.191 101.646L443.149 72.8927H436.659C435.315 72.8927 433.972 73.7781 433.524 75.1045L422.336 101.646H430.169L431.733 97.4449H441.357L442.253 101.646H449.191ZM437.787 80.6359L440.022 91.4726H433.757L437.787 80.6359Z" fill="#172B85"/>
</g>
<g filter="url(#filter1_d)">
<rect x="41.3229" y="44.3229" width="125.354" height="85.3541" rx="14.5524" fill="white" stroke="#D9D9D9" stroke-width="2.64589"/>
<path fill-rule="evenodd" clip-rule="evenodd" d="M95.0137 110.644L95.8447 105.331L93.9936 105.287H85.1543L91.2973 66.0772C91.3164 65.9585 91.3783 65.8483 91.4686 65.7699C91.5594 65.6915 91.6752 65.6484 91.7962 65.6484H106.701C111.649 65.6484 115.064 66.6848 116.846 68.7306C117.682 69.6903 118.214 70.6934 118.472 71.797C118.742 72.9552 118.747 74.3388 118.483 76.0266L118.464 76.1493V77.2309L119.3 77.7076C120.004 78.0835 120.563 78.5137 120.992 79.0061C121.707 79.8269 122.169 80.8699 122.365 82.1061C122.567 83.3777 122.5 84.8912 122.169 86.6045C121.788 88.575 121.172 90.2915 120.339 91.6957C119.573 92.9896 118.598 94.0631 117.439 94.8947C116.333 95.6851 115.019 96.285 113.533 96.669C112.094 97.0462 110.452 97.2367 108.652 97.2367H107.492C106.663 97.2367 105.857 97.5373 105.225 98.0763C104.59 98.6265 104.171 99.3783 104.043 100.2L103.955 100.679L102.487 110.045L102.42 110.388C102.402 110.497 102.372 110.551 102.328 110.588C102.288 110.622 102.231 110.644 102.175 110.644H95.0137Z" fill="#28356A"/>
<path fill-rule="evenodd" clip-rule="evenodd" d="M120.086 76.2739C120.042 76.5602 119.991 76.8528 119.934 77.1534C117.969 87.3125 111.244 90.822 102.656 90.822H98.2826C97.2322 90.822 96.347 91.5895 96.1836 92.6326L93.3106 110.978C93.2043 111.663 93.7286 112.28 94.4149 112.28H102.171C103.089 112.28 103.869 111.608 104.014 110.696L104.09 110.3L105.55 100.971L105.644 100.459C105.787 99.5446 106.569 98.8725 107.487 98.8725H108.647C116.161 98.8725 122.044 95.8016 123.763 86.9141C124.481 83.2016 124.11 80.1016 122.209 77.9214C121.634 77.2641 120.921 76.7184 120.086 76.2739Z" fill="#298FC2"/>
<path fill-rule="evenodd" clip-rule="evenodd" d="M118.038 75.4487C117.738 75.3604 117.428 75.2807 117.11 75.2085C116.791 75.1382 116.463 75.0759 116.127 75.0212C114.948 74.8295 113.655 74.7385 112.272 74.7385H100.59C100.302 74.7385 100.028 74.8039 99.7841 74.9222C99.2451 75.183 98.845 75.6964 98.7479 76.3251L96.2626 92.1707L96.1914 92.6326C96.3548 91.5896 97.24 90.8221 98.2904 90.8221H102.663C111.252 90.8221 117.976 87.3107 119.942 77.1535C120.001 76.8529 120.05 76.5603 120.094 76.274C119.597 76.0083 119.058 75.7811 118.478 75.5876C118.335 75.5396 118.187 75.4935 118.038 75.4487Z" fill="#22284F"/>
<path fill-rule="evenodd" clip-rule="evenodd" d="M98.7451 76.3253C98.8421 75.6967 99.2423 75.1832 99.7812 74.9242C100.027 74.8055 100.299 74.7401 100.587 74.7401H112.269C113.653 74.7401 114.945 74.8315 116.124 75.0233C116.461 75.0775 116.788 75.1402 117.107 75.2105C117.425 75.2822 117.735 75.3624 118.035 75.4502C118.184 75.495 118.332 75.5416 118.477 75.5878C119.057 75.7813 119.596 76.0103 120.093 76.2742C120.678 72.52 120.088 69.9639 118.072 67.6493C115.849 65.1008 111.837 64.0103 106.703 64.0103H91.7978C90.7492 64.0103 89.8546 64.7778 89.6926 65.8226L83.4846 105.436C83.3622 106.219 83.9627 106.926 84.7478 106.926H93.9494L98.7451 76.3253Z" fill="#28356A"/>
</g>
<g filter="url(#filter2_d)">
<rect x="189.323" y="42.4968" width="128.354" height="87.1827" rx="14.5524" fill="white" stroke="#D9D9D9" stroke-width="2.64589"/>
<path fill-rule="evenodd" clip-rule="evenodd" d="M254.241 106.227C249.781 110.077 243.995 112.4 237.673 112.4C223.568 112.4 212.133 100.833 212.133 86.5635C212.133 72.2941 223.568 60.7266 237.673 60.7266C243.996 60.7266 249.781 63.0504 254.241 66.8998C258.701 63.0505 264.487 60.7266 270.809 60.7266C284.915 60.7266 296.35 72.2942 296.35 86.5635C296.35 100.833 284.915 112.4 270.809 112.4C264.487 112.4 258.701 110.077 254.241 106.227Z" fill="#ED0006"/>
<path fill-rule="evenodd" clip-rule="evenodd" d="M254.244 106.228C259.735 101.489 263.217 94.4375 263.217 86.5637C263.217 78.6899 259.735 71.6387 254.244 66.8998C258.704 63.0506 264.49 60.7268 270.812 60.7268C284.918 60.7268 296.352 72.2944 296.352 86.5637C296.352 100.833 284.918 112.401 270.812 112.401C264.49 112.401 258.704 110.077 254.244 106.228Z" fill="#F9A000"/>
<path fill-rule="evenodd" clip-rule="evenodd" d="M254.24 106.227C259.731 101.489 263.213 94.4373 263.213 86.5636C263.213 78.6898 259.731 71.6386 254.24 66.8997C248.749 71.6386 245.268 78.6898 245.268 86.5636C245.268 94.4373 248.749 101.489 254.24 106.227Z" fill="#FF5E00"/>
</g>
<path d="M223.443 81.2927L224.667 88.491L228.379 81.2927H231.045L229.315 91.2458H227.306L227.798 88.4089L228.769 83.9792L224.954 91.2458H223.58L222.247 83.7263L221.604 88.6277L221.146 91.2458H219.144L220.873 81.2927H223.443ZM235.263 91.2458C235.203 91.059 235.178 90.8357 235.188 90.5759C234.632 91.1319 234.003 91.4008 233.301 91.3826C232.654 91.3735 232.116 91.1638 231.688 90.7537C231.264 90.3389 231.065 89.8285 231.093 89.2224C231.125 88.4158 231.462 87.7983 232.104 87.3699C232.752 86.9369 233.618 86.7205 234.702 86.7205L235.604 86.7341L235.7 86.2898C235.728 86.1394 235.734 85.9958 235.721 85.8591C235.698 85.6449 235.616 85.4786 235.475 85.3601C235.338 85.2371 235.156 85.1733 234.928 85.1687C234.627 85.1596 234.372 85.2348 234.162 85.3943C233.952 85.5492 233.818 85.7748 233.759 86.071L231.824 86.0779C231.856 85.3715 232.18 84.7996 232.795 84.3621C233.415 83.92 234.178 83.7035 235.085 83.7126C235.924 83.7309 236.58 83.9815 237.054 84.4646C237.528 84.9431 237.726 85.5606 237.648 86.3171L237.081 89.8582L237.047 90.2957C237.038 90.6192 237.076 90.8927 237.163 91.116L237.156 91.2458H235.263ZM233.779 89.8855C234.335 89.9037 234.821 89.6622 235.235 89.1609L235.475 87.8826L234.805 87.8757C234.094 87.894 233.581 88.1104 233.267 88.5251C233.153 88.6755 233.082 88.8601 233.055 89.0789C233.018 89.325 233.068 89.5209 233.205 89.6667C233.346 89.808 233.538 89.8809 233.779 89.8855ZM242.625 89.1609C242.698 88.7963 242.445 88.532 241.866 88.3679L241.244 88.2107C239.772 87.8051 239.057 87.0896 239.098 86.0642C239.12 85.3669 239.428 84.7996 240.021 84.3621C240.618 83.92 241.335 83.7035 242.174 83.7126C243.008 83.7218 243.682 83.9428 244.197 84.3757C244.712 84.8087 244.974 85.3852 244.983 86.1052L243.069 86.0984C243.078 85.4649 242.764 85.1436 242.126 85.1345C241.825 85.1345 241.563 85.2097 241.34 85.3601C241.121 85.5105 240.987 85.7133 240.937 85.9685C240.868 86.3331 241.144 86.5906 241.764 86.741L242.037 86.8025C242.666 86.9529 243.147 87.1261 243.479 87.322C243.812 87.5134 244.067 87.7527 244.245 88.0398C244.427 88.3269 244.512 88.671 244.498 89.072C244.484 89.5414 244.332 89.9516 244.04 90.3025C243.753 90.6534 243.356 90.9246 242.851 91.116C242.349 91.3074 241.821 91.3962 241.265 91.3826C240.444 91.3735 239.761 91.1388 239.214 90.6785C238.667 90.2136 238.389 89.6143 238.38 88.8806L240.198 88.8943C240.216 89.6007 240.595 89.9584 241.333 89.9675C241.688 89.9675 241.98 89.8946 242.208 89.7488C242.44 89.6029 242.579 89.407 242.625 89.1609ZM249.304 82.031L248.982 83.8494H250.213L249.96 85.2986H248.729L248.101 89.0037C248.073 89.2361 248.091 89.4138 248.155 89.5369C248.219 89.6599 248.374 89.726 248.62 89.7351C248.693 89.7397 248.889 89.7283 249.208 89.7009L249.071 91.2117C248.729 91.3256 248.36 91.378 247.964 91.3689C247.33 91.3598 246.859 91.1615 246.549 90.7742C246.239 90.3868 246.111 89.8627 246.166 89.2019L246.802 85.2986H245.756L246.009 83.8494H247.055L247.369 82.031H249.304ZM253.569 91.3826C252.922 91.378 252.348 91.2208 251.847 90.9109C251.35 90.5964 250.979 90.1681 250.732 89.6257C250.486 89.0789 250.391 88.4773 250.445 87.821L250.466 87.5476C250.534 86.8276 250.744 86.1667 251.095 85.5652C251.446 84.9636 251.897 84.5011 252.448 84.1775C253 83.8494 253.61 83.6944 254.28 83.7126C255.233 83.7309 255.953 84.0818 256.44 84.7654C256.933 85.4444 257.119 86.3057 257.001 87.3494L256.892 88.1902H252.359C252.341 88.6687 252.457 89.0515 252.708 89.3386C252.959 89.6257 253.3 89.7738 253.733 89.783C254.435 89.8012 255.05 89.53 255.579 88.9695L256.461 90.0632C256.183 90.4825 255.782 90.8106 255.258 91.0476C254.734 91.28 254.171 91.3917 253.569 91.3826ZM254.185 85.3054C253.829 85.2963 253.512 85.408 253.234 85.6404C252.961 85.8728 252.715 86.2761 252.496 86.8503H255.148L255.189 86.6726C255.217 86.4903 255.219 86.3171 255.196 86.1531C255.151 85.8888 255.039 85.6837 254.861 85.5378C254.684 85.3875 254.458 85.31 254.185 85.3054ZM262.531 85.7019C262.267 85.6563 262.05 85.6335 261.882 85.6335C261.194 85.6153 260.649 85.8728 260.248 86.406L259.394 91.2458H257.466L258.751 83.8494L260.562 83.8425L260.385 84.7449C260.85 84.0476 261.424 83.699 262.107 83.699C262.299 83.699 262.522 83.7309 262.777 83.7947L262.531 85.7019ZM270.734 87.9236C270.657 88.6117 270.422 89.2224 270.03 89.7556C269.638 90.2843 269.128 90.6921 268.499 90.9792C267.87 91.2618 267.191 91.3962 266.462 91.3826C265.806 91.3689 265.234 91.2185 264.746 90.9314C264.258 90.6397 263.873 90.2205 263.591 89.6736C263.313 89.1222 263.156 88.4887 263.119 87.7732C263.087 87.2126 263.144 86.5154 263.29 85.6814C263.44 84.8474 263.705 84.1069 264.083 83.4597C264.466 82.8126 264.919 82.2999 265.443 81.9216C266.182 81.393 267.025 81.1378 267.973 81.156C269.003 81.1742 269.818 81.4932 270.42 82.113C271.026 82.7283 271.359 83.585 271.418 84.6833L269.422 84.6765C269.422 84.0476 269.297 83.5873 269.046 83.2957C268.795 83.004 268.406 82.849 267.877 82.8308C267.193 82.808 266.631 83.0518 266.188 83.5623C265.751 84.0727 265.457 84.8178 265.307 85.7976C265.161 86.7501 265.097 87.4633 265.115 87.9373C265.138 88.5388 265.272 88.9832 265.519 89.2703C265.765 89.5528 266.109 89.7009 266.551 89.7146C267.161 89.7374 267.649 89.5938 268.014 89.2839C268.383 88.9695 268.627 88.5206 268.745 87.9373L270.734 87.9236ZM275.731 91.2458C275.672 91.059 275.647 90.8357 275.656 90.5759C275.1 91.1319 274.471 91.4008 273.77 91.3826C273.122 91.3735 272.585 91.1638 272.156 90.7537C271.732 90.3389 271.534 89.8285 271.562 89.2224C271.593 88.4158 271.931 87.7983 272.573 87.3699C273.22 86.9369 274.086 86.7205 275.171 86.7205L276.073 86.7341L276.169 86.2898C276.196 86.1394 276.203 85.9958 276.189 85.8591C276.167 85.6449 276.085 85.4786 275.943 85.3601C275.807 85.2371 275.624 85.1733 275.396 85.1687C275.096 85.1596 274.84 85.2348 274.631 85.3943C274.421 85.5492 274.287 85.7748 274.228 86.071L272.293 86.0779C272.325 85.3715 272.648 84.7996 273.264 84.3621C273.883 83.92 274.647 83.7035 275.554 83.7126C276.392 83.7309 277.049 83.9815 277.522 84.4646C277.996 84.9431 278.195 85.5606 278.117 86.3171L277.55 89.8582L277.516 90.2957C277.507 90.6192 277.545 90.8927 277.632 91.116L277.625 91.2458H275.731ZM274.248 89.8855C274.804 89.9037 275.289 89.6622 275.704 89.1609L275.943 87.8826L275.273 87.8757C274.562 87.894 274.05 88.1104 273.735 88.5251C273.621 88.6755 273.551 88.8601 273.523 89.0789C273.487 89.325 273.537 89.5209 273.674 89.6667C273.815 89.808 274.007 89.8809 274.248 89.8855ZM283.873 85.7019C283.609 85.6563 283.392 85.6335 283.224 85.6335C282.535 85.6153 281.991 85.8728 281.59 86.406L280.735 91.2458H278.808L280.093 83.8494L281.904 83.8425L281.727 84.7449C282.191 84.0476 282.766 83.699 283.449 83.699C283.641 83.699 283.864 83.7309 284.119 83.7947L283.873 85.7019ZM287.373 83.7058C288.061 83.724 288.617 83.9998 289.041 84.533L289.766 80.7458H291.7L289.882 91.2458H288.159L288.269 90.4529C287.717 91.0955 287.075 91.4076 286.341 91.3894C285.881 91.3848 285.477 91.2641 285.131 91.0271C284.785 90.7901 284.516 90.4506 284.324 90.0085C284.137 89.5619 284.035 89.0652 284.017 88.5183C284.003 88.2312 284.01 87.9532 284.037 87.6843L284.078 87.3767C284.188 86.6202 284.397 85.9548 284.707 85.3806C285.021 84.8064 285.404 84.3803 285.855 84.1023C286.311 83.8243 286.817 83.6921 287.373 83.7058ZM285.972 87.6843C285.935 88.0307 285.924 88.3223 285.938 88.5593C285.983 89.3614 286.307 89.7693 286.908 89.783C287.451 89.8057 287.922 89.5505 288.323 89.0173L288.85 86.0779C288.672 85.5903 288.316 85.335 287.783 85.3123C287.314 85.2986 286.922 85.4809 286.607 85.8591C286.298 86.2328 286.086 86.8412 285.972 87.6843Z" fill="white"/>
<g filter="url(#filter3_d)">
<rect x="493.323" y="44.3229" width="126.354" height="85.3541" rx="14.5524" fill="#1F72CD" stroke="#D9D9D9" stroke-width="2.64589"/>
<path fill-rule="evenodd" clip-rule="evenodd" d="M515.128 74.1667L503.059 100.738H517.507L519.299 96.5016H523.393L525.184 100.738H541.089V97.5047L542.506 100.738H550.733L552.15 97.4363V100.738H585.226L589.248 96.6116L593.014 100.738L610.003 100.772L597.895 87.5266L610.003 74.1667H593.277L589.362 78.2171L585.715 74.1667H549.732L546.642 81.0251L543.48 74.1667H529.061V77.2902L527.457 74.1667H515.128ZM517.921 77.9398H524.964L532.969 95.958V77.9398H540.685L546.868 90.8587L552.567 77.9398H560.244V97.0065H555.573L555.535 82.0659L548.724 97.0065H544.546L537.698 82.0659V97.0065H528.088L526.266 92.732H516.423L514.605 97.0027H509.457L517.921 77.9398ZM583.518 77.9398H564.524V96.9952H583.224L589.251 90.68L595.061 96.9952H601.134L592.307 87.5227L601.134 77.9398H595.324L589.328 84.1825L583.518 77.9398ZM521.35 81.1657L518.107 88.7804H524.589L521.35 81.1657ZM569.216 85.368V81.8874V81.884H581.068L586.24 87.4505L580.839 93.0473H569.216V89.2474H579.578V85.368H569.216Z" fill="white"/>
</g>
<g filter="url(#filter4_d)">
<rect x="642.323" y="42.3229" width="128.354" height="87.3541" rx="14.5524" fill="white" stroke="#D9D9D9" stroke-width="2.64589"/>
<path d="M696.211 129.125L770.132 107.562V115.896C770.132 123.202 764.209 129.125 756.903 129.125H696.211Z" fill="#FD6020"/>
<path fill-rule="evenodd" clip-rule="evenodd" d="M756.105 77.0409C760.172 77.0409 762.409 78.8542 762.409 82.2793C762.612 84.8985 760.782 87.1147 758.342 87.5176L763.832 94.9723H759.562L754.885 87.7191H754.478V94.9723H751.021V77.0409H756.105ZM754.473 85.3017H755.49C757.727 85.3017 758.744 84.2943 758.744 82.481C758.744 80.8692 757.727 79.8618 755.49 79.8618H754.473V85.3017ZM739.02 94.9717H748.781V91.9496H742.477V87.1142H748.577V84.092H742.477V80.0625H748.781V77.0404H739.02V94.9717ZM728.846 89.1289L724.169 77.0404H720.509L728.033 95.3747H729.863L737.387 77.0404H733.726L728.846 89.1289ZM687.57 86.1069C687.57 91.1438 691.637 95.3748 696.72 95.3748C698.347 95.3748 699.771 94.9718 701.194 94.3674V90.3379C700.177 91.5467 698.754 92.3526 697.127 92.3526C693.874 92.3526 691.23 89.9349 691.23 86.7113V86.3084C691.027 83.0847 693.67 80.2641 696.924 80.0626C698.551 80.0626 700.177 80.8685 701.194 82.0774V78.0478C699.974 77.2419 698.347 77.0405 696.924 77.0405C691.637 76.6375 687.57 80.8685 687.57 86.1069ZM681.265 83.8909C679.231 83.085 678.621 82.682 678.621 81.6746C678.825 80.4658 679.841 79.4584 681.061 79.6599C682.078 79.6599 683.095 80.2643 683.908 81.0702L685.738 78.6525C684.315 77.4436 682.485 76.6377 680.655 76.6377C677.808 76.4363 675.368 78.6525 675.164 81.4732V81.6746C675.164 84.0923 676.181 85.5027 679.435 86.5101C680.248 86.7115 681.061 87.1145 681.875 87.5174C682.485 87.9204 682.891 88.5248 682.891 89.3307C682.891 90.7411 681.671 91.9499 680.451 91.9499H680.248C678.621 91.9499 677.198 90.9425 676.588 89.5322L674.351 91.7484C675.571 93.9647 678.011 95.1735 680.451 95.1735C683.705 95.375 686.348 92.9573 686.551 89.7337V89.1292C686.348 86.7115 685.331 85.5027 681.265 83.8909ZM669.473 94.9717H672.929V77.0404H669.473V94.9717ZM653.41 77.0409H658.494H659.51C664.391 77.2424 668.254 81.2719 668.051 86.1073C668.051 88.7265 666.831 91.1442 664.797 92.9575C662.967 94.3678 660.73 95.1737 658.494 94.9723H653.41V77.0409ZM657.879 91.9503C659.506 92.1518 661.336 91.5473 662.556 90.54C663.776 89.3311 664.386 87.7193 664.386 85.906C664.386 84.2942 663.776 82.6824 662.556 81.4735C661.336 80.4662 659.506 79.8617 657.879 80.0632H656.862V91.9503H657.879Z" fill="black"/>
<path fill-rule="evenodd" clip-rule="evenodd" d="M711.57 76.625C706.487 76.625 702.217 80.6545 702.217 85.8929C702.217 90.9298 706.284 95.1608 711.57 95.3623C716.857 95.5638 720.924 91.3328 721.128 86.0944C720.924 80.856 716.857 76.625 711.57 76.625V76.625Z" fill="#FD6020"/>
</g>
<defs>
<filter id="filter0_d" x="299" y="0" width="213" height="171" filterUnits="userSpaceOnUse" color-interpolation-filters="sRGB">
<feFlood flood-opacity="0" result="BackgroundImageFix"/>
<feColorMatrix in="SourceAlpha" type="matrix" values="0 0 0 0 0 0 0 0 0 0 0 0 0 0 0 0 0 0 127 0" result="hardAlpha"/>
<feOffset/>
<feGaussianBlur stdDeviation="20"/>
<feColorMatrix type="matrix" values="0 0 0 0 0 0 0 0 0 0 0 0 0 0 0 0 0 0 0.08 0"/>
<feBlend mode="normal" in2="BackgroundImageFix" result="effect1_dropShadow"/>
<feBlend mode="normal" in="SourceGraphic" in2="effect1_dropShadow" result="shape"/>
</filter>
<filter id="filter1_d" x="0" y="3" width="208" height="168" filterUnits="userSpaceOnUse" color-interpolation-filters="sRGB">
<feFlood flood-opacity="0" result="BackgroundImageFix"/>
<feColorMatrix in="SourceAlpha" type="matrix" values="0 0 0 0 0 0 0 0 0 0 0 0 0 0 0 0 0 0 127 0" result="hardAlpha"/>
<feOffset/>
<feGaussianBlur stdDeviation="20"/>
<feColorMatrix type="matrix" values="0 0 0 0 0 0 0 0 0 0 0 0 0 0 0 0 0 0 0.08 0"/>
<feBlend mode="normal" in2="BackgroundImageFix" result="effect1_dropShadow"/>
<feBlend mode="normal" in="SourceGraphic" in2="effect1_dropShadow" result="shape"/>
</filter>
<filter id="filter2_d" x="148" y="1.17383" width="211" height="169.829" filterUnits="userSpaceOnUse" color-interpolation-filters="sRGB">
<feFlood flood-opacity="0" result="BackgroundImageFix"/>
<feColorMatrix in="SourceAlpha" type="matrix" values="0 0 0 0 0 0 0 0 0 0 0 0 0 0 0 0 0 0 127 0" result="hardAlpha"/>
<feOffset/>
<feGaussianBlur stdDeviation="20"/>
<feColorMatrix type="matrix" values="0 0 0 0 0 0 0 0 0 0 0 0 0 0 0 0 0 0 0.08 0"/>
<feBlend mode="normal" in2="BackgroundImageFix" result="effect1_dropShadow"/>
<feBlend mode="normal" in="SourceGraphic" in2="effect1_dropShadow" result="shape"/>
</filter>
<filter id="filter3_d" x="452" y="3" width="209" height="168" filterUnits="userSpaceOnUse" color-interpolation-filters="sRGB">
<feFlood flood-opacity="0" result="BackgroundImageFix"/>
<feColorMatrix in="SourceAlpha" type="matrix" values="0 0 0 0 0 0 0 0 0 0 0 0 0 0 0 0 0 0 127 0" result="hardAlpha"/>
<feOffset/>
<feGaussianBlur stdDeviation="20"/>
<feColorMatrix type="matrix" values="0 0 0 0 0 0 0 0 0 0 0 0 0 0 0 0 0 0 0.08 0"/>
<feBlend mode="normal" in2="BackgroundImageFix" result="effect1_dropShadow"/>
<feBlend mode="normal" in="SourceGraphic" in2="effect1_dropShadow" result="shape"/>
</filter>
<filter id="filter4_d" x="601" y="1" width="211" height="170" filterUnits="userSpaceOnUse" color-interpolation-filters="sRGB">
<feFlood flood-opacity="0" result="BackgroundImageFix"/>
<feColorMatrix in="SourceAlpha" type="matrix" values="0 0 0 0 0 0 0 0 0 0 0 0 0 0 0 0 0 0 127 0" result="hardAlpha"/>
<feOffset/>
<feGaussianBlur stdDeviation="20"/>
<feColorMatrix type="matrix" values="0 0 0 0 0 0 0 0 0 0 0 0 0 0 0 0 0 0 0.08 0"/>
<feBlend mode="normal" in2="BackgroundImageFix" result="effect1_dropShadow"/>
<feBlend mode="normal" in="SourceGraphic" in2="effect1_dropShadow" result="shape"/>
</filter>
</defs>
</svg>
