<svg width="39" height="36" viewBox="0 0 39 36" fill="none" xmlns="http://www.w3.org/2000/svg">
<path d="M11.3522 20.1709C12.6338 21.8212 13.9155 23.2882 15.7465 24.5718C15.9296 24.3884 16.1127 24.2051 16.1127 24.0217C17.5775 22.3714 19.9578 22.188 21.6057 23.4716C22.7043 24.3884 23.6198 25.1219 24.7183 25.8554C26.3662 27.139 26.7324 29.1561 25.8169 30.9898C25.0845 32.2734 24.3521 33.3736 23.2536 34.2905C21.9719 35.5741 20.5071 35.7575 18.6761 35.5741C17.0282 35.3907 15.7465 34.8406 14.2817 34.1071C11.9014 33.0069 9.70426 31.1732 7.69018 29.1561C5.493 26.9556 3.47891 24.7552 1.83102 22.0046C0.915531 20.5376 0.366235 19.0707 3.81917e-05 17.4203C-0.366159 15.2199 0.183137 13.3862 1.83102 11.9192C2.74652 11.1857 3.66201 10.4522 4.5775 9.90212C6.40849 8.80189 8.42257 9.352 9.88736 11.0023C10.6198 12.1026 11.5352 13.0194 12.2676 14.1197C13.7324 15.9534 13.5493 18.3372 11.7183 19.8042C11.7183 19.9875 11.5352 19.9875 11.3522 20.1709ZM19.5916 33.557C20.324 33.557 21.2395 33.3736 21.7888 32.8235C22.5212 32.09 23.2536 31.1732 23.8029 30.2563C24.3521 29.3395 24.1691 28.606 23.2536 27.8725C22.3381 27.139 21.2395 26.2222 20.324 25.4887C19.5916 24.9386 18.6761 24.9386 17.9437 25.672C17.5775 26.0388 17.2113 26.4055 16.8451 26.7723C16.662 27.139 16.2958 27.139 15.9296 27.139C15.3803 27.139 14.831 26.7723 14.2817 26.4055C12.2676 24.9386 10.4367 23.2882 9.15497 21.0878C8.97187 20.721 8.78877 20.5376 8.78877 20.1709C8.60567 19.6208 8.78877 19.0707 9.15497 18.7039C9.52116 18.3372 9.88736 18.1538 10.0705 17.7871C10.986 17.237 10.986 16.5035 10.4367 15.77L10.2536 15.5866C9.52116 14.4864 8.78877 13.5695 7.87328 12.4693C7.32398 11.9192 6.59159 11.7358 5.85919 12.1026C4.9437 12.8361 4.02821 13.3862 3.29581 14.1197C2.74652 14.4864 2.56342 14.8531 2.56342 15.4033C2.38032 16.1367 2.56342 17.0536 2.74652 17.7871C3.11271 19.4374 4.02821 20.9044 4.9437 22.188C6.95779 25.1219 9.33807 27.6891 12.0845 29.8896C13.5493 31.1732 15.1972 32.2734 17.2113 33.0069C17.9437 33.3736 18.6761 33.557 19.5916 33.557Z" fill="#BD995F"/>
<path d="M19.5917 15.4032C19.2255 15.4032 18.8593 15.2198 18.6762 15.2198C17.2114 14.6697 16.1128 13.3861 16.1128 12.1025C16.1128 9.16856 16.1128 6.23462 16.1128 3.30068C16.1128 1.46697 17.5776 0 19.5917 0C24.9015 0 30.0283 0 35.3382 0C37.3522 0 39.0001 1.65034 39.0001 3.66743C39.0001 6.23462 39.0001 8.98519 39.0001 11.5524C39.0001 13.7528 37.5353 15.2198 35.5212 15.2198C32.9579 15.2198 30.3945 15.2198 27.8311 15.2198C27.4649 15.2198 27.2818 15.4032 27.0987 15.5866C26.0001 16.6868 24.9015 17.787 23.8029 18.8872C23.0705 19.6207 22.155 19.8041 21.2396 19.4374C20.3241 19.0706 19.7748 18.1538 19.7748 17.2369C19.5917 16.6868 19.5917 15.9533 19.5917 15.4032ZM21.7889 17.0535C21.9719 17.2369 21.9719 17.0535 21.7889 17.0535C21.9719 17.0535 21.972 16.8702 22.155 16.8702C23.2536 15.7699 24.5353 14.6697 25.6339 13.5695C26.0001 13.2027 26.3663 13.0194 26.9156 13.0194C29.6621 13.0194 32.4086 13.0194 35.1551 13.0194C36.0705 13.0194 36.4367 12.4692 36.6198 11.5524C36.6198 8.98519 36.6198 6.23462 36.6198 3.66743C36.6198 3.11731 36.4367 2.75057 35.8874 2.5672C35.7043 2.5672 35.5213 2.38383 35.1551 2.38383C30.0283 2.38383 24.9015 2.38383 19.7748 2.38383H19.5917C18.8593 2.38383 18.4931 2.93394 18.4931 3.48405C18.4931 6.23462 18.4931 8.98519 18.4931 11.7358C18.4931 12.4692 18.8593 12.836 19.5917 12.836C19.9579 12.836 20.3241 12.836 20.5072 12.836C21.2396 12.836 21.7889 13.3861 21.7889 14.1196C21.7889 15.0364 21.7889 15.7699 21.7889 16.6868V17.0535Z" fill="#BD995F"/>
</svg>
