<?xml version="1.0" encoding="utf-8"?>
<!-- Generator: Adobe Illustrator 22.0.0, SVG Export Plug-In . SVG Version: 6.00 Build 0)  -->
<svg version="1.1" id="Layer_1" xmlns="http://www.w3.org/2000/svg" xmlns:xlink="http://www.w3.org/1999/xlink" x="0px" y="0px"
	 viewBox="0 0 13.5 18.1" style="enable-background:new 0 0 13.5 18.1;" xml:space="preserve">
<style type="text/css">
	.st0{clip-path:url(#SVGID_2_);fill:url(#SVGID_3_);}
</style>
<g>
	<defs>
		<path id="SVGID_1_" d="M2.2,2.8c0-0.3,0.1-0.5,0.3-0.6C2.7,2.1,3,2.2,3.2,2.3c2.6,2,5.2,4.1,7.8,6.1c0.4,0.3,0.4,0.7,0,1.1
			c-2.6,2-5.1,4.1-7.7,6.1c-0.1,0.1-0.3,0.2-0.4,0.3c-0.4,0.1-0.7-0.2-0.7-0.6c0-2.1,0-4.2,0-6.3H2.2C2.2,7,2.2,4.9,2.2,2.8 M2.3,0
			C1,0.3,0,1.4,0,2.8V9h0c0,2.1,0,4.3,0,6.4c0,1,0.5,1.8,1.4,2.3c1.1,0.6,2.2,0.5,3.2-0.3c2.6-2.1,5.2-4.2,7.8-6.2
			c0.7-0.6,1.1-1.3,1.1-2.2c0-0.9-0.4-1.6-1.1-2.2c-2.6-2-5.2-4.1-7.9-6.1C4,0.2,3.4,0,2.8,0C2.6,0,2.5,0,2.3,0"/>
	</defs>
	<clipPath id="SVGID_2_">
		<use xlink:href="#SVGID_1_"  style="overflow:visible;"/>
	</clipPath>
	
		<linearGradient id="SVGID_3_" gradientUnits="userSpaceOnUse" x1="-526.3505" y1="301.0382" x2="-525.3505" y2="301.0382" gradientTransform="matrix(0 -27.7816 -27.7816 0 8370.0869 -14594.7754)">
		<stop  offset="0" style="stop-color:#755400"/>
		<stop  offset="4.715310e-02" style="stop-color:#755400"/>
		<stop  offset="0.2288" style="stop-color:#855E33"/>
		<stop  offset="0.3249" style="stop-color:#8F6B3B"/>
		<stop  offset="0.3862" style="stop-color:#977641"/>
		<stop  offset="0.4833" style="stop-color:#A4824B"/>
		<stop  offset="0.6177" style="stop-color:#BD995F"/>
		<stop  offset="0.6822" style="stop-color:#CAA46B"/>
		<stop  offset="0.7982" style="stop-color:#EBC189"/>
		<stop  offset="1" style="stop-color:#EBC189"/>
	</linearGradient>
	<rect x="0" class="st0" width="13.5" height="18.3"/>
</g>
</svg>
