<?xml version="1.0" encoding="utf-8"?>
<!-- Generator: Adobe Illustrator 22.0.0, SVG Export Plug-In . SVG Version: 6.00 Build 0)  -->
<svg version="1.1" id="Layer_1" xmlns="http://www.w3.org/2000/svg" xmlns:xlink="http://www.w3.org/1999/xlink" x="0px" y="0px"
	 viewBox="0 0 113.3 113.3" style="enable-background:new 0 0 113.3 113.3;" xml:space="preserve">
<style type="text/css">
	.st0{fill:#BD995F;}
	.st1{fill:none;stroke:#14361D;stroke-width:3;stroke-miterlimit:10;}
</style>
<path class="st0" d="M66.9,49.4c2.2,1.6,4.5,2,7,0.7c1.2-0.6,2.2-1.5,3-2.6c3.7-5,5-10.5,3.8-16.7c-0.5-2.6-1.8-4.7-4.1-6.1
	c-1.7-1-3.6-1.4-5.6-1.4c-0.7,0.1-1.3,0.1-2,0.2c-4.1,0.6-6.7,3.1-7.7,7c-1.1,4.5-0.5,8.9,1.4,13.1C63.6,45.9,64.9,47.9,66.9,49.4
	 M61.6,34.2c0.9-0.9,1.9-1.5,3-1.9c0.8-0.3,1.6-0.5,2.4-0.9s1.5-0.8,2.1-1.4c0.7-0.7,1.1-1.4,1.4-2.2c0.1,0,0.2,0,0.3,0
	c0.1,0,0.1,0,0.2,0c0.3,0.8,0.7,1.5,1.4,2.2c0.6,0.6,1.4,1,2.1,1.4c0.8,0.4,1.6,0.6,2.4,0.9c1.2,0.4,2.3,1.1,3.2,2
	c0.1,3.5-0.7,6.9-2.4,10.2c-0.8,1.5-1.8,2.8-3.1,3.9c-2.3,1.9-5.2,1.9-7.5,0c-2.2-1.8-3.5-4.2-4.4-6.9
	C61.9,39.2,61.5,36.7,61.6,34.2"/>
<path class="st0" d="M71.6,60.8c-4.3,0.6-7,3.2-8,7.3c-1.1,4.4-0.6,8.7,1.1,12.9c1,2.6,2.5,5,4.8,6.7s4.7,2.1,7.3,0.7
	c1.2-0.6,2.3-1.5,3.1-2.6c3.9-5.2,5.3-11,4-17.4c-0.5-2.7-1.9-4.9-4.3-6.3c-1.8-1.1-3.8-1.4-5.9-1.5C73,60.7,72.3,60.7,71.6,60.8
	 M83.2,70.5c0.5,5.5-0.7,10.5-4.1,14.9c-0.9,1.2-2.1,2.1-3.5,2.6c-2.1,0.7-4,0.2-5.7-1.1c-2.1-1.6-3.4-3.9-4.3-6.3
	c-1-2.4-1.5-4.9-1.5-7.5c0,0,0-0.9,0.1-1.8s0.2-1.7,0.3-2.6c0-0.2,0.3-0.5,0.5-0.7c1.9-1.2,3.9-2.3,6.3-2.6c3.5-0.5,6.9-0.1,10,1.8
	l0,0C82.9,68.4,83,68.4,83.2,70.5 M78,62.4c2.1,0.8,3.5,2.4,4.3,4.5c-5.8-3.4-11.6-3.4-17.4,0c0.9-2.2,2.4-3.8,4.6-4.6
	C72.4,61.3,75.2,61.3,78,62.4"/>
<path class="st0" d="M94,96L94,96c-0.2-0.1-0.4-0.2-0.5-0.4c-1-0.8-1.8-1.9-2.1-3.2c-1.1-3.9-2.4-7.7-4-11.4
	c-0.6-1.3-0.6-2.4-0.3-3.7c0.9-4.2,1.1-8.4,0-12.5c-0.8-3-2.3-5.3-4.6-6.9c0.6-2.3,0.8-4.6,0.3-7c0-0.1,0-0.2,0-0.3
	c-0.1-0.7-0.3-1.8-0.3-2.3l0,0c-0.1-1.7,0.2-3.3,0.7-5c1.1-3.8,1.7-7.7,1.5-11.7c-0.1-2.4-0.6-4.8-1.7-6.9c-1.8-3.5-4.7-5.4-8.5-6
	c-2.3-0.4-4.7-0.3-7,0.3c-4.4,1.2-7.1,4.1-8.3,8.4c-1.1,4-0.9,8,0,12c0.3,1.3,0.2,2.4-0.3,3.6c-1.6,3.5-2.8,7.2-3.8,10.9
	c-0.2,0.6-0.4,1.2-0.7,1.7c-0.4-0.2-0.9-0.3-1.3-0.5c-0.3-0.1-0.5-0.3-0.7-0.6c-0.6-1.1-0.9-2.2-1.2-3.5c-0.1-0.3,0-0.5,0.2-0.8
	c1.7-2.2,3-4.5,3.5-7.3c0-0.1,0.2-0.3,0.4-0.3c0.7-0.1,1.1-0.5,1.3-1.2c0.3-1.2,0.6-2.3,0.8-3.5c0.3-1.6-0.3-2.7-2-2.6h-0.1
	c-0.1-0.6-0.1-1.2-0.2-1.7c-0.8-5.3-1.6-10.5-2.5-15.8c-0.1-0.8-0.2-0.9-1-0.9h-11c-2.5,0-4.9,0-7.4,0c-0.4,0-0.7,0.1-0.8,0.6
	c-0.5,3-0.9,6-1.4,8.9c-0.5,2.9-0.9,5.9-1.4,8.9c-0.3,0-0.6,0-0.9,0.1c-0.9,0.3-1.3,1.2-1.1,2.3c0.2,1.2,0.5,2.5,0.9,3.7
	c0.2,0.6,0.6,1.1,1.3,1.2c0.3,0,0.4,0.2,0.4,0.4c0,0.1,0,0.3,0.1,0.4c0.5,2.6,1.8,4.9,3.5,6.9c0.2,0.3,0.3,0.5,0.2,0.8
	c-0.2,1.2-0.6,2.3-1.2,3.3c-0.1,0.2-0.4,0.4-0.6,0.5c0,0-0.2,0.2-0.4,0.4c-3.5,1-6.6,2.7-9.1,5.4c-4,4.3-4.7,9.9-1.9,15.1
	c1.1,2,2.5,3.9,4.1,5.6c0.2,0.2,0.3,0.5,0.4,0.8c0.1,0.9,0.2,1.8,0.4,2.7c0.4,2.8,1,5.6,2.5,8.1c0,0,0,0.1,0,0.2
	c-0.2,0.1-0.4,0.2-0.6,0.2h-0.1l-8.4,3.1c-0.4,0.1-0.5,0.6-0.2,0.9c10.4,9.4,23.7,14.5,37.7,14.5s27.2-5.1,37.5-14.4
	C94.5,97,94.5,96.3,94,96 M54.8,36.2c0.8-0.2,1.3,0.1,1.2,1c-0.2,1.2-0.5,2.3-0.7,3.5c0,0.2,0,0.3-0.1,0.5s-0.3,0.4-0.5,0.6
	l-0.1-0.1C54.7,39.8,54.8,38,54.8,36.2 M29.9,41.7c-0.2-0.2-0.4-0.4-0.5-0.6c-0.3-1.2-0.6-2.4-0.8-3.6c0-0.1,0-0.3,0-0.4
	c0-0.8,0.4-1,1.2-0.9C29.8,38,29.9,39.8,29.9,41.7C30,41.6,29.9,41.7,29.9,41.7 M87.2,83.2c0.1,0.2,0.1,0.4,0,0.6
	c-1.7,7.6-6.8,12.4-14.4,13.9c-3.2,0.6-6.5,0.6-9.7,0.3c-2.2-1.1-4.4-2.1-6.7-3c1-0.9,2.1-1.7,3.4-2.1c2.3-0.9,3.4-2.6,3.6-4.9
	c0.1-0.8,0.1-1.6,0.2-2.5c0.1,0.2,0.2,0.4,0.3,0.5c1.1,1.8,2.4,3.4,4.1,4.7c3.3,2.4,8.2,2.4,11.5,0c2.8-2,4.5-4.7,5.8-7.8
	c0.3-0.7,0.6-1.4,0.9-2.2C86.5,81.6,86.9,82.4,87.2,83.2 M59.2,66.7c0.5-1.9,0.7-4,0.5-6.3c-0.1-0.9-0.2-1.8-0.3-2.8
	c0.1,0.3,0.2,0.6,0.3,0.8c0.5,1.6,1.2,3,2,4.3c-0.9,2-1.3,4.2-1.4,6.4c-0.2,4.2,0.4,8.2,1.6,12.2c0.6,2.1,0.9,4.2,0.6,6.3
	c-0.2,1.7-0.8,3.3-2.5,4s-3.2,1.7-4.5,2.9c-0.4-0.1-0.7-0.3-1.1-0.4c-1.2-0.4-2.4-0.9-3.6-1.3c0.5-1.2,1-2.3,1.4-3.5
	c0.7-2.4,1-4.8,1.3-7.2c0-0.3,0.1-0.5,0.3-0.7c1.6-1.8,3.1-3.7,4.2-5.8C59.5,72.7,60,69.7,59.2,66.7 M86.1,65.3
	c1.1,4.3,0.7,8.7-0.3,13c-0.8,3.4-2.1,6.5-4.4,9.2c-1.6,1.9-3.5,3.4-6,3.8c-3.5,0.6-6.4-0.5-8.7-3.1c-1.7-1.8-2.7-4-3.6-6.2
	c-1.3-3.6-1.9-7.3-1.9-11.3c0-2.6,0.4-5.5,1.7-8.1c1.7-3.5,4.5-5.4,8.3-5.9c2.3-0.4,4.6-0.3,6.9,0.3C82.4,58.1,85,61,86.1,65.3
	 M59.6,27.9c1-3.8,3.1-6.6,6.9-7.9c2.4-0.8,4.9-0.9,7.3-0.5c3.6,0.5,6.3,2.4,8,5.7c1.2,2.5,1.6,5.2,1.6,7.8
	c-0.1,3.8-0.6,7.3-1.8,10.7c-0.8,2.2-1.8,4.3-3.4,6c-2.3,2.5-5,3.6-8.4,3c-2.4-0.4-4.2-1.8-5.7-3.6c-2.1-2.6-3.4-5.6-4.2-8.8
	C59,36.2,58.6,32.1,59.6,27.9 M58.6,45.1c0.3-0.8,0.7-1.6,1-2.5c0.3,0.8,0.6,1.4,0.8,2.1c1.3,2.9,2.9,5.6,5.6,7.4
	c3.2,2.2,7.8,2.2,10.9,0c1.7-1.2,2.9-2.7,3.9-4.5c0.1-0.1,0.2-0.3,0.3-0.5c0.1,0.8,0.1,1.6,0.2,2.4c0.1,0.5,0.1,1,0.3,1.5
	c0,0.2,0.1,0.4,0.1,0.5c0.4,1.9,0.2,3.7-0.2,5.6c0,0.1,0,0.1-0.1,0.2c-0.9-0.6-2-1-3.2-1.3c-2.4-0.6-4.8-0.7-7.3-0.3
	c-1.5,0.2-2.9,0.7-4.1,1.3c-4.2-2.3-7.1-6.1-8.3-11.3C58.5,45.4,58.5,45.2,58.6,45.1 M58.1,47.5c0,0.1,0.1,0.2,0.1,0.4
	c1.5,4.2,4,7.5,7.7,9.6c-1.6,1-2.8,2.5-3.8,4.3c-0.5-0.9-0.9-1.8-1.3-2.8c-1-2.7-1.7-5.4-2.3-8.2c-0.2-1.1-0.4-2.2-0.6-3.4
	C58.1,47.5,58.1,47.5,58.1,47.5 M57.5,52.2c0.8,3.2,1.3,5.8,1.5,8.3c0.1,1.7,0.1,3.2-0.2,4.7c-0.1-0.2-0.1-0.4-0.2-0.6
	c-0.8-1.8-1.9-3.4-3.2-4.6c1.4-2.4,2.1-5.2,2.1-8.1C57.4,52,57.5,52.1,57.5,52.2 M55.5,54c0.3-1.1,0.7-2.3,1-3.4
	c0.2,3.2-0.5,6.2-1.9,8.9c-0.6-0.6-1.3-1.1-2-1.5c0.2-0.1,0.3-0.2,0.5-0.4C54.3,56.7,55.1,55.5,55.5,54 M52.2,55.8
	c0.4,0.1,0.7,0.3,1.1,0.4c-0.2,0.2-0.5,0.5-0.7,0.7s-0.5,0.4-0.7,0.6c-0.5-0.3-1-0.5-1.5-0.8c0,0,0,0-0.1,0c0.4-0.2,0.8-0.5,1.2-0.7
	C51.7,55.8,52,55.7,52.2,55.8 M51.1,55.1c0,0-0.1,0.1-0.2,0.2c-0.5,0.3-1.1,0.6-1.6,1c-1.6-0.7-3.1-1.2-4.7-1.5
	c2-0.5,3.7-1.7,5.3-3.2C50.3,52.7,50.7,53.8,51.1,55.1 M53.8,39.5c-0.1,0-0.1,0-0.2,0c-0.3-1.7-0.6-3.3-0.8-5c0.4,0,0.7-0.1,1-0.1
	V39.5z M47.7,26.5c0.2,1,0.3,2,0.5,3h-1.8c0.1-0.7,0.2-1.4,0.3-2.1c0-0.3,0.1-0.6,0.2-0.9c0.1-0.3,0-0.6-0.2-0.9
	c-0.4-0.4-0.3-1,0-1.3s0.9-0.3,1.3,0c0.4,0.4,0.4,0.9,0,1.3C47.6,25.9,47.6,26.1,47.7,26.5 M33.3,17.7h13.5v0.5c0,1.5,0,3,0,4.6
	c0,0.3-0.1,0.5-0.3,0.6c-1,0.5-1.3,1.7-0.7,2.7c0.1,0.2,0.2,0.4,0.1,0.6c-0.1,1-0.3,2-0.5,3c-0.1,0.6,0,0.8,0.6,0.8
	c0.8,0,1.6,0,2.5,0c0.6,0,0.7-0.2,0.6-0.7c-0.1-1-0.3-1.9-0.4-2.9c-0.1-0.3,0-0.6,0.2-0.9c0.6-0.9,0.2-2.1-0.8-2.6
	c-0.3-0.1-0.4-0.3-0.4-0.6c0-1.5,0-3.1,0-4.6c0-0.1,0-0.3,0-0.5c1.1,0,2.2,0,3.3,0c0.1,0,0.3,0.2,0.3,0.3c0.5,3.1,1,6.3,1.5,9.4
	c0.3,2,0.6,4,1,6.1c-7.6,0.7-15.3,0.6-22.9,0C31.7,28.2,32.5,23,33.3,17.7 M30.8,34.4c0.4,0,0.8,0.1,1.2,0.1
	c-0.1,0.6-0.2,1.2-0.3,1.8c-0.2,1-0.3,2-0.5,3c0,0.1-0.1,0.2-0.2,0.3c-0.1-0.1-0.2-0.2-0.2-0.3C30.8,37.7,30.8,36.1,30.8,34.4
	 M31.1,42.6c-0.1-0.7-0.2-1.4-0.2-2.1c1.1,0.2,1.1-0.5,1.2-1.2c0.2-1.5,0.5-3.1,0.8-4.7c6.4,0.4,12.7,0.4,19,0c0.2,1,0.3,2,0.5,3
	c0.1,0.6,0.2,1.3,0.3,1.9c0.2,1,0,0.9,1,1.1c-0.1,1.5-0.2,2.9-0.8,4.3c-1.1,2.9-2.8,5.3-5.2,7.2c-3.3,2.7-7.5,2.7-10.9,0.1
	C33.8,49.7,31.8,46.5,31.1,42.6 M35,51.7c1.1,1.1,2.3,1.9,3.6,2.5c-1.6,0.1-3.2,0.3-4.8,0.6C34.2,53.7,34.6,52.7,35,51.7 M25.6,74.5
	c-0.3,0.4-0.5,0.7-0.5,1.2c0,1.4,0,2.9,0,4.3c-0.1,0-0.1,0-0.2-0.1c-1.9-2.1-3.5-4.3-4.4-7.1c-1.3-4.3-0.2-8,2.6-11.3
	c2-2.4,4.6-3.9,7.5-4.9c4.1-1.5,8.3-1.9,12.6-1.3c0.1,0,0.2,0,0.3,0c0.1,0,0.2,0,0.4,0.1c-0.5,0.2-0.9,0.3-1.3,0.5
	c-4.3,1.5-8.4,3.5-12,6.4c-0.5,0.4-1,0.8-1.4,1.3c-0.2,0.2-0.3,0.5,0,0.7c0.2,0.1,0.5,0.1,0.7-0.1c4.1-3.8,9.1-6,14.3-7.9
	c1.2-0.4,2.3-0.4,3.4,0.1c2.7,1.1,5.2,2.4,7.3,4.5c2.5,2.6,3.8,5.6,3.7,9.2c-0.1,1.1-0.3,2.2-0.8,3.3c-0.9-2.5-2.2-4.6-4-6.3
	c-0.9-0.9-2-1.6-3-2.5c-0.3-0.2-0.6-0.3-0.8,0c-0.2,0.4,0.1,0.6,0.3,0.7c2.6,1.7,4.7,3.9,5.9,6.7c1.4,3.1,1.3,2.3-0.4,4.9
	c-0.6,1-1.4,1.9-2.1,2.8c-0.1,0-0.1,0-0.1,0c0-0.8,0-1.6,0-2.4c0-0.7,0-1.4,0-2c0-0.4-0.1-0.7-0.5-1c-4-3.4-8.4-6.2-13.3-8.2
	c-0.2-0.1-0.3-0.2-0.5-0.2c0-0.1,0-0.1,0-0.2c1.7-0.5,3.4-1.1,5.1-1.6c0.3-0.1,0.6-0.1,0.8-0.2c0.3-0.1,0.6-0.2,0.5-0.6
	S45.3,62.9,45,63c-1,0.3-2,0.5-3,0.8C35.7,66.1,30.3,69.7,25.6,74.5 M26.8,74.6c3.2-3.2,6.9-5.8,11-7.8c0.2-0.1,0.5-0.1,0.7,0
	c5.1,1.9,9.6,4.8,13.8,8.2c0.3,0.3,0.4,0.6,0.5,1c0.1,1-0.2,1.6-0.9,2.4c-1.4,1.4-2.1,3.1-2.8,4.9c-0.4,1.1-0.7,2.2-1.1,3.2
	c-0.2,0.5-0.4,1-0.7,1.5c-0.4,0.6-1.2,0.8-1.8,0.5c-0.2-0.1-0.5-0.3-0.7-0.5c-3-2.4-7.5-2.4-10.5,0c-0.2,0.2-0.5,0.4-0.8,0.5
	c-0.6,0.3-1.2,0.2-1.6-0.3S31.2,87,31,86.4c-0.8-2.5-1.6-4.9-3.1-7.1c-0.3-0.4-0.6-0.8-0.9-1.1c-0.6-0.5-0.9-1-0.7-1.8
	C25.9,75.6,26.3,75.1,26.8,74.6 M27,87.1c-0.5-2.4-0.8-4.8-0.9-7.3c0-0.3,0-0.6,0-0.9c0.1,0,0.1,0,0.1,0c0.2,0.3,0.5,0.6,0.7,1
	c1.4,2.1,2.2,4.4,3,6.8c0.2,0.8,0.6,1.5,1.1,2.2s1.5,1,2.3,0.7c0.5-0.2,0.9-0.4,1.3-0.7c2.8-2.2,6.7-2.2,9.4,0
	c1.1,0.9,2.2,1.1,3.1,0.4c0.8-0.6,1.2-1.4,1.5-2.4c0.7-2.5,1.6-4.9,3-7c0.2-0.3,0.4-0.6,0.6-0.8c0-0.1,0.1-0.1,0.3-0.2
	c-0.1,1.1,0,2.1-0.2,3.1c-0.4,2.4-0.7,4.8-1.3,7.1c-0.8,3-2.4,5.7-4.9,7.7c-4.9,3.8-11.9,3-15.9-1.9C28.7,92.5,27.6,89.9,27,87.1
	 M27.3,94.4c0.4-0.2,0.9-0.5,1.3-0.4s0.6,0.7,0.9,1c3.5,4.4,8.8,6,14,4.2c2.7-0.9,4.8-2.7,6.4-5.1c0.3-0.4,0.5-0.5,0.9-0.3
	c0.9,0.4,1.9,0.7,2.9,1c-1.2,2.4-2.7,4.5-4.5,6.3c-1.3,1.3-2.7,2.4-4.3,3.3c-0.2,0.1-0.4,0.2-0.7,0.3c-4.4,0.3-8.8,0-12.9-1.8
	c-3.2-1.4-5.7-3.6-7.6-6.6c-0.1-0.1-0.2-0.3-0.3-0.4c0,0,0-0.1,0-0.2C24.7,95.3,26,94.8,27.3,94.4 M20.4,97.3
	c-0.1-0.1-0.1-0.4,0.1-0.4c0.6-0.3,1.3-0.5,1.9-0.8c4.5,7.6,11.6,9.8,19.9,9.8c-0.2,0.1-0.2,0.2-0.3,0.2c-1.3,0.6-2.5,1.1-3.8,1.5
	C31.7,105.3,25.7,101.8,20.4,97.3 M56.5,110.7c-1.1,0-2.1,0-3.2-0.1c2.7-1.7,5.1-3.8,7.1-6.3c0.1-0.1,0.1-0.2,0.2-0.2
	c0.2-0.3,0.3-0.5,0-0.8c-0.3-0.2-0.6-0.1-0.8,0.2c-1.8,2.4-4,4.3-6.5,6c-0.1,0.1-0.3,0.2-0.4,0.2c-0.4,0.3-0.9,0.5-1.3,0.8
	c-4.1-0.4-8.1-1.2-12-2.4c1.8-0.6,3.5-1.5,5.2-2.4c4.2-2.4,7.4-5.8,9.6-10.1c0-0.1,0.1-0.2,0.2-0.3c0.5,0.2,1,0.4,1.5,0.6
	c2.6,1,5,2.1,7.4,3.5c2.1,1.2,3.5,3,4.3,5.2c0.5,1.6,0.9,3.2,1.2,4.8C64.9,110.2,60.8,110.7,56.5,110.7 M78.9,106
	c-2.9,1.3-6,2.4-9.2,3.1v-0.4c-0.2-1.2-0.4-2.4-0.7-3.5c-0.6-2.6-1.9-4.6-4-6.1c1.6,0.1,3.2,0.1,4.8,0c4.7-0.3,9-1.6,12.6-4.8
	c2.5-2.2,4.1-4.9,5.2-8c0.1-0.2,0.1-0.3,0.2-0.5h0.1c-0.2,1.2-0.4,2.3-0.6,3.5c-0.6,2.9-1.3,5.8-2.4,8.6
	C83.5,101.3,81.5,104,78.9,106 M92.9,97c-3.2,2.9-6.8,5.3-10.5,7.3c-0.1,0.1-0.2-0.1-0.1-0.2c1.8-2,3.1-4.5,4-7.3
	c0.9-3.1,1.8-6.2,2.3-9.4c0-0.1,0-0.2,0.1-0.2h0.1c0.6,1.8,1.1,3.6,1.6,5.4c0.4,1.5,1.3,2.8,2.5,3.8l0,0
	C93.1,96.5,93.1,96.8,92.9,97"/>
<ellipse class="st1" cx="56.8" cy="57.8" rx="55.1" ry="55.1"/>
</svg>
