<?xml version="1.0" encoding="utf-8"?>
<!-- Generator: Adobe Illustrator 22.0.0, SVG Export Plug-In . SVG Version: 6.00 Build 0)  -->
<svg version="1.1" id="Layer_1" xmlns="http://www.w3.org/2000/svg" xmlns:xlink="http://www.w3.org/1999/xlink" x="0px" y="0px"
	 viewBox="0 0 113.3 113.3" style="enable-background:new 0 0 113.3 113.3;" xml:space="preserve">
<style type="text/css">
	.st0{fill:#BD995F;}
	.st1{fill:none;stroke:#14361D;stroke-width:3;stroke-miterlimit:10;}
</style>
<g>
	<path class="st0" d="M91,32c0-0.5-0.2-1.1-0.4-1.6c-0.6-1.2-1.7-1.7-3-1.7c-0.9,0-1.8,0-2.7,0c0-0.9,0-1.6,0-2.4
		c0-1.3-0.9-2.2-2.1-2.2c-1.2,0-2.1,0.9-2.2,2.2c0,0.8,0,1.6,0,2.4h-6.1v-1.1c0-2.5-0.6-3.5-2.2-3.5c-1.5,0-2.1,1-2.1,3.5v1.1H64
		c0-0.9,0-1.7,0-2.5c0-0.9-0.5-1.6-1.3-1.9c-1.4-0.6-2.9,0.4-3,1.9c0,0.8,0,1.7,0,2.5h-6.1c0-0.8,0-1.5,0-2.3c0-1.3-0.9-2.3-2.1-2.3
		c-1.2,0-2.2,1-2.2,2.3c0,0.8,0,1.5,0,2.3h-6.1c0-0.8,0-1.5,0-2.3c0-0.3,0-0.6-0.1-0.9c-0.4-1-1.4-1.6-2.4-1.4
		c-1,0.2-1.7,1.1-1.8,2.1c0,0.8,0,1.6,0,2.5h-6.1c0-0.8,0-1.5,0-2.3c0-1.3-0.9-2.3-2.2-2.3c-1.2,0-2.1,1-2.2,2.3c0,0.8,0,1.5,0,2.3
		c-1.1,0-2,0-3,0c-1.8,0.1-3.2,1.5-3.2,3.3c0,17.9,0,35.9,0,53.8c0,0.5,0.2,1,0.4,1.5c0.7,1.4,2,1.8,3.5,1.8c20.3,0,40.7,0,61,0
		c0.1,0,0.3,0,0.4,0c2.1-0.1,3.4-1.5,3.4-3.6C91,67.7,91,49.9,91,32 M81.6,26.3c0-0.7,0.4-1.2,1.1-1.2c0.6,0,1.1,0.5,1.1,1.2
		c0,1.8,0,3.7,0,5.5c0,0.7-0.5,1.2-1.1,1.2c-0.6,0-1.1-0.5-1.1-1.2c0-0.9,0-1.8,0-2.7S81.6,27.2,81.6,26.3 M72.3,25.1
		c0.6,0,1.1,0.5,1.1,1.2c0,0.9,0,1.8,0,2.7c0,0.9,0,1.8,0,2.7c0,0.7-0.5,1.2-1.1,1.2c-0.6,0-1.1-0.5-1.1-1.2c0-1.8,0-3.6,0-5.4
		C71.2,25.6,71.6,25.1,72.3,25.1 M60.8,26.4c0-0.7,0.4-1.2,1.1-1.2c0.6,0,1.1,0.5,1.1,1.2c0,0.9,0,1.8,0,2.7c0,0.9,0,1.8,0,2.7
		c0,0.7-0.4,1.2-1.1,1.2c-0.6,0-1.1-0.5-1.1-1.2C60.7,30,60.7,28.2,60.8,26.4 M50.3,26.3c0-0.7,0.5-1.2,1.1-1.1c0.6,0,1,0.5,1,1.2
		c0,0.9,0,1.9,0,2.8c0,0.9,0,1.8,0,2.7c0,0.7-0.4,1.2-1.1,1.2c-0.6,0-1.1-0.5-1.1-1.2C50.3,30,50.3,28.1,50.3,26.3 M39.9,26.3
		c0-0.7,0.5-1.2,1.1-1.2c0.7,0,1.1,0.5,1.1,1.2c0,0.9,0,1.8,0,2.7c0,0.9,0,1.8,0,2.7c0,0.8-0.4,1.2-1.1,1.2c-0.6,0-1.1-0.5-1.1-1.2
		C39.9,30,39.9,28.1,39.9,26.3 M29.5,26.3c0-0.7,0.4-1.2,1.1-1.2c0.6,0,1.1,0.5,1.1,1.2c0,1.8,0,3.7,0,5.5c0,0.7-0.5,1.2-1.1,1.2
		c-0.7,0-1.1-0.5-1.1-1.2c0-0.9,0-1.8,0-2.7C29.5,28.1,29.5,27.2,29.5,26.3 M23.3,32.1c0-1.3,1-2.3,2.3-2.3c0.9,0,1.8,0,2.8,0v1
		c0,2.2,0.7,3.2,2.1,3.3c1.5,0,2.2-1,2.2-3.3v-1h6.1c0,0.7,0,1.3,0,1.9c0,1.3,0.9,2.3,2.1,2.3c1.2,0,2.1-1,2.2-2.3
		c0-0.6,0-1.3,0-1.9h6.1c0,0.7,0,1.3,0,2c0,1.3,1,2.3,2.2,2.3c1.2,0,2.1-1,2.1-2.3c0-0.6,0-1.3,0-2h6.1c0,0.7,0,1.4,0,2
		c0,1.2,1,2.2,2.1,2.2c1.2,0,2.1-1,2.2-2.2c0-0.7,0-1.3,0-2.1h6.1c0,0.7,0,1.3,0,2c0,1.3,0.9,2.2,2.2,2.2c1.2,0,2.1-1,2.1-2.3
		c0-0.6,0-1.3,0-1.9c0,0,0.1-0.1,0.1-0.1h6c0,0.7,0,1.4,0,2c0,1.2,0.9,2.2,2.1,2.2c1.2,0,2.2-1,2.2-2.2c0-0.7,0-1.3,0-2
		c1.1,0,2.3-0.1,3.4,0c1,0.1,1.7,1.1,1.8,2.1c0,3,0,5.9,0,8.9c0,0.1,0,0.1,0,0.3H23.3c0-0.2,0-0.3,0-0.4
		C23.3,37.8,23.3,35,23.3,32.1 M85.4,83.5H27.9V42.2h57.5V83.5z M87.3,88.1c-10,0-20,0-29.9,0c-10.4,0-20.9,0-31.3,0
		c-1,0-1.8-0.2-2.3-1.1c-0.2-0.4-0.4-0.9-0.4-1.3c0-14.3,0-28.7,0-43c0-0.2,0-0.3,0-0.5h3.4v0.7v40.6c0,1,0,1,1,1h57.6c1,0,1,0,1-1
		V43v-0.8h3.5V43c0,14.2,0,28.3,0,42.5C90,86.8,89,88.1,87.3,88.1"/>
	<path class="st0" d="M70.3,64.7c-0.5-1.9-1.7-3.5-3.7-5c-1.7-1.3-3.5-2.4-5.2-3.5c-1.2-0.8-2.1-1.7-2.7-2.8
		c-0.2-0.4-0.4-0.7-0.6-1.1c1.2-0.2,2.1-0.8,2.8-1.8c0.3-0.4,0.4-0.8,0.6-1.2c0.1-0.2,0-0.5-0.2-0.6c-0.2-0.1-0.4-0.1-0.5-0.1
		l-0.1,0l-0.1,0.1c-0.9,0.6-2.1,0.5-3-0.1c-1-0.7-1.4-2-0.9-3.1c0-0.1,0.1-0.2,0.2-0.3l0.1-0.1c0.2-0.4-0.1-0.7-0.1-0.7
		c-0.1-0.1-0.3-0.1-0.3-0.1l-0.3,0c-2,0.6-3.3,2.6-3,4.7c0.2,1,0.7,1.9,1.4,2.5c0.4,0.3,0.8,0.5,1.2,0.7c-0.9,1.9-2.1,3.3-3.7,4.3
		C51,57,50,57.7,49,58.4l-0.3,0.2c-1.3,0.9-2.5,1.9-3.5,3c-2.8,3.1-2.9,8.4-0.3,11.3c0.6,0.7,1.3,1.4,2,2.1l0.2,0.2
		c0.3,0.3,0.8,0.4,1.1,0.4c2.8,0,5.7,0,8.5,0c2.9,0,5.9,0,8.8,0c0.4,0,0.9-0.2,1.1-0.4l0.3-0.3c0.6-0.6,1.2-1.2,1.8-1.8
		C70.7,70.6,71.2,67.9,70.3,64.7 M55.3,45.9c-0.1,0.4-0.1,0.9,0,1.3c0.2,0.8,0.6,1.5,1.3,2.1c0.9,0.8,1.9,1.1,3,0.9
		c-0.1,0.1-0.3,0.3-0.4,0.4c-0.5,0.4-1,0.6-1.6,0.6c-0.8,0.1-1.6-0.2-2.2-0.6c-0.6-0.5-1-1.2-1.1-1.9C54.1,47.5,54.6,46.5,55.3,45.9
		 M67.5,71.9c-0.5,0.6-1.1,1.1-1.7,1.7l-0.3,0.3c-5.8,0-11.6,0-17.3,0l-0.2-0.2c-0.7-0.6-1.3-1.3-1.9-2c-2.1-2.4-2-6.7,0.3-9.2
		c0.9-1,2-1.9,3.2-2.7l0.3-0.2c1-0.7,2-1.3,3-1.9c1.7-1,3-2.4,4-4.2c0.1,0.2,0.3,0.5,0.4,0.7c0.8,1.3,1.8,2.4,3.3,3.3
		c1.7,1.1,3.5,2.2,5.1,3.5c1.6,1.2,2.7,2.6,3.1,4.1C69.5,67.8,69.1,70,67.5,71.9"/>
	<path class="st0" d="M64.5,76.3H49.3c-0.9,0-1.7,0.8-1.7,1.7v0.9c0,0.9,0.8,1.7,1.7,1.7h15.2c0.9,0,1.7-0.8,1.7-1.7V78
		C66.2,77.1,65.4,76.3,64.5,76.3 M64.5,78.9L64.5,78.9H49.2l0.1-1L64.5,78V78.9z"/>
</g>
<circle class="st1" cx="56.6" cy="56.6" r="55.1"/>
</svg>
