<?xml version="1.0" encoding="utf-8"?>
<!-- Generator: Adobe Illustrator 22.0.0, SVG Export Plug-In . SVG Version: 6.00 Build 0)  -->
<svg version="1.1" id="Layer_1" xmlns="http://www.w3.org/2000/svg" xmlns:xlink="http://www.w3.org/1999/xlink" x="0px" y="0px"
	 viewBox="0 0 113.3 113.3" style="enable-background:new 0 0 113.3 113.3;" xml:space="preserve">
<style type="text/css">
	.st0{fill:none;stroke:#14361D;stroke-width:3;stroke-miterlimit:10;}
	.st1{fill:#BD995F;}
</style>
<circle class="st0" cx="56.6" cy="56.6" r="55.1"/>
<g>
	<path class="st1" d="M85.4,87.7c-2-4.3-2.1-8.6-0.1-12.9c0.3-0.8,0.5-1.5,0.4-2.3c-0.2-5.2-0.4-10.5-0.6-15.7
		c-0.3-7.6-0.6-15.2-0.9-22.8c-0.2-5.1-0.4-10.1-0.6-15.2c0-0.8-0.2-1-1-1c-3.8,0-7.5-0.1-11.3-0.1c-11.1-0.1-22.3-0.3-33.4-0.4
		c-1.5,0-3.1-0.1-4.6,0.2c-3.5,0.7-5.9,3.8-5.9,7.4c0,5.3,0,10.5,0,15.8c0,13.4,0,26.8,0,40.2c0,3.8,2.5,7.1,6.2,7.9
		c1.4,0.3,3,0.2,4.5,0.3c1,0,2,0,3,0v0.8c0,1.7,0,3.4,0,5.2c0,0.9,0.4,1.1,1.2,0.7c1.1-0.6,2.1-1.1,3.2-1.8c0.4-0.3,0.8-0.2,1.2,0
		c0.9,0.5,1.9,1,2.8,1.5c1.3,0.7,1.6,0.6,1.6-0.9v-5.5h1c10.8,0,21.6,0,32.3,0c0.2,0,0.5,0,0.7,0c0.5-0.1,0.6-0.3,0.5-0.8
		C85.7,88,85.5,87.9,85.4,87.7 M82.4,19.1c0.7,18,1.4,35.9,2.1,53.9H39c-0.2-18.1-0.3-36.2-0.5-54.4C53.2,18.7,67.8,18.9,82.4,19.1
		 M28.7,76c0-17,0-34,0-51c0-3,1.9-5.6,4.8-6.2c1.2-0.3,2.5-0.2,3.8-0.3c0.2,18.3,0.3,36.3,0.5,54.6c-3.6-0.3-6.8,0.4-9.1,3.7V76z
		 M49.9,94.3c-0.8-0.5-1.7-0.8-2.4-1.3c-1-0.7-1.8-0.7-2.8,0c-0.7,0.5-1.5,0.8-2.3,1.3V81.7h7.4V94.3z M35.9,80.4
		c-0.3,0-0.6,0-0.8,0.1c-0.2,0.1-0.4,0.4-0.4,0.6c0,0.2,0.2,0.4,0.4,0.5c0.1,0.1,0.4,0,0.6,0c1.8,0,3.6,0,5.4,0v2.5
		c-1.1,0-2.2,0-3.4,0c-0.2,0-0.4,0-0.7,0c-0.4,0-0.7,0.1-0.7,0.6c0,0.5,0.3,0.6,0.7,0.6c1.2,0,2.4,0,3.6,0c0.1,0,0.3,0,0.4,0v2.4
		c0,0-0.1,0.1-0.1,0.1c-2.2,0-4.4,0.2-6.6-0.1c-5-0.6-7.4-6.6-4.4-10.6c1.5-2,3.5-2.9,5.9-2.9c9.8,0,19.7,0,29.5,0h18h0.8
		c-0.3,0.9-0.6,1.7-0.9,2.5h-0.8c-13.6,0-27.2,0-40.7,0c-0.5,0-1.2-0.1-1.2,0.6c0,0.8,0.7,0.6,1.2,0.6c13.5,0,26.9,0,40.4,0H83
		c-0.1,0.9-0.2,1.7-0.3,2.5h-0.9C66.5,80.4,51.2,80.4,35.9,80.4 M83,84.1H51.2v-2.4h31.5C82.8,82.5,82.9,83.2,83,84.1 M51.2,87.8
		v-2.4h32.1c0.3,0.8,0.6,1.6,0.9,2.4H51.2z"/>
	<path class="st1" d="M45.4,69.5c5.3,0,10.7,0,16,0c5.4,0,10.8,0,16.2,0c0.8,0,1-0.2,1-0.8c0-2.1-0.1-4.1-0.1-6.2
		c0-0.7-0.3-0.9-1-0.9c-10.8,0-21.5,0-32.3,0c-0.8,0-0.9,0.1-0.9,0.9c0,1.9,0,3.9,0,5.8C44.3,69.4,44.4,69.5,45.4,69.5"/>
	<path class="st1" d="M74.2,42.3c-0.5-1.9-1.7-3.5-3.7-5c-1.7-1.3-3.5-2.4-5.2-3.5c-1.2-0.8-2.1-1.7-2.7-2.8
		c-0.2-0.4-0.4-0.7-0.6-1.1c1.2-0.2,2.1-0.8,2.8-1.8c0.3-0.4,0.4-0.8,0.6-1.2c0.1-0.2,0-0.5-0.2-0.6c-0.2-0.1-0.4-0.1-0.5-0.1
		l-0.1,0l-0.1,0.1c-0.9,0.6-2.1,0.5-3-0.1c-1-0.7-1.4-2-0.9-3.1c0-0.1,0.1-0.2,0.2-0.3l0.1-0.1c0.2-0.4-0.1-0.7-0.1-0.7
		c-0.1-0.1-0.3-0.1-0.3-0.1l-0.3,0c-2,0.6-3.3,2.6-3,4.7c0.2,1,0.7,1.9,1.4,2.5c0.4,0.3,0.8,0.5,1.2,0.7c-0.9,1.9-2.1,3.3-3.7,4.3
		c-1.1,0.6-2.1,1.3-3.1,2l-0.3,0.2C51.2,37,50,38,49,39.1c-2.8,3.1-2.9,8.4-0.3,11.3c0.6,0.7,1.3,1.4,2,2.1l0.2,0.2
		c0.3,0.3,0.8,0.4,1.1,0.4c2.8,0,5.7,0,8.5,0c2.9,0,5.9,0,8.8,0c0.4,0,0.9-0.2,1.1-0.4l0.3-0.3c0.6-0.6,1.2-1.2,1.8-1.8
		C74.5,48.2,75,45.5,74.2,42.3 M59.2,23.5c-0.1,0.4-0.1,0.9,0,1.3c0.2,0.8,0.6,1.5,1.3,2.1c0.9,0.8,1.9,1.1,3,0.9
		c-0.1,0.1-0.3,0.3-0.4,0.4c-0.5,0.4-1,0.6-1.6,0.6c-0.8,0.1-1.6-0.2-2.2-0.6c-0.6-0.5-1-1.2-1.1-1.9C58,25.1,58.4,24.1,59.2,23.5
		 M71.4,49.5c-0.5,0.6-1.1,1.1-1.7,1.7l-0.3,0.3c-5.8,0-11.6,0-17.3,0l-0.2-0.2c-0.7-0.6-1.3-1.3-1.9-2c-2.1-2.4-2-6.7,0.3-9.2
		c0.9-1,2-1.9,3.2-2.7l0.3-0.2c1-0.7,2-1.3,3-1.9c1.7-1,3-2.4,4-4.2c0.1,0.2,0.3,0.5,0.4,0.7c0.8,1.3,1.8,2.4,3.3,3.3
		c1.7,1.1,3.5,2.2,5.1,3.5c1.6,1.2,2.7,2.6,3.1,4.1C73.3,45.4,72.9,47.6,71.4,49.5"/>
	<path class="st1" d="M68.3,53.9H53.1c-0.9,0-1.7,0.8-1.7,1.7v0.9c0,0.9,0.8,1.7,1.7,1.7h15.2c0.9,0,1.7-0.8,1.7-1.7v-0.9
		C70,54.7,69.2,53.9,68.3,53.9 M68.4,56.5L68.4,56.5H53l0.1-1l15.2,0.1V56.5z"/>
</g>
</svg>
