<?xml version="1.0" encoding="utf-8"?>
<!-- Generator: Adobe Illustrator 22.0.0, SVG Export Plug-In . SVG Version: 6.00 Build 0)  -->
<svg version="1.1" id="Layer_1" xmlns="http://www.w3.org/2000/svg" xmlns:xlink="http://www.w3.org/1999/xlink" x="0px" y="0px"
	 viewBox="0 0 113.3 113.3" style="enable-background:new 0 0 113.3 113.3;" xml:space="preserve">
<style type="text/css">
	.st0{fill:none;stroke:#14361D;stroke-width:3;stroke-miterlimit:10;}
	.st1{fill:#BD995F;}
</style>
<circle class="st0" cx="56.6" cy="56.6" r="55.1"/>
<g>
	<path class="st1" d="M76.2,40c0-1.5,0-3,0-4.5c0-0.3-0.2-0.6-0.3-0.9c-1.1-1.4-2.2-2.8-3.2-4.2c-0.2-0.3-0.4-0.7-0.5-1.1
		c-0.9-4.6-3.3-8-7.5-10.1c-0.8-0.4-1.7-0.9-2.4-1.4c-1.4-0.9-2.5-2-3.4-3.4c1.9-2.2,2-4.2,0.3-5.8c-1.4-1.3-3.8-1.2-5.1,0.2
		c-1.6,1.7-1.4,3.8,0.5,5.6c-1.5,2.3-3.6,3.7-6,4.8c-3.6,1.7-6,4.5-7,8.4c-0.5,1.8-1.3,3.3-2.5,4.7c-0.6,0.7-1.1,1.4-1.7,2.1
		c-0.2,0.3-0.3,0.6-0.3,1c0,16.1,0,32.1,0,48.2c0,0.3,0.1,0.7,0.3,1c1,1.3,2.1,2.6,3.1,4c0.3,0.4,0.6,1,0.7,1.5
		c0.6,3.2,2,5.9,4.6,7.9c1.3,1.1,2.9,1.8,4.5,2.6c1.6,0.8,3.1,1.8,3.7,3.6c0.1,0.2,0.2,0.3,0.2,0.4c0.2,0.6,0.6,0.8,1.2,0.8
		c0.8-0.1,1.7-0.1,2.5,0c0.8,0.1,1.3-0.2,1.6-1c0.6-2,2.2-3.2,4-4c0.4-0.2,0.7-0.3,1-0.5c4.3-2,6.8-5.3,7.7-9.9
		c0.1-0.5,0.4-1.1,0.7-1.5c1-1.3,2.1-2.6,3.1-4c0.2-0.2,0.4-0.6,0.4-0.9c0-1.5,0-3.1,0-4.6C76.2,66.1,76.2,53,76.2,40 M54.5,11.4
		c0-1.2,1-2.1,2.2-2.1c1.2,0,2.2,1,2.2,2.2c0,1.2-1,2.1-2.2,2.1C55.4,13.6,54.5,12.6,54.5,11.4 M46.6,22.3c0.9-0.7,2-1.3,3.1-1.9
		c2.4-1.2,4.5-2.8,6-5c0.4-0.6,1.4-0.6,1.8,0c1.6,2.3,3.7,3.9,6.2,5c2.4,1.1,4.3,2.7,5.5,5c0.1,0.3,0.3,0.5,0.4,0.9h-26
		C44.3,24.7,45.3,23.3,46.6,22.3 M43,27.8h1h25.1c1.3,0,1.4,0.1,1.3,1.5H42.6C42.8,28.8,42.9,28.4,43,27.8 M42,31.2
		c0.1-0.1,0.4-0.2,0.7-0.2c9.3,0,18.6,0,27.9,0c0.3,0,0.6,0.2,0.8,0.4c0.8,1,1.6,2,2.4,3.1H39.5C40.3,33.3,41.2,32.2,42,31.2
		 M57.2,104c-1.9-0.1-1.9,0-2.3-1.3h3.6C58.2,103.3,58.1,104.1,57.2,104 M66.5,97c-0.9,0.7-1.9,1.2-2.9,1.7
		c-1.3,0.7-2.6,1.5-3.8,2.2c-0.2,0.1-0.5,0.2-0.8,0.2c-0.2,0-0.5,0-0.7,0c-2.6,0.2-5,0-7.1-1.7c-1.1-0.9-2.6-1.3-3.8-2.1
		c-1.6-1-3.2-3-3.6-4.5h25.9C68.8,94.5,67.8,95.9,66.5,97 M69.1,91.3H44.2c-1.4,0-1.4,0-1.5-1.5h27.8C70.5,91.2,70.4,91.3,69.1,91.3
		 M71.4,87.9c-0.2,0.2-0.5,0.4-0.8,0.4c-9.3,0-18.6,0-27.8,0c-0.3,0-0.6-0.1-0.8-0.3c-0.8-1-1.6-2.1-2.5-3.2h34.4
		C73,85.9,72.2,86.9,71.4,87.9 M72.3,41.4c-1.8,1.1-2.7,2.6-3.2,4.7c-0.2,0.7-0.7,1.3-1.2,1.8c-0.4,0.4-0.6,0.7-0.6,1.2
		c0,7,0,13.9,0,20.9c0,0.6,0.1,1,0.7,1.3c0.7,0.5,1.1,1.2,1.3,2c0.3,1.8,1.2,3.2,2.7,4.2c2.6,1.6,3,2.5,2.7,5.6H38.7
		c-0.4-2.5-0.1-3.9,2.1-5.3c1.9-1.1,2.9-2.8,3.4-4.9c0.1-0.6,0.6-1.2,1.1-1.6c0.4-0.4,0.7-0.7,0.7-1.3c0-7,0-14,0-21
		c0-0.5-0.1-0.9-0.6-1.2c-0.7-0.5-1.1-1.1-1.3-2c-0.3-1.9-1.2-3.4-2.9-4.4c-2.2-1.2-3-3-2.5-5.5h35.9C75.1,38.7,74.5,40.1,72.3,41.4
		 M74.6,41.7v35.9c-0.6-0.4-1.2-0.8-1.8-1.2c-1.2-0.7-1.9-1.8-2.1-3.2c-0.2-1.1-0.7-1.9-1.4-2.6c-0.3-0.3-0.5-0.7-0.5-1.1
		c0-6.6,0-13.1,0-19.7c0-0.4,0.2-0.8,0.5-1c0.7-0.8,1.2-1.6,1.4-2.6c0.2-1.4,0.9-2.6,2.2-3.3C73.5,42.4,74,42.1,74.6,41.7
		 M38.6,77.6v-36c0.8,0.5,1.6,1,2.3,1.6c1,0.7,1.5,1.8,1.7,2.9c0.1,1.1,0.7,1.9,1.4,2.6c0.2,0.3,0.5,0.7,0.5,1c0,6.6,0,13.1,0,19.7
		c0,0.3-0.2,0.7-0.4,1c-0.7,0.8-1.3,1.6-1.4,2.7c-0.2,1.5-1,2.6-2.3,3.3C39.7,76.8,39.2,77.2,38.6,77.6"/>
	<path class="st1" d="M87.2,68.7c-0.5-0.3-1-0.6-1.5-0.9c-2-1.1-4-2.2-5.9-3.4c-0.5-0.3-1-0.4-1.3,0.2c-0.3,0.5,0.1,0.9,0.5,1.1
		c0.1,0.1,0.2,0.1,0.4,0.2c2.2,1.3,4.4,2.5,6.7,3.8c0.2,0.1,0.5,0.3,0.7,0.4c0.5,0.2,1-0.2,1-0.8C87.6,69.2,87.5,68.9,87.2,68.7"/>
	<path class="st1" d="M33.6,64.4c-2.5,1.4-5.1,2.9-7.6,4.3c-0.4,0.2-0.7,0.6-0.4,1.1c0.3,0.5,0.7,0.5,1.1,0.2
		c2.5-1.4,5.1-2.9,7.6-4.3c0.3-0.1,0.4-0.5,0.5-0.6C34.8,64.4,34.2,64.1,33.6,64.4"/>
	<path class="st1" d="M26.4,44.8c2.3,1.3,4.6,2.6,6.9,3.9c0.2,0.1,0.5,0.2,0.8,0.4c0.2-0.2,0.5-0.3,0.6-0.5c0.1-0.2,0-0.6-0.1-0.8
		c-0.1-0.2-0.3-0.3-0.5-0.4c-2.4-1.3-4.7-2.7-7.1-4c-0.1-0.1-0.3-0.2-0.4-0.2c-0.3,0.1-0.8,0.1-1,0.3c-0.1,0.1,0.1,0.6,0.2,0.9
		C26,44.6,26.2,44.7,26.4,44.8"/>
	<path class="st1" d="M79.1,49.1c0.3-0.2,0.6-0.3,0.8-0.4c2.3-1.3,4.7-2.6,7-4c0.2-0.1,0.4-0.2,0.5-0.3c0.1-0.3,0.3-0.7,0.2-0.9
		c-0.1-0.2-0.6-0.3-0.9-0.3c-0.2,0-0.3,0.1-0.5,0.2c-2.3,1.3-4.7,2.6-7,4c-0.2,0.1-0.5,0.2-0.6,0.4c-0.1,0.2-0.2,0.5-0.1,0.7
		C78.6,48.8,78.9,48.9,79.1,49.1"/>
	<path class="st1" d="M31.1,57.4c0.5,0,1.1-0.1,1.1-0.7c0-0.7-0.5-0.8-1-0.8c-2.8,0-5.6,0-8.4,0c-0.5,0-1.1,0.1-1.1,0.7
		c0,0.7,0.6,0.8,1.1,0.8c1.4,0,2.7,0,4.1,0C28.3,57.4,29.7,57.4,31.1,57.4"/>
	<path class="st1" d="M90.5,55.9c-2.8,0-5.5,0-8.3,0c-0.5,0-1.1,0.1-1.1,0.7c0,0.6,0.5,0.8,1.1,0.8c1.4,0,2.8,0,4.2,0
		c1.4,0,2.7,0,4.1,0c0.6,0,1.1,0,1.1-0.8C91.6,55.9,91,55.9,90.5,55.9"/>
	<path class="st1" d="M65.3,49c0-0.5-0.2-0.8-0.6-1.2c-0.5-0.5-1.2-1.2-1.3-1.9c-0.5-2.1-1.5-3.7-3.4-4.7c-1.2-0.6-2.1-1.5-2.5-2.8
		c-0.1-0.3-0.5-0.6-0.7-0.6c-0.3,0-0.7,0.3-0.8,0.6c-0.5,1.4-1.4,2.2-2.7,2.9c-1.8,0.9-2.8,2.5-3.2,4.4c-0.2,0.9-0.6,1.6-1.4,2
		c-0.5,0.3-0.7,0.7-0.7,1.3c0,3.5,0,7,0,10.5c0,3.4,0,6.9,0,10.3c0,0.7,0.2,1.1,0.7,1.5c0.5,0.4,1.1,1,1.2,1.7
		c0.5,2.1,1.5,3.7,3.4,4.8c1.2,0.6,2.1,1.5,2.6,2.9c0.1,0.2,0.5,0.6,0.7,0.5c0.3,0,0.7-0.3,0.8-0.6c0.5-1.4,1.5-2.3,2.8-3
		c1.7-0.9,2.7-2.4,3.1-4.3c0.2-0.9,0.6-1.6,1.4-2c0.5-0.3,0.7-0.6,0.7-1.2C65.3,63.1,65.3,56.1,65.3,49 M63.8,69.4
		c0,0.3-0.2,0.7-0.4,1c-0.8,0.8-1.4,1.6-1.5,2.7c-0.2,1.3-0.9,2.3-2,3c-1.1,0.8-2.2,1.6-3.2,2.3c-0.9-0.7-1.7-1.4-2.7-2
		c-1.3-0.8-2.2-1.9-2.4-3.4c-0.2-1.1-0.8-1.9-1.5-2.7c-0.2-0.3-0.5-0.7-0.5-1c0-6.5,0-13.1,0-19.6c0-0.3,0.2-0.7,0.4-1
		c0.8-0.8,1.4-1.6,1.6-2.7c0.2-1.4,1-2.5,2.3-3.3c1-0.6,1.9-1.4,2.8-2.1c1.1,0.8,2.4,1.6,3.6,2.6c0.9,0.7,1.5,1.7,1.6,2.8
		c0.1,1.1,0.7,1.9,1.5,2.7c0.3,0.3,0.5,0.7,0.5,1C63.8,56.3,63.8,62.9,63.8,69.4"/>
</g>
</svg>
