<?xml version="1.0" encoding="utf-8"?>
<!-- Generator: Adobe Illustrator 22.0.0, SVG Export Plug-In . SVG Version: 6.00 Build 0)  -->
<svg version="1.1" id="Layer_1" xmlns="http://www.w3.org/2000/svg" xmlns:xlink="http://www.w3.org/1999/xlink" x="0px" y="0px"
	 viewBox="0 0 113.3 113.3" style="enable-background:new 0 0 113.3 113.3;" xml:space="preserve">
<style type="text/css">
	.st0{fill:none;stroke:#14361D;stroke-width:3;stroke-miterlimit:10;}
	.st1{fill:#BD995F;}
</style>
<circle class="st0" cx="56.6" cy="56.6" r="55.1"/>
<g>
	<path class="st1" d="M20.5,29.4c0.3-1,1-1,1.8-1c1.6,0,3.3-0.1,4.9-0.1c0.2,0,0.4,0,0.6,0.1c3.4,1.9,7.2,2.8,11,3.8
		c3.3,0.9,6.6,1.9,9.7,3.1c3.4,1.3,6.2,3.3,8.1,6.5c3.3-5.3,8.8-7,14.3-8.7c3.8-1.1,7.6-2.2,11.3-3.3c1-0.3,2-0.9,3-1.4
		c0.3-0.1,0.6-0.2,0.9-0.2c1.6,0,3.2,0.1,4.8,0.1c0.8,0,1.5,0.1,1.8,1c1-0.4,2-0.8,3-1.3c0.8-0.4,1.2-0.2,1.7,0.5
		c2.6,4.1,5.3,8.3,7.9,12.4c0.6,1,0.5,1.3-0.5,1.8C94.9,48,85,53.2,75,58.3c-0.3,0.2-0.6,0.3-1.1,0.6c1.6,0.9,3,1.9,4.5,2.6
		c2.6,1.1,4.3,3,4.9,5.8c0.1,0.5,0.5,1.2,0.3,1.6c-0.4,0.8-1.1,1.4-1.7,2c-0.2,0.2-0.7,0-1.1-0.1c-2.5-1.3-4.9-2.7-7.4-4
		c-0.2-0.1-0.5-0.2-0.8-0.3c0.2,0.2,0.4,0.5,0.7,0.7c1.1,0.8,2.2,1.6,3.3,2.3c3.9,2.2,7.9,4.4,11.8,6.6c0.5,0.3,0.9,0.7,1.1,1.2
		c0.8,1.5,1.5,3.1,2.2,4.7c0.3,0.6,0.2,1.1-0.2,1.6c-0.3,0.4-0.6,0.8-0.9,1.2c-0.5,0.7-1,0.8-1.7,0.4c-3.9-2.1-7.7-4.1-11.6-6.2
		c-6.7-3.5-13.3-7.1-20-10.6c-0.6-0.3-1-0.3-1.6,0C45.4,73.8,35,79.4,24.6,84.9c-1.3,0.7-1.3,0.7-2.3-0.5c-1.5-2-1.4-1.3-0.4-3.4
		c0.6-1.3,1.1-2.5,1.8-3.7c0.2-0.5,0.6-0.9,1.1-1.1c4.3-2.5,8.6-4.9,12.9-7.3c1.1-0.6,2-1.4,3-2.2c0-0.1-0.1-0.2-0.1-0.2
		c-0.2,0.1-0.4,0.1-0.5,0.2c-2.5,1.4-5,2.7-7.5,4.1c-0.7,0.4-1.2,0.3-1.8-0.3c-1.1-1.1-1.2-2-0.7-3.5c0.8-2.4,2.2-4.1,4.5-5.2
		c1.6-0.7,3.1-1.7,4.6-2.6c0,0,0.1-0.1,0.2-0.2c-0.4-0.2-0.7-0.4-1-0.5C28.4,53.2,18.4,48,8.5,42.8C7.3,42.2,7.3,42,8,40.9
		c2.6-4.1,5.2-8.2,7.8-12.2c0.6-0.9,0.7-0.9,1.8-0.5C18.5,28.5,19.5,28.9,20.5,29.4 M57.4,56c0.3-0.2,0.4-0.3,0.5-0.4
		c3.9-3.8,8.4-6.6,13.5-8.5c4.3-1.6,8.6-2.9,12.8-4.5c2.4-0.9,4.7-2,7.1-3c-2-3.2-3.8-6.3-5.7-9.4c-0.2,0-0.2,0-0.3,0.1
		c-3,1.4-6.1,2.3-9.3,3.2c-3.9,1-7.8,2-11.5,3.7c-2.7,1.2-5,2.9-6.5,5.5c-0.3,0.5-0.6,1.2-0.6,1.8C57.4,48.2,57.4,52,57.4,56
		 M22,39.5c0.4,0.2,0.7,0.3,1,0.5c5,2.4,10.2,4.2,15.5,5.9c6.5,2,12.3,5.1,17.1,9.9c0,0,0.1,0,0.3,0.1c0-3.4-0.1-6.8,0-10.2
		c0.1-1.7-0.5-3.1-1.5-4.3c-0.9-1-1.8-2-2.9-2.7c-1.7-1.1-3.6-2-5.5-2.7c-6-2.3-12.5-3-18.3-5.9C25.8,33.3,23.9,36.4,22,39.5
		 M93.7,30.7c0.1,0.2,0.2,0.4,0.3,0.5c1.9,2.8,3.7,5.6,5.6,8.4c0.8,1.2,0.8,1.4-0.5,2c-12.1,6.2-24.2,12.4-36.3,18.7
		c-0.6,0.3-0.9,0.6-1.2,1.3c-0.6,1.6-1.7,2.6-3.5,2.8c-0.9,0.1-1.8,0.1-2.7,0c-1.8-0.1-2.9-1.2-3.6-2.8c-0.3-0.6-0.6-1-1.2-1.3
		c-12.1-6.2-24.3-12.5-36.4-18.7c-1.2-0.6-1.2-0.8-0.5-1.9c1.8-2.7,3.6-5.5,5.4-8.2c0.2-0.2,0.3-0.5,0.5-0.8
		c-0.9-0.4-1.7-0.7-2.5-1.1c-2.6,4-5.1,8-7.7,12c0.3,0.2,0.5,0.3,0.7,0.4c15.3,8,30.6,15.9,45.9,23.9c0.5,0.3,0.9,0.2,1.4,0
		c15.3-8,30.5-15.9,45.8-23.9c0.2-0.1,0.5-0.3,0.7-0.4c-2.6-4-5.1-8-7.7-12C95.3,30,94.5,30.3,93.7,30.7 M81.5,66.8
		c-0.3-1.5-0.8-2.5-2.1-3.1c-1.5-0.7-2.8-1.6-4.2-2.4c-0.9-0.5-1.8-1.4-2.7-1.4c-1,0-1.9,0.8-2.9,1.3c-3.7,1.9-7.4,3.9-11.2,5.9
		c10.5,5.6,20.9,11.1,31.3,16.6c0.9-0.6,1-1.3,0.5-2.1c-0.6-1-1-2.2-1.5-3.2c-0.2-0.4-0.6-0.8-1-1.1c-4.2-2.4-8.3-4.7-12.5-7.1
		c-1-0.6-1.9-1.3-2.7-2c-0.5-0.5-1-1.1-1.3-1.8c-0.7-1.4-0.1-2.6,1.4-3c1.3-0.4,2.6-0.2,3.7,0.4C77.9,64.7,79.7,65.7,81.5,66.8
		 M31.8,66.8c1.9-1,3.6-2.1,5.5-3.1c1.3-0.7,2.7-0.9,4.1-0.3c1.1,0.5,1.5,1.4,1.1,2.4c-0.3,0.8-0.8,1.6-1.4,2.2
		c-0.8,0.8-1.7,1.5-2.7,2c-3.1,1.9-6.3,3.7-9.4,5.5c-1.2,0.7-2.8,1.1-3.7,2.1c-0.9,1-1.2,2.6-2,3.9c-0.5,0.9-0.3,1.5,0.5,2.1
		c10.4-5.5,20.8-11,31.2-16.6c-0.2-0.1-0.3-0.2-0.3-0.2c-4.4-2.3-8.8-4.6-13.2-6.8c-0.3-0.1-0.8-0.1-1,0.1c-2.1,1.1-4.1,2.4-6.2,3.5
		C32.8,64.2,32,65.2,31.8,66.8 M55.9,62.9c0-1.2,0-2.4,0-3.6c0-0.7-0.2-1.3-0.7-1.8c-4.7-4.9-10.4-8.1-16.8-10.1
		c-5.9-1.9-11.7-3.9-17.2-6.6c-1.1-0.5-1.2-0.8-0.5-1.8c1.6-2.7,3.3-5.5,4.9-8.2c0.1-0.2,0.3-0.5,0.5-0.8c-1.3,0-2.6,0-3.8,0
		c-0.2,0-0.4,0.2-0.6,0.4c-2.1,3.2-4.2,6.3-6.3,9.5c-0.1,0.2-0.2,0.4-0.3,0.6c0.2,0.1,0.4,0.2,0.6,0.3c4.6,2.3,9.1,4.7,13.7,7
		C36.7,51.5,44,55.3,51.3,59c0.9,0.5,1.5,1,1.9,2.1C53.5,62.2,54.5,62.9,55.9,62.9 M57.4,62.8c1.4,0,2.4-0.6,2.7-1.8
		c0.3-1.1,1-1.6,1.9-2.1c11.8-6.1,23.6-12.1,35.4-18.2c0.3-0.1,0.5-0.3,0.7-0.4c0-0.1,0-0.1,0-0.2c-2.2-3.3-4.4-6.7-6.6-10
		c-0.1-0.1-0.2-0.3-0.4-0.3c-1.3,0-2.5,0-3.9,0c1.9,3.1,3.7,6.1,5.4,9c0.6,1.1,0.6,1.3-0.5,1.8c-1.7,0.8-3.4,1.7-5.2,2.3
		c-4.8,1.8-9.6,3.4-14.4,5.1c-5.6,2-10.5,5.1-14.6,9.4c-0.2,0.3-0.6,0.6-0.6,0.9C57.4,59.9,57.4,61.4,57.4,62.8 M31.4,68.7l0,0.3
		c0.3,0,0.6,0.1,0.8,0c2-1.1,4-2.1,6-3.2c0.6-0.3,1.2-0.7,1.8-1c0-0.1-0.1-0.2-0.1-0.3C36.7,65.2,34.3,67.4,31.4,68.7 M73.4,64.5
		c0,0.1-0.1,0.2-0.1,0.2c2.6,1.4,5.3,2.9,7.9,4.3c0.1,0.1,0.4-0.1,0.6-0.2c-0.2-0.2-0.2-0.2-0.3-0.3c-2.2-1.2-4.3-2.5-6.5-3.7
		C74.6,64.7,74,64.7,73.4,64.5"/>
</g>
</svg>
