<?xml version="1.0" encoding="utf-8"?>
<!-- Generator: Adobe Illustrator 22.0.0, SVG Export Plug-In . SVG Version: 6.00 Build 0)  -->
<svg version="1.1" id="Layer_1" xmlns="http://www.w3.org/2000/svg" xmlns:xlink="http://www.w3.org/1999/xlink" x="0px" y="0px"
	 viewBox="0 0 113.3 113.3" style="enable-background:new 0 0 113.3 113.3;" xml:space="preserve">
<style type="text/css">
	.st0{fill:none;stroke:#14361D;stroke-width:3;stroke-miterlimit:10;}
	.st1{fill:#BD995F;}
</style>
<circle class="st0" cx="56.6" cy="56.6" r="55.1"/>
<g>
	<path class="st1" d="M52.4,37.8c0.6,0.2,1.1,0.2,1.6,0.4c1.6,0.7,2.4,2.5,1.9,4.3c-0.1,0.5-0.3,0.9-0.6,1.4
		c-2.2,4-4.4,8.1-6.5,12.1c-0.2,0.5-0.4,1.1-0.4,1.6c0.1,2.6,0,5.1-0.9,7.6c-1.3,3.7-3.6,6.5-6.7,8.8c-1,0.7-2,1.4-3,1.9
		c-0.8,0.4-1.2,0.9-1.4,1.8c-0.1,0.4-0.2,0.7-0.4,1.2c0.2,0.1,0.4,0.2,0.6,0.3c0.4,0.2,0.6,0.5,0.4,1c-1,2.5-2,5-3,7.5
		c-0.2,0.5-0.5,0.7-1,0.5c-0.5-0.2-0.4-0.7-0.2-1.1c4.4-11,6.8-17,2.8-6.9c-6.2-2.3-12.4-4.6-18.7-6.9c-0.3,0.8-0.7,1.6-1,2.3
		c-0.6,1.5-1.3,3.1-1.9,4.6c-0.2,0.5-0.4,0.8-1,0.6c-0.5-0.2-0.5-0.7-0.3-1.1c1-2.4,2-4.8,3-7.3c0.2-0.6,0.6-0.9,1.3-0.6
		c0.4,0.2,0.6,0.1,0.9-0.3c1-1.5,1.1-2.9,0.6-4.6c-1.8-5.3-1.7-10.7-0.3-16.1c0.8-3.1,1.1-6.3,1.4-9.4c0.2-1.7,0.2-3.5,0.4-5.2
		c0.3-3,3.9-4.6,6.3-2.7c0.7,0.5,1.2,1.4,1.8,2.2c0.9-1.3,1.8-2.6,2.8-3.9c1.9-2.7,3.8-5.4,5.7-8c0.9-1.3,2.1-2,3.7-1.8
		c1.6,0.2,2.7,1.1,3.3,2.6c0,0.1,0.1,0.1,0.1,0.3c1-0.9,2.1-1.3,3.3-1c0.8,0.2,1.6,0.5,2.2,1c1.5,1.2,1.5,2.9,0.4,5.4
		c2,0,3.5,0.8,4.2,2.7C54.5,34.9,53.3,36.3,52.4,37.8 M34.8,78.4c0.2-0.4,0.3-0.8,0.4-1.1c0.2-1.2,1-1.9,2-2.5
		c1.2-0.7,2.4-1.4,3.4-2.3c2.9-2.3,5-5.1,5.9-8.7c0.6-2.2,0.6-4.4,0.5-6.6c0-0.4,0.1-0.9,0.3-1.3c2.2-4.2,4.5-8.4,6.7-12.6
		c0.2-0.3,0.4-0.7,0.5-1.1c0.3-1.1-0.1-2.1-1.1-2.6c-0.9-0.4-1.8-0.2-2.5,0.8c-0.1,0.1-0.2,0.3-0.3,0.4c-2,3.2-4,6.4-6.1,9.6
		c-0.1,0.2-0.2,0.5-0.4,0.5c-0.2,0.1-0.7,0.3-0.8,0.1c-0.2-0.2-0.3-0.6-0.3-0.9c0-0.2,0.2-0.4,0.3-0.6l5.5-8.7
		c1.1-1.8,2.3-3.5,3.3-5.3c0.8-1.3,0.4-2.8-0.9-3.5c-1.2-0.7-2.6-0.3-3.4,0.9c-0.2,0.3-0.4,0.6-0.6,0.9c-2.5,3.9-4.9,7.9-7.4,11.8
		c-0.1,0.2-0.2,0.4-0.3,0.5c-0.3,0.1-0.7,0.3-0.9,0.2c-0.2-0.1-0.2-0.6-0.2-0.9c0-0.2,0.2-0.3,0.3-0.5c2.5-4,4.9-7.9,7.4-11.9
		c0.8-1.3,1.7-2.7,2.5-4c0.6-1.1,0.5-2.2-0.3-3c-0.8-0.9-1.9-1.1-3-0.6c-0.5,0.3-0.9,0.7-1.2,1.1c-3.5,5.3-7.1,10.7-10.6,16
		c-0.3,0.4-0.6,0.8-1.1,0.5c-0.5-0.3-0.4-0.8-0.1-1.2c0.7-1,1.3-2,2-3c2.5-3.8,5-7.6,7.5-11.5c0.8-1.3,0.5-2.8-0.7-3.6
		c-1.2-0.7-2.7-0.4-3.5,0.8c-3.1,4.4-6.3,8.9-9.4,13.3C28.2,38,28,38.3,28,38.6c0,3,0.1,6.1,0.2,9.1c0,0.3,0.2,0.7,0.5,0.9
		c2.1,1.6,3.4,3.7,3.9,6.3c0.3,1.3,0.2,2.7,0.3,4.1c0,0.5-0.3,0.8-0.8,0.7c-0.3-0.1-0.5-0.5-0.6-0.8c-0.1-0.2,0-0.5,0-0.7
		c0.1-3.6-1-6.6-4.1-8.7c-0.5-0.3-0.6-0.7-0.6-1.2c-0.1-3.8-0.1-7.7-0.2-11.5c0-1.5-1.1-2.6-2.6-2.7c-1.3-0.1-2.5,1-2.7,2.3
		c-0.1,0.4-0.1,0.9-0.1,1.3c-0.4,3.9-0.8,7.9-1.4,11.8c-0.3,2.4-1,4.7-1.3,7.1c-0.4,3.5,0.2,7,1.3,10.4c0.6,1.7,0.4,3.4-0.5,4.9
		c-0.1,0.2-0.3,0.5-0.4,0.8C24.2,74.5,29.5,76.5,34.8,78.4"/>
	<path class="st1" d="M96.4,73.3c-6.3,2.3-12.5,4.6-18.7,6.9C82,91.1,84,96,79.9,85.8c0.2,0.4,0.3,0.9,0.5,1.3
		c0.2,0.4,0.2,0.8-0.3,1c-0.5,0.2-0.8-0.1-1-0.5c-0.9-2.3-1.8-4.5-2.7-6.8c0,0,0,0,0-0.1c-0.5-1.3-0.5-1.3,0.7-1.9
		c-0.3-1.3-0.6-2.4-2-3.1c-2.7-1.4-5.1-3.4-7-5.9c-2.8-3.7-3.6-7.9-3.3-12.5c0-0.4-0.1-0.9-0.3-1.3c-2.2-4.1-4.4-8.2-6.6-12.3
		c-0.3-0.6-0.6-1.3-0.7-1.9c-0.3-1.9,1-3.5,2.9-3.9c0.2,0,0.4-0.1,0.7-0.1c-0.4-0.6-0.7-1.1-1-1.7c-1.3-2.3-0.3-4.9,2.1-5.7
		c0.5-0.2,1.1-0.2,1.6-0.3c-1.2-2.8-1-4.3,0.6-5.6c1.5-1.3,3.3-1.2,5.3,0.1c0.3-0.4,0.5-0.9,0.8-1.3c1.6-2.1,4.8-2,6.3,0.2
		c2.8,3.9,5.5,7.8,8.3,11.7c0.1,0.2,0.3,0.4,0.5,0.6c0.3-0.5,0.5-1.1,0.9-1.5c1-1.4,2.7-1.9,4.3-1.4c1.5,0.5,2.6,2,2.8,3.6
		c0.4,3.9,0.7,7.8,1.2,11.6c0.3,2.2,0.9,4.4,1.3,6.7c0.7,4.2,0.2,8.4-1.1,12.4c-0.5,1.7-0.2,3.1,0.8,4.5c0.1,0.1,0.5,0.2,0.7,0.1
		c0.8-0.2,1-0.2,1.4,0.7c1,2.3,1.9,4.7,2.9,7c0.1,0.1,0.2,0.3,0.1,0.4c-0.1,0.3-0.2,0.6-0.4,0.9c-0.3-0.2-0.7-0.2-0.9-0.5
		c-0.3-0.5-0.5-1-0.7-1.6C97.9,77,97.2,75.2,96.4,73.3 M94.4,72.6c-0.1-0.1-0.1-0.2-0.2-0.3c-1.2-1.8-1.3-3.8-0.6-5.9
		c1.4-4.3,1.7-8.7,0.6-13.1c-1.2-5-1.8-10-2.1-15.1c0-0.5-0.1-0.9-0.1-1.4c-0.1-1.4-1.3-2.6-2.6-2.6c-1.4,0-2.6,1.1-2.7,2.6
		c-0.1,3.8-0.2,7.6-0.2,11.4c0,0.6-0.2,1.1-0.7,1.4c-1.4,0.9-2.4,2.2-3.1,3.7c-0.8,1.8-1,3.6-0.9,5.6c0,0.5-0.1,0.9-0.6,0.9
		c-0.5,0-0.7-0.4-0.7-0.8c-0.2-4.1,0.8-7.6,4.2-10.2c0.2-0.2,0.5-0.6,0.5-0.9c0.1-3,0.1-6,0.2-9c0-0.3-0.1-0.7-0.3-1
		c-1.1-1.5-2.2-3.1-3.2-4.6c-2.1-2.9-4.1-5.8-6.2-8.8c-0.7-1-1.8-1.3-2.9-1c-1,0.3-1.8,1.2-1.7,2.2c0.1,0.8,0.4,1.6,0.8,2.3
		c3,4.6,6,9.2,9,13.7c0.3,0.4,0.5,0.9,0,1.2c-0.5,0.3-0.8,0-1.1-0.5c-1.2-1.8-2.4-3.7-3.6-5.5c-2.3-3.5-4.6-7-7-10.6
		c-1.1-1.7-3.3-1.8-4.4-0.1c-0.7,1-0.5,2,0.1,3c3.2,5.2,6.5,10.3,9.7,15.5c0.1,0.2,0.3,0.4,0.3,0.6c0,0.3,0,0.7-0.2,0.8
		c-0.2,0.1-0.6,0-0.9-0.1c-0.2-0.1-0.3-0.3-0.4-0.5c-1.8-3-3.7-5.9-5.5-8.9c-0.8-1.3-1.6-2.7-2.5-3.9c-0.9-1.4-2.8-1.5-4-0.3
		c-0.9,0.9-0.9,2.1-0.1,3.3c2.9,4.6,5.7,9.2,8.6,13.7c0.1,0.2,0.3,0.4,0.4,0.6c0,0.3,0,0.7-0.2,0.8c-0.2,0.1-0.6,0-0.8-0.1
		c-0.2-0.1-0.3-0.4-0.4-0.6c-1.8-2.9-3.6-5.7-5.4-8.6c-0.3-0.5-0.7-1.1-1.1-1.6c-0.7-0.8-1.5-1-2.4-0.6c-0.9,0.5-1.4,1.4-1.2,2.4
		c0.1,0.4,0.3,0.9,0.5,1.3c2.2,4.2,4.4,8.3,6.7,12.5c0.3,0.6,0.4,1.2,0.4,1.8c-0.4,5.1,0.9,9.6,4.5,13.3c1.6,1.7,3.6,3,5.6,4.2
		c0.8,0.5,1.4,1,1.6,2c0.1,0.5,0.3,1,0.5,1.5C83.9,76.4,89.1,74.5,94.4,72.6"/>
</g>
</svg>
