<svg width="32" height="32" viewBox="0 0 32 32" fill="none" xmlns="http://www.w3.org/2000/svg">
<path d="M29.646 5.33325C29.646 7.72656 27.7061 9.66675 25.3127 9.66675C22.9194 9.66675 20.9795 7.72656 20.9795 5.33325C20.9795 2.94019 22.9194 1 25.3127 1C27.7061 1 29.646 2.94019 29.646 5.33325Z" fill="#454545"/>
<path d="M25.3127 10.6667C22.3713 10.6667 19.9795 8.27466 19.9795 5.33325C19.9795 2.39209 22.3713 0 25.3127 0C28.2542 0 30.646 2.39209 30.646 5.33325C30.646 8.27466 28.2542 10.6667 25.3127 10.6667ZM25.3127 2C23.4741 2 21.9795 3.49609 21.9795 5.33325C21.9795 7.17065 23.4741 8.66675 25.3127 8.66675C27.1514 8.66675 28.646 7.17065 28.646 5.33325C28.646 3.49609 27.1514 2 25.3127 2Z" fill="#454545"/>
<path d="M29.646 26.6667C29.646 29.0598 27.7061 31 25.3127 31C22.9194 31 20.9795 29.0598 20.9795 26.6667C20.9795 24.2734 22.9194 22.3333 25.3127 22.3333C27.7061 22.3333 29.646 24.2734 29.646 26.6667Z" fill="#454545"/>
<path d="M25.3127 32C22.3713 32 19.9795 29.6079 19.9795 26.6667C19.9795 23.7253 22.3713 21.3333 25.3127 21.3333C28.2542 21.3333 30.646 23.7253 30.646 26.6667C30.646 29.6079 28.2542 32 25.3127 32ZM25.3127 23.3333C23.4741 23.3333 21.9795 24.8293 21.9795 26.6667C21.9795 28.5039 23.4741 30 25.3127 30C27.1514 30 28.646 28.5039 28.646 26.6667C28.646 24.8293 27.1514 23.3333 25.3127 23.3333Z" fill="#454545"/>
<path d="M10.9792 16C10.9792 18.3933 9.03906 20.3333 6.64575 20.3333C4.25269 20.3333 2.3125 18.3933 2.3125 16C2.3125 13.6067 4.25269 11.6667 6.64575 11.6667C9.03906 11.6667 10.9792 13.6067 10.9792 16Z" fill="#454545"/>
<path d="M6.64575 21.3333C3.70459 21.3333 1.3125 18.9414 1.3125 16C1.3125 13.0586 3.70459 10.6667 6.64575 10.6667C9.58716 10.6667 11.9792 13.0586 11.9792 16C11.9792 18.9414 9.58716 21.3333 6.64575 21.3333ZM6.64575 12.6667C4.80713 12.6667 3.3125 14.1626 3.3125 16C3.3125 17.8374 4.80713 19.3333 6.64575 19.3333C8.48462 19.3333 9.97925 17.8374 9.97925 16C9.97925 14.1626 8.48462 12.6667 6.64575 12.6667Z" fill="#454545"/>
<path d="M9.79365 15.3601C9.32954 15.3601 8.87885 15.1187 8.63349 14.6868C8.26948 14.0481 8.4936 13.2334 9.13227 12.8679L21.5041 5.81471C22.1428 5.44801 22.9575 5.67213 23.3229 6.31325C23.687 6.95192 23.4628 7.76662 22.8242 8.13209L10.4521 15.1853C10.2441 15.304 10.0175 15.3601 9.79365 15.3601Z" fill="#454545"/>
<path d="M22.1643 26.3601C21.9402 26.3601 21.7136 26.304 21.5056 26.1853L9.13355 19.1321C8.49488 18.7681 8.271 17.9534 8.63502 17.3132C8.99757 16.6733 9.81348 16.448 10.4536 16.8147L22.8257 23.8679C23.4643 24.2319 23.6882 25.0466 23.3242 25.6868C23.0776 26.1187 22.6269 26.3601 22.1643 26.3601Z" fill="#454545"/>
</svg>
