<?xml version="1.0" encoding="utf-8"?>
<!-- Generator: Adobe Illustrator 22.0.0, SVG Export Plug-In . SVG Version: 6.00 Build 0)  -->
<svg version="1.1" id="Layer_1" xmlns="http://www.w3.org/2000/svg" xmlns:xlink="http://www.w3.org/1999/xlink" x="0px" y="0px"
	 viewBox="0 0 35.2 32.2" style="enable-background:new 0 0 35.2 32.2;" xml:space="preserve">
<style type="text/css">
	.st0{clip-path:url(#SVGID_2_);fill:url(#SVGID_3_);}
	.st1{clip-path:url(#SVGID_5_);fill:url(#SVGID_6_);}
	.st2{clip-path:url(#SVGID_8_);fill:url(#SVGID_9_);}
</style>
<g>
	<defs>
		<path id="SVGID_1_" d="M3.1,23C2.4,23,2,22.6,2,21.9v0V10.2c0-0.8,0.4-1.2,1.2-1.2c0.9,0,1.9,0,2.8,0v14H5.5c-0.5,0-1,0-1.5,0
			C3.7,23,3.4,23,3.1,23 M17.6,29.9c-3.1-2.1-6.2-4.1-9.3-6.2C8.1,23.5,8,23.4,8,23.2c0-4.8,0-9.5,0-14.3c0-0.2,0-0.3,0.2-0.5
			c3.2-2.1,6.3-4.2,9.5-6.3c0.1,0,0.2-0.1,0.3-0.2v28.1C17.8,30,17.7,29.9,17.6,29.9 M16.7,0.4C13.5,2.5,10.2,4.7,7,6.8
			C6.8,7,6.6,7,6.4,7c-0.6,0-1.3,0-1.9,0C4,7,3.6,7,3.1,7C1.3,7.1,0,8.4,0,10.2c0,3.9,0,7.8,0,11.7C0,23.7,1.3,25,3.1,25
			c0.4,0,0.8,0,1.2,0c0.7,0,1.4,0,2,0c0.2,0,0.5,0.1,0.7,0.2c3.2,2.1,6.5,4.3,9.7,6.4c0.7,0.5,1.5,0.6,2.2,0.1
			c0.7-0.4,1.1-1.1,1.1-1.9c0-4.6,0-9.2,0-13.8c0-4.7,0-9.3,0-14c0-0.1,0-0.3,0-0.4C19.8,0.6,18.9,0,18,0C17.5,0,17.1,0.1,16.7,0.4"
			/>
	</defs>
	<clipPath id="SVGID_2_">
		<use xlink:href="#SVGID_1_"  style="overflow:visible;"/>
	</clipPath>
	
		<linearGradient id="SVGID_3_" gradientUnits="userSpaceOnUse" x1="-517.0586" y1="307.0613" x2="-516.0192" y2="307.0613" gradientTransform="matrix(0 -32.4833 -32.4833 0 9984.3809 -16760.0313)">
		<stop  offset="0" style="stop-color:#755400"/>
		<stop  offset="4.715310e-02" style="stop-color:#755400"/>
		<stop  offset="0.2288" style="stop-color:#855E33"/>
		<stop  offset="0.3249" style="stop-color:#8F6B3B"/>
		<stop  offset="0.3862" style="stop-color:#977641"/>
		<stop  offset="0.4833" style="stop-color:#A4824B"/>
		<stop  offset="0.6177" style="stop-color:#BD995F"/>
		<stop  offset="0.6822" style="stop-color:#CAA46B"/>
		<stop  offset="0.7982" style="stop-color:#EBC189"/>
		<stop  offset="1" style="stop-color:#EBC189"/>
	</linearGradient>
	<rect y="0" class="st0" width="20" height="32.2"/>
</g>
<g>
	<defs>
		<path id="SVGID_4_" d="M23.1,9.7C23.1,9.7,23.1,9.7,23.1,9.7c-0.5,0.5-0.5,1.2-0.1,1.7c1.9,2.6,2.1,6.2-0.1,9.3
			c-0.4,0.5-0.3,1.2,0.2,1.6l0,0c0.5,0.5,1.4,0.5,1.9-0.1c2.8-3.6,2.7-8.9,0-12.4c-0.3-0.3-0.6-0.5-1-0.5
			C23.7,9.3,23.4,9.4,23.1,9.7"/>
	</defs>
	<clipPath id="SVGID_5_">
		<use xlink:href="#SVGID_4_"  style="overflow:visible;"/>
	</clipPath>
	
		<linearGradient id="SVGID_6_" gradientUnits="userSpaceOnUse" x1="-517.0356" y1="307.0636" x2="-516.0356" y2="307.0636" gradientTransform="matrix(0 -32.4833 -32.4833 0 9999.627 -16760.0313)">
		<stop  offset="0" style="stop-color:#755400"/>
		<stop  offset="4.715310e-02" style="stop-color:#755400"/>
		<stop  offset="0.2288" style="stop-color:#855E33"/>
		<stop  offset="0.3249" style="stop-color:#8F6B3B"/>
		<stop  offset="0.3862" style="stop-color:#977641"/>
		<stop  offset="0.4833" style="stop-color:#A4824B"/>
		<stop  offset="0.6177" style="stop-color:#BD995F"/>
		<stop  offset="0.6822" style="stop-color:#CAA46B"/>
		<stop  offset="0.7982" style="stop-color:#EBC189"/>
		<stop  offset="1" style="stop-color:#EBC189"/>
	</linearGradient>
	<rect x="22.6" y="9.3" class="st1" width="5.2" height="13.6"/>
</g>
<g>
	<defs>
		<path id="SVGID_7_" d="M28.3,6.6C28.2,6.6,28.2,6.6,28.3,6.6c-0.7,0.7-0.8,1.7-0.2,2.5c2.9,3.9,3.2,9.2-0.1,13.9
			c-0.5,0.8-0.4,1.8,0.2,2.5l0,0c0.8,0.8,2.2,0.7,2.9-0.2c4.2-5.4,4-13.4,0-18.5C30.7,6.3,30.2,6,29.6,6C29.1,6,28.6,6.2,28.3,6.6"
			/>
	</defs>
	<clipPath id="SVGID_8_">
		<use xlink:href="#SVGID_7_"  style="overflow:visible;"/>
	</clipPath>
	
		<linearGradient id="SVGID_9_" gradientUnits="userSpaceOnUse" x1="-517.325" y1="306.8742" x2="-515.83" y2="306.8742" gradientTransform="matrix(0 -32.4833 -32.4833 0 9999.627 -16760.0313)">
		<stop  offset="0" style="stop-color:#755400"/>
		<stop  offset="4.715310e-02" style="stop-color:#755400"/>
		<stop  offset="0.2288" style="stop-color:#855E33"/>
		<stop  offset="0.3249" style="stop-color:#8F6B3B"/>
		<stop  offset="0.3862" style="stop-color:#977641"/>
		<stop  offset="0.4833" style="stop-color:#A4824B"/>
		<stop  offset="0.6177" style="stop-color:#BD995F"/>
		<stop  offset="0.6822" style="stop-color:#CAA46B"/>
		<stop  offset="0.7982" style="stop-color:#EBC189"/>
		<stop  offset="1" style="stop-color:#EBC189"/>
	</linearGradient>
	<rect x="27.4" y="6" class="st2" width="7.8" height="20.3"/>
</g>
</svg>
