<?xml version="1.0" encoding="utf-8"?>
<!-- Generator: Adobe Illustrator 22.0.0, SVG Export Plug-In . SVG Version: 6.00 Build 0)  -->
<svg version="1.1" id="Capa_1" xmlns="http://www.w3.org/2000/svg" xmlns:xlink="http://www.w3.org/1999/xlink" x="0px" y="0px"
	 viewBox="0 0 31.6 25" style="enable-background:new 0 0 31.6 25;" xml:space="preserve">
<style type="text/css">
	.st0{clip-path:url(#SVGID_2_);fill:url(#SVGID_3_);}
	.st1{clip-path:url(#SVGID_5_);fill:url(#SVGID_6_);}
	.st2{clip-path:url(#SVGID_8_);fill:url(#SVGID_9_);}
</style>
<g>
	<g>
		<defs>
			<path id="SVGID_1_" d="M14.4,5.1c-0.5,0.1-1,0.3-1.3,0.8c-0.4,0.6-0.9,1.2-1.3,1.7l-0.3,0.4c-0.3,0.4-0.7,0.6-1.1,0.5
				c-0.2,0-0.4-0.1-0.6-0.1c-0.2,0-0.4-0.1-0.6-0.1C9,8.4,8.8,8.3,8.7,8.3C8.3,8.2,7.9,8.2,7.4,8.2c-0.7,0-1.3,0.2-1.7,0.6
				c-0.4,0.4-0.5,1-0.5,1.7c0.1,0.6,0.2,1.2,0.3,1.8c0.1,0.3,0.1,0.6,0.2,1c0.1,0.5-0.1,0.8-0.4,1.1c-0.5,0.3-1,0.7-1.4,1
				c-0.5,0.4-1.1,0.8-1.5,1.5c-0.3,0.5,0,0.8,0.2,1c0.1,0.1,0.2,0.1,0.3,0.1c0.2,0,0.4-0.1,0.6-0.3c0.3-0.3,0.5-0.6,0.9-0.9
				c0.3-0.2,0.6-0.5,1-0.7c0.2-0.2,0.5-0.3,0.7-0.5c0.7-0.5,1.1-1.3,1-2.2c0-0.2-0.1-0.5-0.1-0.7C7,12.3,7,12.2,7,12.1
				c0-0.2,0-0.3-0.1-0.5C6.8,11,6.8,10.5,6.7,10c0-0.2,0-0.3,0.4-0.3c0.1,0,0.3,0,0.4,0C8.2,9.7,8.9,9.8,9.7,10
				c1.4,0.2,2.4-0.2,3-1.2c0.2-0.4,0.4-0.7,0.6-0.9l0.1-0.1c0.3-0.3,0.5-0.7,0.8-1c0.1-0.1,0.2-0.2,0.3-0.2h0c0.1,0,0.2,0.1,0.3,0.2
				c0.3,0.3,0.6,0.7,0.9,1l0.1,0.2c0.1,0.2,0.3,0.4,0.4,0.6c0.2,0.2,0.3,0.5,0.5,0.7c0.5,0.6,1.1,0.9,1.8,0.9h0c0.3,0,0.6,0,1-0.1
				c0.3,0,0.5-0.1,0.7-0.1c0.4-0.1,0.8-0.2,1.2-0.2c0.5,0,0.8,0,0.9,0.1c0.1,0.1,0.1,0.4,0.1,0.9c0,0.3-0.1,0.6-0.2,1
				c-0.1,0.5-0.2,0.9-0.2,1.4C22,14,22.3,14.8,23,15.3c0.2,0.1,0.3,0.3,0.5,0.4c0.2,0.1,0.4,0.3,0.5,0.4c0.2,0.2,0.5,0.4,0.7,0.6
				c0.3,0.3,0.6,0.5,1,0.8c0.2,0.1,0.6,0.2,0.8,0.1c0.2-0.1,0.3-0.3,0.4-0.5c0-0.2,0-0.4-0.1-0.6l0,0c-0.2-0.3-0.5-0.6-0.8-0.9
				c-0.5-0.4-1.1-0.8-1.6-1.2l-0.3-0.2c-0.5-0.3-0.6-0.7-0.5-1.3c0.1-0.6,0.2-1.3,0.3-1.8l0.1-0.5l0,0c0-0.9-0.1-1.5-0.6-2
				c-0.4-0.4-0.9-0.5-1.6-0.5c-0.2,0-0.3,0-0.5,0c-0.1,0-0.3,0-0.5,0.1c-0.4,0.1-0.8,0.1-1.2,0.2c-1,0.3-1.6,0-2.1-0.8
				c-0.4-0.7-0.9-1.3-1.4-1.8c-0.4-0.5-0.9-0.8-1.5-0.8C14.6,5.1,14.5,5.1,14.4,5.1"/>
		</defs>
		<clipPath id="SVGID_2_">
			<use xlink:href="#SVGID_1_"  style="overflow:visible;"/>
		</clipPath>
		
			<linearGradient id="SVGID_3_" gradientUnits="userSpaceOnUse" x1="-502.3544" y1="328.9111" x2="-501.3544" y2="328.9111" gradientTransform="matrix(0.3314 21.2105 21.2105 -0.3314 -6795.4893 10764.1699)">
			<stop  offset="0" style="stop-color:#EBC189"/>
			<stop  offset="0.2018" style="stop-color:#EBC189"/>
			<stop  offset="0.3178" style="stop-color:#CAA46B"/>
			<stop  offset="0.3823" style="stop-color:#BD995F"/>
			<stop  offset="0.5167" style="stop-color:#A4824B"/>
			<stop  offset="0.6138" style="stop-color:#977641"/>
			<stop  offset="0.6751" style="stop-color:#8F6B3B"/>
			<stop  offset="0.7712" style="stop-color:#855E33"/>
			<stop  offset="0.9528" style="stop-color:#755400"/>
			<stop  offset="1" style="stop-color:#755400"/>
		</linearGradient>
		<polygon class="st0" points="27,4.7 27.2,17.8 2.1,18.2 1.9,5.1 		"/>
	</g>
	<g>
		<defs>
			<path id="SVGID_4_" d="M14.3,10.6c-0.1,0-0.2,0-0.3,0c-0.3,0-0.7,0.1-1.2,0.2c-2.5,0.6-4.7,2.9-5.1,5.4c0,0.3,0,0.5,0.1,0.7
				c0.1,0.1,0.3,0.2,0.5,0.3c0.4,0,0.8-0.2,0.8-0.6c0,0,0-0.1,0-0.1c0,0,0-0.1,0-0.1c0.3-1.4,1.2-2.6,2.4-3.4c1.2-0.8,2.7-1,4-0.7
				c2.2,0.5,3.7,2,4.2,4.3c0.1,0.2,0.2,0.5,0.5,0.6c0.1,0,0.2,0.1,0.3,0.1c0.1,0,0.3,0,0.4-0.1c0.2-0.2,0.3-0.5,0.2-1
				C20.7,12.9,17.9,10.7,14.3,10.6L14.3,10.6L14.3,10.6z"/>
		</defs>
		<clipPath id="SVGID_5_">
			<use xlink:href="#SVGID_4_"  style="overflow:visible;"/>
		</clipPath>
		
			<linearGradient id="SVGID_6_" gradientUnits="userSpaceOnUse" x1="-502.3544" y1="328.9121" x2="-501.3544" y2="328.9121" gradientTransform="matrix(0.3314 21.2105 21.2105 -0.3314 -6795.5352 10764.1709)">
			<stop  offset="0" style="stop-color:#EBC189"/>
			<stop  offset="0.2018" style="stop-color:#EBC189"/>
			<stop  offset="0.3178" style="stop-color:#CAA46B"/>
			<stop  offset="0.3823" style="stop-color:#BD995F"/>
			<stop  offset="0.5167" style="stop-color:#A4824B"/>
			<stop  offset="0.6138" style="stop-color:#977641"/>
			<stop  offset="0.6751" style="stop-color:#8F6B3B"/>
			<stop  offset="0.7712" style="stop-color:#855E33"/>
			<stop  offset="0.9528" style="stop-color:#755400"/>
			<stop  offset="1" style="stop-color:#755400"/>
		</linearGradient>
		<polygon class="st1" points="21.4,10.4 21.6,17.3 7.7,17.5 7.6,10.6 		"/>
	</g>
	<g>
		<defs>
			<path id="SVGID_7_" d="M19.3,18.3H4.6H1.2c-1.1,0-1.1,1.7,0,1.7h9.2h14.7h3.4c1.1,0,1.1-1.7,0-1.7H19.3z"/>
		</defs>
		<clipPath id="SVGID_8_">
			<use xlink:href="#SVGID_7_"  style="overflow:visible;"/>
		</clipPath>
		
			<linearGradient id="SVGID_9_" gradientUnits="userSpaceOnUse" x1="-502.3544" y1="328.9096" x2="-501.3544" y2="328.9096" gradientTransform="matrix(0.3314 21.2105 21.2105 -0.3314 -6795.2612 10764.166)">
			<stop  offset="0" style="stop-color:#EBC189"/>
			<stop  offset="0.2018" style="stop-color:#EBC189"/>
			<stop  offset="0.3178" style="stop-color:#CAA46B"/>
			<stop  offset="0.3823" style="stop-color:#BD995F"/>
			<stop  offset="0.5167" style="stop-color:#A4824B"/>
			<stop  offset="0.6138" style="stop-color:#977641"/>
			<stop  offset="0.6751" style="stop-color:#8F6B3B"/>
			<stop  offset="0.7712" style="stop-color:#855E33"/>
			<stop  offset="0.9528" style="stop-color:#755400"/>
			<stop  offset="1" style="stop-color:#755400"/>
		</linearGradient>
		<polygon class="st2" points="29.6,17.8 29.6,20 0.1,20.4 0.1,18.3 		"/>
	</g>
</g>
</svg>
