<?xml version="1.0" encoding="utf-8"?>
<!-- Generator: Adobe Illustrator 22.0.0, SVG Export Plug-In . SVG Version: 6.00 Build 0)  -->
<svg version="1.1" id="Capa_1" xmlns="http://www.w3.org/2000/svg" xmlns:xlink="http://www.w3.org/1999/xlink" x="0px" y="0px"
	 viewBox="0 0 31.6 25" style="enable-background:new 0 0 31.6 25;" xml:space="preserve">
<style type="text/css">
	.st0{clip-path:url(#SVGID_2_);fill:url(#SVGID_3_);}
	.st1{clip-path:url(#SVGID_5_);fill:url(#SVGID_6_);}
	.st2{clip-path:url(#SVGID_8_);fill:url(#SVGID_9_);}
	.st3{clip-path:url(#SVGID_11_);fill:url(#SVGID_12_);}
	.st4{clip-path:url(#SVGID_14_);fill:url(#SVGID_15_);}
</style>
<g>
	<g>
		<defs>
			<path id="SVGID_1_" d="M15.7,4.2c-0.4,0.1-0.8,0.3-1.1,0.6c-0.4,0.5-0.7,0.9-1,1.4l-0.3,0.3C13.1,6.9,12.8,7,12.4,7
				c-0.2,0-0.3,0-0.5-0.1c-0.2,0-0.3,0-0.5-0.1c-0.1,0-0.3,0-0.4-0.1c-0.3-0.1-0.6-0.1-1-0.1c-0.6,0-1,0.1-1.3,0.5
				C8.5,7.4,8.4,7.9,8.4,8.5c0.1,0.5,0.1,0.9,0.2,1.4c0,0.3,0.1,0.5,0.1,0.8c0.1,0.4-0.1,0.6-0.3,0.9C8,11.8,7.6,12,7.2,12.3
				c-0.4,0.3-0.9,0.6-1.2,1.2c-0.2,0.4,0,0.7,0.2,0.8c0.1,0,0.2,0.1,0.3,0.1c0.1,0,0.3-0.1,0.5-0.3c0.2-0.2,0.4-0.5,0.7-0.7
				C8,13.2,8.2,13,8.5,12.8c0.2-0.1,0.4-0.3,0.6-0.4c0.6-0.4,0.9-1,0.8-1.8c0-0.2,0-0.4-0.1-0.6c0-0.1,0-0.2-0.1-0.4
				c0-0.1,0-0.3-0.1-0.4C9.6,8.9,9.6,8.5,9.6,8.1c0-0.1,0-0.2,0.3-0.3c0.1,0,0.2,0,0.3,0c0.5,0.1,1.2,0.2,1.8,0.3
				c1.1,0.2,1.9-0.1,2.4-1c0.2-0.3,0.3-0.5,0.5-0.7l0.1-0.1c0.2-0.3,0.4-0.6,0.7-0.8c0.1-0.1,0.1-0.1,0.2-0.1c0.1,0,0.1,0,0.2,0.1
				c0.2,0.2,0.5,0.5,0.7,0.8l0.1,0.2c0.1,0.1,0.2,0.3,0.3,0.5c0.1,0.2,0.3,0.4,0.4,0.5c0.4,0.5,0.9,0.7,1.4,0.7h0
				c0.2,0,0.5,0,0.8-0.1C20,8.1,20.2,8,20.4,8c0.3-0.1,0.6-0.1,1-0.1c0.4,0,0.6,0,0.7,0.1c0.1,0.1,0.1,0.3,0,0.7
				C22,8.9,22,9.2,22,9.4c-0.1,0.4-0.1,0.7-0.2,1.1c-0.1,0.8,0.1,1.4,0.7,1.8c0.1,0.1,0.3,0.2,0.4,0.3c0.2,0.1,0.3,0.2,0.4,0.3
				c0.2,0.2,0.4,0.3,0.6,0.5c0.2,0.2,0.5,0.4,0.8,0.6c0.2,0.1,0.4,0.2,0.6,0.1c0.2-0.1,0.3-0.2,0.3-0.4c0-0.2,0-0.3-0.1-0.4l0,0
				c-0.2-0.2-0.4-0.5-0.6-0.7c-0.4-0.3-0.9-0.7-1.3-1l-0.2-0.1c-0.4-0.3-0.5-0.6-0.4-1c0.1-0.5,0.2-1,0.2-1.4l0.1-0.4l0,0
				c0-0.7-0.1-1.2-0.4-1.6c-0.3-0.3-0.7-0.4-1.2-0.4c-0.1,0-0.3,0-0.4,0c-0.1,0-0.2,0-0.4,0.1c-0.3,0.1-0.7,0.1-1,0.2
				c-0.8,0.2-1.3,0-1.7-0.6c-0.3-0.5-0.7-1-1.1-1.4c-0.3-0.4-0.8-0.6-1.2-0.6C15.8,4.2,15.7,4.2,15.7,4.2"/>
		</defs>
		<clipPath id="SVGID_2_">
			<use xlink:href="#SVGID_1_"  style="overflow:visible;"/>
		</clipPath>
		
			<linearGradient id="SVGID_3_" gradientUnits="userSpaceOnUse" x1="-507.0706" y1="329.2587" x2="-506.0706" y2="329.2587" gradientTransform="matrix(0.2637 20.8286 20.8286 -0.2637 -6708.6118 10650.3652)">
			<stop  offset="0" style="stop-color:#EBC189"/>
			<stop  offset="0.2018" style="stop-color:#EBC189"/>
			<stop  offset="0.3178" style="stop-color:#CAA46B"/>
			<stop  offset="0.3823" style="stop-color:#BD995F"/>
			<stop  offset="0.5167" style="stop-color:#A4824B"/>
			<stop  offset="0.6138" style="stop-color:#977641"/>
			<stop  offset="0.6751" style="stop-color:#8F6B3B"/>
			<stop  offset="0.7712" style="stop-color:#855E33"/>
			<stop  offset="0.9528" style="stop-color:#755400"/>
			<stop  offset="1" style="stop-color:#755400"/>
		</linearGradient>
		<polygon class="st0" points="25.7,4 25.8,14.3 5.9,14.6 5.8,4.2 		"/>
	</g>
	<g>
		<defs>
			<path id="SVGID_4_" d="M9.5,16.8c-1,0.8-2.4,0.8-3.3,0c-0.6-0.5-1.3-0.8-2.1-0.8c-0.6,0-0.8,0.3-0.8,0.5c0,0.2,0.1,0.3,0.1,0.4
				c0.1,0.1,0.3,0.2,0.5,0.2c0.5,0,1.1,0.2,1.6,0.6c0.7,0.5,1.5,0.8,2.3,0.8c0.8,0,1.6-0.3,2.3-0.8c1.1-0.8,2.3-0.8,3.3,0
				c1.4,1.1,3.2,1.1,4.6,0c0.2-0.2,0.5-0.4,0.9-0.5c0.9-0.3,1.7-0.1,2.4,0.4c0.7,0.6,1.5,0.9,2.4,0.8c0.9,0,1.6-0.2,2.3-0.8
				c0.5-0.4,1-0.6,1.6-0.6c0.2,0,0.4-0.1,0.5-0.2c0.1-0.1,0.1-0.2,0.1-0.4C28.1,16,27.6,16,27.5,16c-0.8,0-1.5,0.3-2.1,0.8
				c-1,0.8-2.4,0.8-3.4,0c-1.4-1.1-3.2-1.1-4.5,0c-1,0.8-2.4,0.8-3.4,0c-0.7-0.6-1.5-0.8-2.3-0.8C11,16,10.2,16.3,9.5,16.8"/>
		</defs>
		<clipPath id="SVGID_5_">
			<use xlink:href="#SVGID_4_"  style="overflow:visible;"/>
		</clipPath>
		
			<linearGradient id="SVGID_6_" gradientUnits="userSpaceOnUse" x1="-507.0706" y1="329.258" x2="-506.0706" y2="329.258" gradientTransform="matrix(0.2637 20.8286 20.8286 -0.2637 -6708.7266 10650.3662)">
			<stop  offset="0" style="stop-color:#EBC189"/>
			<stop  offset="0.2018" style="stop-color:#EBC189"/>
			<stop  offset="0.3178" style="stop-color:#CAA46B"/>
			<stop  offset="0.3823" style="stop-color:#BD995F"/>
			<stop  offset="0.5167" style="stop-color:#A4824B"/>
			<stop  offset="0.6138" style="stop-color:#977641"/>
			<stop  offset="0.6751" style="stop-color:#8F6B3B"/>
			<stop  offset="0.7712" style="stop-color:#855E33"/>
			<stop  offset="0.9528" style="stop-color:#755400"/>
			<stop  offset="1" style="stop-color:#755400"/>
		</linearGradient>
		<polygon class="st1" points="28.2,15.4 28.2,18.9 3.3,19.2 3.3,15.7 		"/>
	</g>
	<g>
		<defs>
			<path id="SVGID_7_" d="M17.4,14.7c-0.9,0.7-2.3,0.7-3.2,0c-1.4-1.1-3.1-1.1-4.7,0c-0.3,0.2-0.7,0.4-0.9,0.5
				c-0.9,0.2-1.6,0.1-2.3-0.5c-0.7-0.5-1.5-0.8-2.3-0.8h0c-0.4,0-0.6,0.2-0.6,0.5c0,0.3,0.2,0.6,0.5,0.6l0,0c0,0,0.1,0,0.2,0
				c0.5,0,1,0.2,1.5,0.6c1.5,1.1,3.2,1.1,4.6,0c1-0.8,2.3-0.8,3.3,0c0.7,0.5,1.5,0.8,2.3,0.8c0.8,0,1.6-0.3,2.3-0.8
				c1-0.8,2.4-0.8,3.4,0c0.7,0.5,1.4,0.8,2.3,0.8c0.8,0,1.5-0.2,2.2-0.7c0.6-0.5,1.1-0.7,1.7-0.7h0c0.3,0,0.4-0.1,0.5-0.2
				c0.1-0.1,0.2-0.2,0.1-0.5c0-0.3-0.3-0.5-0.7-0.5h0c-0.8,0-1.5,0.3-2.2,0.8c-0.9,0.7-2.3,0.7-3.2,0c-0.7-0.6-1.5-0.9-2.3-0.9
				C19,13.8,18.2,14.1,17.4,14.7"/>
		</defs>
		<clipPath id="SVGID_8_">
			<use xlink:href="#SVGID_7_"  style="overflow:visible;"/>
		</clipPath>
		
			<linearGradient id="SVGID_9_" gradientUnits="userSpaceOnUse" x1="-507.0706" y1="329.2576" x2="-506.0706" y2="329.2576" gradientTransform="matrix(0.2637 20.8286 20.8286 -0.2637 -6708.6294 10650.3652)">
			<stop  offset="0" style="stop-color:#EBC189"/>
			<stop  offset="0.2018" style="stop-color:#EBC189"/>
			<stop  offset="0.3178" style="stop-color:#CAA46B"/>
			<stop  offset="0.3823" style="stop-color:#BD995F"/>
			<stop  offset="0.5167" style="stop-color:#A4824B"/>
			<stop  offset="0.6138" style="stop-color:#977641"/>
			<stop  offset="0.6751" style="stop-color:#8F6B3B"/>
			<stop  offset="0.7712" style="stop-color:#855E33"/>
			<stop  offset="0.9528" style="stop-color:#755400"/>
			<stop  offset="1" style="stop-color:#755400"/>
		</linearGradient>
		<polygon class="st2" points="28.3,13.2 28.3,16.7 3.4,17 3.3,13.5 		"/>
	</g>
	<g>
		<defs>
			<path id="SVGID_10_" d="M17.4,19.1c-1,0.8-2.2,0.8-3.2,0c-1.4-1.1-3.3-1.1-4.7,0c-1,0.8-2.2,0.8-3.2,0l-0.1,0
				c-0.3-0.2-0.5-0.4-0.8-0.5c-0.4-0.1-0.9-0.2-1.3-0.3l-0.1,0c-0.2,0-0.3,0-0.4,0.1c-0.1,0.1-0.2,0.2-0.2,0.4
				c0,0.3,0.2,0.6,0.5,0.6c0,0,0,0,0.1,0c0,0,0.1,0,0.1,0h0c0.5,0,1,0.2,1.5,0.6c1.4,1.1,3.2,1.1,4.5,0c1-0.8,2.4-0.8,3.4,0
				c0.7,0.5,1.5,0.8,2.3,0.8c0.8,0,1.6-0.3,2.3-0.8c1-0.8,2.4-0.8,3.4,0c0.6,0.5,1.4,0.8,2.2,0.8c0.8,0,1.6-0.2,2.2-0.7
				c0.6-0.5,1.1-0.7,1.7-0.7c0.2,0,0.4-0.1,0.5-0.2c0.1-0.1,0.2-0.2,0.1-0.4c0-0.5-0.5-0.5-0.7-0.5c-0.8,0-1.5,0.3-2.2,0.8
				c-1,0.8-2.2,0.8-3.2,0c-0.7-0.6-1.5-0.8-2.4-0.8C18.9,18.2,18.1,18.5,17.4,19.1"/>
		</defs>
		<clipPath id="SVGID_11_">
			<use xlink:href="#SVGID_10_"  style="overflow:visible;"/>
		</clipPath>
		
			<linearGradient id="SVGID_12_" gradientUnits="userSpaceOnUse" x1="-507.0706" y1="329.2575" x2="-506.0706" y2="329.2575" gradientTransform="matrix(0.2637 20.8286 20.8286 -0.2637 -6708.7539 10650.3672)">
			<stop  offset="0" style="stop-color:#EBC189"/>
			<stop  offset="0.2018" style="stop-color:#EBC189"/>
			<stop  offset="0.3178" style="stop-color:#CAA46B"/>
			<stop  offset="0.3823" style="stop-color:#BD995F"/>
			<stop  offset="0.5167" style="stop-color:#A4824B"/>
			<stop  offset="0.6138" style="stop-color:#977641"/>
			<stop  offset="0.6751" style="stop-color:#8F6B3B"/>
			<stop  offset="0.7712" style="stop-color:#855E33"/>
			<stop  offset="0.9528" style="stop-color:#755400"/>
			<stop  offset="1" style="stop-color:#755400"/>
		</linearGradient>
		<polygon class="st3" points="28.2,17.6 28.2,21.1 3.3,21.4 3.2,18 		"/>
	</g>
	<g>
		<defs>
			<path id="SVGID_13_" d="M15.6,8.6L15.6,8.6c-0.1,0-0.2,0-0.2,0c-0.2,0-0.6,0.1-0.9,0.1c-2,0.5-3.7,2.3-4.1,4.3
				c0,0.2,0,0.4,0.1,0.5c0.1,0.1,0.2,0.2,0.4,0.2c0.3,0,0.6-0.2,0.7-0.5c0,0,0-0.1,0-0.1c0,0,0-0.1,0-0.1c0.2-1.1,0.9-2.1,1.9-2.7
				c1-0.6,2.1-0.8,3.2-0.6c1.8,0.4,2.9,1.6,3.4,3.4c0,0.2,0.2,0.4,0.4,0.5c0.1,0,0.2,0.1,0.3,0.1c0.1,0,0.2,0,0.3-0.1
				c0.2-0.2,0.3-0.4,0.2-0.8C20.6,10.4,18.4,8.7,15.6,8.6L15.6,8.6z"/>
		</defs>
		<clipPath id="SVGID_14_">
			<use xlink:href="#SVGID_13_"  style="overflow:visible;"/>
		</clipPath>
		
			<linearGradient id="SVGID_15_" gradientUnits="userSpaceOnUse" x1="-507.0706" y1="329.2599" x2="-506.0706" y2="329.2599" gradientTransform="matrix(0.2637 20.8286 20.8286 -0.2637 -6708.6499 10650.3652)">
			<stop  offset="0" style="stop-color:#EBC189"/>
			<stop  offset="0.2018" style="stop-color:#EBC189"/>
			<stop  offset="0.3178" style="stop-color:#CAA46B"/>
			<stop  offset="0.3823" style="stop-color:#BD995F"/>
			<stop  offset="0.5167" style="stop-color:#A4824B"/>
			<stop  offset="0.6138" style="stop-color:#977641"/>
			<stop  offset="0.6751" style="stop-color:#8F6B3B"/>
			<stop  offset="0.7712" style="stop-color:#855E33"/>
			<stop  offset="0.9528" style="stop-color:#755400"/>
			<stop  offset="1" style="stop-color:#755400"/>
		</linearGradient>
		<polygon class="st4" points="21.3,8.5 21.3,13.9 10.3,14 10.2,8.6 		"/>
	</g>
</g>
</svg>
