<svg width="51" height="50" viewBox="0 0 51 50" fill="none" xmlns="http://www.w3.org/2000/svg">
<path d="M25.5871 49.6585C39.2999 49.6585 50.4163 38.5421 50.4163 24.8293C50.4163 11.1164 39.2999 0 25.5871 0C11.8742 0 0.757812 11.1164 0.757812 24.8293C0.757812 38.5421 11.8742 49.6585 25.5871 49.6585Z" fill="#55ACEE"/>
<path d="M40.795 17.844C39.7309 18.3158 38.5864 18.6349 37.386 18.7775C38.6116 18.0432 39.5521 16.8813 39.9961 15.4947C38.8493 16.1749 37.5786 16.6685 36.2273 16.9345C35.1447 15.7815 33.6022 15.0609 31.8942 15.0609C28.6171 15.0609 25.9593 17.7188 25.9593 20.9958C25.9593 21.461 26.012 21.9138 26.1138 22.3484C21.1814 22.101 16.808 19.7384 13.8806 16.1466C13.3698 17.023 13.0768 18.0432 13.0768 19.1307C13.0768 21.1892 14.1254 23.0066 15.717 24.0706C14.7446 24.04 13.8288 23.7732 13.029 23.3274C13.0286 23.3527 13.0286 23.3779 13.0286 23.4027C13.0286 26.2783 15.0752 28.6768 17.7897 29.2216C17.2922 29.3579 16.7668 29.4301 16.2264 29.4301C15.8431 29.4301 15.4718 29.3933 15.1097 29.3243C15.8648 31.6816 18.0561 33.3976 20.6538 33.4458C18.6222 35.0379 16.0635 35.9864 13.2822 35.9864C12.8042 35.9864 12.3306 35.9585 11.8672 35.9032C14.4923 37.5877 17.6126 38.5699 20.964 38.5699C31.8805 38.5699 37.8503 29.5266 37.8503 21.6832C37.8503 21.426 37.8446 21.1697 37.833 20.9157C38.9936 20.0792 39.9996 19.0342 40.795 17.844Z" fill="#F1F2F2"/>
</svg>
