<svg width="27" height="32" viewBox="0 0 27 32" fill="none" xmlns="http://www.w3.org/2000/svg">
<path d="M13.4435 15.7004C9.38871 15.7004 6.08984 12.3829 6.08984 8.30484C6.08984 4.22683 9.38871 0.909058 13.4435 0.909058C17.4983 0.909058 20.7971 4.22683 20.7971 8.30484C20.7971 12.3829 17.4983 15.7004 13.4435 15.7004ZM13.4435 3.12777C10.6051 3.12777 8.29591 5.44994 8.29591 8.30484C8.29591 11.1595 10.6051 13.4817 13.4435 13.4817C16.2819 13.4817 18.5911 11.1595 18.5911 8.30484C18.5911 5.44994 16.2819 3.12777 13.4435 3.12777Z" fill="#D4D4D4"/>
<path d="M25.5768 31.971H1.31006C0.701188 31.971 0.207031 31.474 0.207031 30.8617V25.6846C0.207031 21.8108 3.34109 18.6588 7.19282 18.6588H19.694C23.5458 18.6588 26.6798 21.8108 26.6798 25.6846V30.8617C26.6798 31.474 26.1857 31.971 25.5768 31.971ZM2.4131 29.7523H24.4738V25.6846C24.4738 23.0342 22.3294 20.8775 19.694 20.8775H7.19282C4.5575 20.8775 2.4131 23.0342 2.4131 25.6846V29.7523Z" fill="#D4D4D4"/>
</svg>
