<?xml version="1.0" encoding="utf-8"?>
<!-- Generator: Adobe Illustrator 22.0.0, SVG Export Plug-In . SVG Version: 6.00 Build 0)  -->
<svg version="1.1" id="Layer_1" xmlns="http://www.w3.org/2000/svg" xmlns:xlink="http://www.w3.org/1999/xlink" x="0px" y="0px"
	 viewBox="0 0 876 953" style="enable-background:new 0 0 876 953;" xml:space="preserve">
<style type="text/css">
	.st0{opacity:0.98;fill:#14361D;enable-background:new    ;}
	.st1{fill:#FFFFFF;filter:url(#Adobe_OpacityMaskFilter);}
	.st2{mask:url(#path-2-inside-1_1_);fill:#1B3D29;stroke:#2B4F45;stroke-width:20;}
	.st3{fill:#FFFFFF;filter:url(#Adobe_OpacityMaskFilter_1_);}
	.st4{mask:url(#path-3-inside-2_1_);fill:#1B3D29;stroke:#2B4F45;stroke-width:20;}
	.st5{fill:#FFFFFF;filter:url(#Adobe_OpacityMaskFilter_3_);}
	.st6{mask:url(#path-3-inside-2_2_);fill:#1B3D29;stroke:#2B4F45;stroke-width:20;}
	.st7{fill:none;}
	.st8{fill:#FFFFFF;filter:url(#Adobe_OpacityMaskFilter_4_);}
	.st9{mask:url(#path-54-inside-3_1_);fill:#1B3D29;stroke:#2B4F45;stroke-width:16;}
	.st10{fill:#FFFFFF;filter:url(#Adobe_OpacityMaskFilter_5_);}
	.st11{mask:url(#path-55-inside-4_1_);fill:#1B3D29;stroke:#2B4F45;stroke-width:16;}
	.st12{fill:#FFFFFF;filter:url(#Adobe_OpacityMaskFilter_7_);}
	.st13{mask:url(#path-55-inside-4_2_);fill:#1B3D29;stroke:#2B4F45;stroke-width:16;}
</style>
<rect class="st0" width="586" height="953"/>
<defs>
	<filter id="Adobe_OpacityMaskFilter" filterUnits="userSpaceOnUse" x="287" y="177" width="309.5" height="599">
		<feColorMatrix  type="matrix" values="1 0 0 0 0  0 1 0 0 0  0 0 1 0 0  0 0 0 1 0"/>
	</filter>
</defs>
<mask maskUnits="userSpaceOnUse" x="287" y="177" width="309.5" height="599" id="path-2-inside-1_1_">
	<path class="st1" d="M586.5,187c-76.8,0-150.4,30.5-204.7,84.8C327.5,326.1,297,399.7,297,476.5s30.5,150.4,84.8,204.7
		c54.3,54.3,127.9,84.8,204.7,84.8V476.5V187z"/>
</mask>
<path class="st2" d="M586.5,187c-76.8,0-150.4,30.5-204.7,84.8C327.5,326.1,297,399.7,297,476.5s30.5,150.4,84.8,204.7
	c54.3,54.3,127.9,84.8,204.7,84.8V476.5V187z"/>
<defs>
	<filter id="Adobe_OpacityMaskFilter_1_" filterUnits="userSpaceOnUse" x="287" y="177" width="309.5" height="599">
		<feColorMatrix  type="matrix" values="1 0 0 0 0  0 1 0 0 0  0 0 1 0 0  0 0 0 1 0"/>
	</filter>
</defs>
<mask maskUnits="userSpaceOnUse" x="287" y="177" width="309.5" height="599" id="path-3-inside-2_1_">
	<path class="st3" d="M586.5,187c-76.8,0-150.4,30.5-204.7,84.8C327.5,326.1,297,399.7,297,476.5s30.5,150.4,84.8,204.7
		c54.3,54.3,127.9,84.8,204.7,84.8V476.5V187z"/>
</mask>
<path class="st4" d="M586.5,187c-76.8,0-150.4,30.5-204.7,84.8C327.5,326.1,297,399.7,297,476.5s30.5,150.4,84.8,204.7
	c54.3,54.3,127.9,84.8,204.7,84.8V476.5V187z"/>
<defs>
	<filter id="Adobe_OpacityMaskFilter_2_" filterUnits="userSpaceOnUse" x="307" y="168" width="602" height="603">
		<feColorMatrix  type="matrix" values="1 0 0 0 0  0 1 0 0 0  0 0 1 0 0  0 0 0 1 0"/>
	</filter>
</defs>
<mask maskUnits="userSpaceOnUse" x="307" y="168" width="602" height="603" id="mask0_1_">
	<defs>
		<filter id="Adobe_OpacityMaskFilter_3_" filterUnits="userSpaceOnUse" x="287" y="177" width="309.5" height="599">
			<feColorMatrix  type="matrix" values="1 0 0 0 0  0 1 0 0 0  0 0 1 0 0  0 0 0 1 0"/>
		</filter>
	</defs>
	
		<mask maskUnits="userSpaceOnUse" x="287" y="177" width="309.5" height="599" id="path-3-inside-2_2_" style="filter:url(#Adobe_OpacityMaskFilter_2_);">
		<path class="st5" d="M586.5,187c-76.8,0-150.4,30.5-204.7,84.8C327.5,326.1,297,399.7,297,476.5s30.5,150.4,84.8,204.7
			c54.3,54.3,127.9,84.8,204.7,84.8V476.5V187z"/>
	</mask>
	<path class="st6" d="M586.5,187c-76.8,0-150.4,30.5-204.7,84.8C327.5,326.1,297,399.7,297,476.5s30.5,150.4,84.8,204.7
		c54.3,54.3,127.9,84.8,204.7,84.8V476.5V187z"/>
</mask>
<g>
	<rect x="307" y="168" class="st7" width="602" height="603"/>
	<rect x="307" y="168" class="st7" width="602" height="603"/>
	<rect x="307" y="168" class="st7" width="602" height="603"/>
	<rect x="307" y="168" class="st7" width="602" height="603"/>
	<rect x="307" y="168" class="st7" width="602" height="603"/>
	<rect x="307" y="168" class="st7" width="602" height="603"/>
	<rect x="307" y="168" class="st7" width="602" height="603"/>
	<rect x="307" y="168" class="st7" width="602" height="603"/>
	<rect x="307" y="168" class="st7" width="602" height="603"/>
	<rect x="307" y="168" class="st7" width="602" height="603"/>
	<rect x="307" y="168" class="st7" width="602" height="603"/>
	<rect x="307" y="168" class="st7" width="602" height="603"/>
	<rect x="307" y="168" class="st7" width="602" height="603"/>
	<rect x="307" y="168" class="st7" width="602" height="603"/>
	<rect x="307" y="168" class="st7" width="602" height="603"/>
	<rect x="307" y="168" class="st7" width="602" height="603"/>
	<rect x="307" y="168" class="st7" width="602" height="603"/>
	<rect x="307" y="168" class="st7" width="602" height="603"/>
	<rect x="307" y="168" class="st7" width="602" height="603"/>
	<rect x="307" y="168" class="st7" width="602" height="603"/>
	<rect x="307" y="168" class="st7" width="602" height="603"/>
	<rect x="307" y="168" class="st7" width="602" height="603"/>
	<rect x="307" y="168" class="st7" width="602" height="603"/>
	<rect x="307" y="168" class="st7" width="602" height="603"/>
	<rect x="307" y="168" class="st7" width="602" height="603"/>
	<rect x="307" y="168" class="st7" width="602" height="603"/>
	<rect x="307" y="168" class="st7" width="602" height="603"/>
	<rect x="307" y="168" class="st7" width="602" height="603"/>
	<rect x="307" y="168" class="st7" width="602" height="603"/>
	<rect x="307" y="168" class="st7" width="602" height="603"/>
	<rect x="307" y="168" class="st7" width="602" height="603"/>
	<rect x="307" y="168" class="st7" width="602" height="603"/>
	<rect x="307" y="168" class="st7" width="602" height="603"/>
	<rect x="307" y="168" class="st7" width="602" height="603"/>
	<rect x="307" y="168" class="st7" width="602" height="603"/>
	<rect x="307" y="168" class="st7" width="602" height="603"/>
	<rect x="307" y="168" class="st7" width="602" height="603"/>
	<rect x="307" y="168" class="st7" width="602" height="603"/>
	<rect x="307" y="168" class="st7" width="602" height="603"/>
	<rect x="307" y="168" class="st7" width="602" height="603"/>
	<rect x="307" y="168" class="st7" width="602" height="603"/>
	<rect x="307" y="168" class="st7" width="602" height="603"/>
	<rect x="307" y="168" class="st7" width="602" height="603"/>
	<rect x="307" y="168" class="st7" width="602" height="603"/>
	<rect x="307" y="168" class="st7" width="602" height="603"/>
	<rect x="307" y="168" class="st7" width="602" height="603"/>
	<rect x="307" y="168" class="st7" width="602" height="603"/>
	<rect x="307" y="168" class="st7" width="602" height="603"/>
	<rect x="307" y="168" class="st7" width="602" height="603"/>
	<rect x="307" y="168" class="st7" width="602" height="603"/>
</g>
<defs>
	<filter id="Adobe_OpacityMaskFilter_4_" filterUnits="userSpaceOnUse" x="423" y="313" width="171.5" height="327">
		<feColorMatrix  type="matrix" values="1 0 0 0 0  0 1 0 0 0  0 0 1 0 0  0 0 0 1 0"/>
	</filter>
</defs>
<mask maskUnits="userSpaceOnUse" x="423" y="313" width="171.5" height="327" id="path-54-inside-3_1_">
	<path class="st8" d="M586.5,632c-41.2,0-80.8-16.4-110-45.5c-29.2-29.2-45.5-68.7-45.5-110s16.4-80.8,45.5-110
		c29.2-29.2,68.7-45.5,110-45.5v155.5V632z"/>
</mask>
<path class="st9" d="M586.5,632c-41.2,0-80.8-16.4-110-45.5c-29.2-29.2-45.5-68.7-45.5-110s16.4-80.8,45.5-110
	c29.2-29.2,68.7-45.5,110-45.5v155.5V632z"/>
<defs>
	<filter id="Adobe_OpacityMaskFilter_5_" filterUnits="userSpaceOnUse" x="423" y="313" width="171.5" height="327">
		<feColorMatrix  type="matrix" values="1 0 0 0 0  0 1 0 0 0  0 0 1 0 0  0 0 0 1 0"/>
	</filter>
</defs>
<mask maskUnits="userSpaceOnUse" x="423" y="313" width="171.5" height="327" id="path-55-inside-4_1_">
	<path class="st10" d="M586.5,632c-41.2,0-80.8-16.4-110-45.5c-29.2-29.2-45.5-68.7-45.5-110s16.4-80.8,45.5-110
		c29.2-29.2,68.7-45.5,110-45.5v155.5V632z"/>
</mask>
<path class="st11" d="M586.5,632c-41.2,0-80.8-16.4-110-45.5c-29.2-29.2-45.5-68.7-45.5-110s16.4-80.8,45.5-110
	c29.2-29.2,68.7-45.5,110-45.5v155.5V632z"/>
<defs>
	<filter id="Adobe_OpacityMaskFilter_6_" filterUnits="userSpaceOnUse" x="447" y="337" width="280" height="280">
		<feColorMatrix  type="matrix" values="1 0 0 0 0  0 1 0 0 0  0 0 1 0 0  0 0 0 1 0"/>
	</filter>
</defs>
<mask maskUnits="userSpaceOnUse" x="447" y="337" width="280" height="280" id="mask1_1_">
	<defs>
		<filter id="Adobe_OpacityMaskFilter_7_" filterUnits="userSpaceOnUse" x="423" y="313" width="171.5" height="327">
			<feColorMatrix  type="matrix" values="1 0 0 0 0  0 1 0 0 0  0 0 1 0 0  0 0 0 1 0"/>
		</filter>
	</defs>
	
		<mask maskUnits="userSpaceOnUse" x="423" y="313" width="171.5" height="327" id="path-55-inside-4_2_" style="filter:url(#Adobe_OpacityMaskFilter_6_);">
		<path class="st12" d="M586.5,632c-41.2,0-80.8-16.4-110-45.5c-29.2-29.2-45.5-68.7-45.5-110s16.4-80.8,45.5-110
			c29.2-29.2,68.7-45.5,110-45.5v155.5V632z"/>
	</mask>
	<path class="st13" d="M586.5,632c-41.2,0-80.8-16.4-110-45.5c-29.2-29.2-45.5-68.7-45.5-110s16.4-80.8,45.5-110
		c29.2-29.2,68.7-45.5,110-45.5v155.5V632z"/>
</mask>
<g>
	<rect x="447" y="337" class="st7" width="280" height="280"/>
</g>
</svg>
