<?xml version="1.0" encoding="utf-8"?>
<!-- Generator: Adobe Illustrator 22.0.0, SVG Export Plug-In . SVG Version: 6.00 Build 0)  -->
<svg version="1.1" id="Capa_1" xmlns="http://www.w3.org/2000/svg" xmlns:xlink="http://www.w3.org/1999/xlink" x="0px" y="0px"
	 viewBox="0 0 31.6 25" style="enable-background:new 0 0 31.6 25;" xml:space="preserve">
<style type="text/css">
	.st0{clip-path:url(#SVGID_2_);fill:url(#SVGID_3_);}
	.st1{clip-path:url(#SVGID_5_);fill:url(#SVGID_6_);}
</style>
<g>
	<defs>
		<path id="SVGID_1_" d="M13.8,4.9c0.2-0.2,0.4-0.5,0.5-0.7c0.2-0.3,0.4-0.5,0.6-0.8c0.2-0.3,0.4-0.5,0.6-0.6c0.2-0.2,0.4-0.2,0.6,0
			c0.3,0.3,0.5,0.6,0.8,0.9c0.2,0.3,0.5,0.7,0.7,1c0.6,1,1.5,1.3,2.7,1c0.5-0.1,1-0.2,1.5-0.3l0.3-0.1c0.1,0,0.2,0,0.3,0
			c0.4,0.1,0.5,0.1,0.5,0.6c0,0.3-0.1,0.7-0.1,1l0,0.2c0,0.2-0.1,0.4-0.1,0.6c0,0.3-0.1,0.5-0.1,0.8c-0.1,0.8,0.1,1.4,0.7,1.9
			c0.2,0.2,0.5,0.4,0.7,0.5c0.1,0.1,0.2,0.2,0.4,0.3c0.1,0.1,0.2,0.1,0.3,0.2c0.2,0.2,0.4,0.3,0.6,0.5c0.2,0.2,0.4,0.4,0.4,0.6
			c0,0.2-0.1,0.4-0.4,0.6c-0.2,0.2-0.4,0.3-0.7,0.5c-0.1,0.1-0.2,0.1-0.2,0.2l-0.1,0.1c-0.2,0.2-0.5,0.3-0.7,0.5
			c-0.9,0.6-1.2,1.5-1,2.6c0.1,0.5,0.2,1.1,0.3,1.7c0,0.2,0,0.4,0,0.6c0,0.3-0.2,0.4-0.4,0.4c-0.5,0-0.9-0.1-1.4-0.2
			c-0.1,0-0.3,0-0.4-0.1c-0.3,0-0.5-0.1-0.8-0.1c-0.1,0-0.2,0-0.4-0.1l0,0h0c-0.7,0-1.2,0.2-1.5,0.6c-0.2,0.3-0.4,0.6-0.6,0.9
			c-0.1,0.1-0.2,0.2-0.2,0.3c-0.1,0.1-0.2,0.2-0.2,0.3c-0.2,0.2-0.3,0.5-0.5,0.7c-0.2,0.2-0.4,0.4-0.6,0.4h0c-0.2,0-0.4-0.1-0.6-0.3
			c-0.2-0.2-0.3-0.4-0.5-0.7c-0.1-0.1-0.2-0.2-0.3-0.4c-0.1-0.1-0.2-0.2-0.2-0.3c-0.2-0.3-0.4-0.6-0.7-0.9c-0.3-0.4-0.8-0.6-1.3-0.6
			c-0.1,0-0.2,0-0.3,0c-0.4,0-0.8,0.1-1.1,0.2c-0.3,0-0.5,0.1-0.8,0.1c-0.3,0-0.6,0.1-0.9,0.1c-0.2,0-0.3,0-0.4-0.1
			c-0.1-0.1-0.1-0.2-0.1-0.4c0-0.4,0.1-0.7,0.1-1.1c0-0.1,0-0.2,0-0.2c0-0.2,0.1-0.4,0.1-0.6C8.9,17,9,16.7,9,16.5
			c0.1-0.8-0.2-1.4-0.7-1.9c-0.2-0.2-0.4-0.3-0.6-0.5c-0.1-0.1-0.3-0.2-0.4-0.3c-0.1-0.1-0.2-0.1-0.3-0.2c-0.3-0.2-0.5-0.4-0.8-0.6
			c-0.2-0.2-0.3-0.4-0.3-0.5c0-0.2,0.1-0.3,0.3-0.5c0.2-0.2,0.5-0.4,0.7-0.6c0.1-0.1,0.2-0.1,0.3-0.2c0.2-0.1,0.4-0.3,0.6-0.4
			c0.1-0.1,0.3-0.2,0.4-0.3C8.8,10,9.1,9.3,9,8.4c-0.1-0.5-0.2-1-0.2-1.4L8.6,6.3c0,0,0,0,0-0.1c0-0.3,0-0.6,0.1-0.7
			c0.1-0.1,0.4-0.2,0.7-0.1c0.4,0,0.8,0.1,1.2,0.2c0.2,0,0.5,0.1,0.7,0.1c0.3,0,0.6,0.1,0.8,0.1c0,0,0.1,0,0.1,0
			C12.8,5.8,13.4,5.5,13.8,4.9 M15.8,1.6c-0.5,0-0.9,0.2-1.3,0.7c-0.2,0.3-0.4,0.5-0.6,0.8c-0.1,0.1-0.2,0.3-0.3,0.4
			c-0.1,0.1-0.1,0.2-0.2,0.3C13.2,4,13,4.2,12.8,4.5c-0.1,0.2-0.3,0.2-0.5,0.2c-0.3,0-0.6,0-1-0.1c-0.2,0-0.5-0.1-0.7-0.1
			c-0.5-0.1-1-0.1-1.4-0.2c-0.4,0-0.8,0.1-1.1,0.4C7.8,5,7.6,5.4,7.6,5.8c0,0.4,0.1,0.9,0.1,1.3c0,0.1,0,0.3,0.1,0.4
			c0,0.2,0.1,0.4,0.1,0.6C7.9,8.3,8,8.5,8,8.6c0.1,0.5-0.1,0.9-0.5,1.2c-0.3,0.2-0.6,0.4-0.8,0.6c-0.1,0.1-0.2,0.1-0.3,0.2
			c-0.3,0.2-0.6,0.4-0.8,0.6c-0.5,0.4-0.7,0.8-0.7,1.3c0,0.5,0.2,0.9,0.7,1.3C5.7,14,6,14.2,6.3,14.4c0.1,0.1,0.2,0.2,0.3,0.2
			c0.1,0.1,0.2,0.2,0.4,0.3c0.2,0.2,0.4,0.3,0.6,0.5c0.3,0.2,0.4,0.6,0.4,1c0,0.2-0.1,0.3-0.1,0.5c0,0.2-0.1,0.4-0.1,0.6
			c0,0.1,0,0.2,0,0.4c-0.1,0.4-0.1,0.9-0.1,1.3c0,0.8,0.6,1.4,1.4,1.5c0.3,0,0.6,0,1,0c0.4,0,0.7-0.1,1.1-0.2c0.3,0,0.6-0.1,0.8-0.1
			c0.4-0.1,0.8,0.1,1,0.4c0.1,0.1,0.2,0.3,0.3,0.4c0.1,0.2,0.2,0.3,0.4,0.5c0.1,0.1,0.1,0.2,0.2,0.3c0.2,0.3,0.4,0.6,0.7,0.9
			c0.4,0.4,0.8,0.6,1.3,0.6h0c0.5,0,0.9-0.2,1.3-0.6c0.3-0.3,0.5-0.6,0.7-0.9c0.1-0.1,0.1-0.2,0.2-0.3c0.2-0.2,0.3-0.5,0.5-0.7
			l0.1-0.1c0.3-0.5,0.7-0.7,1.3-0.5c0.5,0.1,1,0.2,1.5,0.3c0.2,0,0.4,0.1,0.7,0.1l0.2,0l0-0.1c0.9,0,1.5-0.4,1.7-1.2
			c0-0.3,0.1-0.5,0-0.7l0-0.2c-0.1-0.6-0.2-1.2-0.3-1.7c-0.2-0.9,0-1.4,0.8-1.8c0.3-0.2,0.7-0.4,1-0.7c0.3-0.2,0.7-0.5,1-0.8
			c0.5-0.6,0.6-1.4,0-2c-0.3-0.3-0.6-0.6-0.9-0.8c-0.3-0.2-0.6-0.4-0.9-0.6c-0.1-0.1-0.3-0.2-0.4-0.3c-0.5-0.3-0.6-0.8-0.5-1.4
			c0.1-0.7,0.3-1.5,0.4-2.3c0.1-0.5-0.1-1-0.4-1.3c-0.3-0.3-0.7-0.5-1.3-0.5h0c-0.3,0-0.6,0-0.9,0.1l0,0c-0.3,0-0.6,0.1-0.8,0.1
			c-0.4,0.1-0.8,0.1-1.2,0.2c-0.2,0-0.4-0.1-0.6-0.3c-0.2-0.2-0.3-0.5-0.5-0.7c-0.1-0.1-0.2-0.3-0.3-0.4c-0.1-0.1-0.2-0.2-0.2-0.3
			c-0.2-0.3-0.4-0.6-0.6-0.8C16.7,1.8,16.2,1.6,15.8,1.6L15.8,1.6z"/>
	</defs>
	<clipPath id="SVGID_2_">
		<use xlink:href="#SVGID_1_"  style="overflow:visible;"/>
	</clipPath>
	
		<linearGradient id="SVGID_3_" gradientUnits="userSpaceOnUse" x1="-504.8426" y1="328.0331" x2="-503.8426" y2="328.0331" gradientTransform="matrix(0 22.9275 22.9275 0 -7505.1318 11574.9805)">
		<stop  offset="0" style="stop-color:#EBC189"/>
		<stop  offset="0.2018" style="stop-color:#EBC189"/>
		<stop  offset="0.3178" style="stop-color:#CAA46B"/>
		<stop  offset="0.3823" style="stop-color:#BD995F"/>
		<stop  offset="0.5167" style="stop-color:#A4824B"/>
		<stop  offset="0.6138" style="stop-color:#977641"/>
		<stop  offset="0.6751" style="stop-color:#8F6B3B"/>
		<stop  offset="0.7712" style="stop-color:#855E33"/>
		<stop  offset="0.9528" style="stop-color:#755400"/>
		<stop  offset="1" style="stop-color:#755400"/>
	</linearGradient>
	<rect x="4.8" y="1.6" class="st0" width="22.1" height="21.9"/>
</g>
<g>
	<defs>
		<path id="SVGID_4_" d="M12.3,16.1c-1-0.9-1.5-2.2-1.5-3.5c0-1.4,0.5-2.6,1.5-3.6c0.9-0.9,2.2-1.5,3.6-1.5c2.8,0,5,2.2,5,5
			c0,1.3-0.5,2.6-1.5,3.5c-0.9,0.9-2.2,1.5-3.6,1.5c0,0,0,0,0,0C14.4,17.5,13.2,17,12.3,16.1 M15.8,6.5c-3.3,0-6,2.7-6,6.1
			c0,3.3,2.7,6,6,6h0c1.6,0,3.1-0.6,4.3-1.8c1.1-1.1,1.8-2.7,1.8-4.3c0-1.6-0.6-3.1-1.8-4.3C18.9,7.1,17.4,6.5,15.8,6.5L15.8,6.5z"
			/>
	</defs>
	<clipPath id="SVGID_5_">
		<use xlink:href="#SVGID_4_"  style="overflow:visible;"/>
	</clipPath>
	
		<linearGradient id="SVGID_6_" gradientUnits="userSpaceOnUse" x1="-504.8425" y1="328.0303" x2="-503.8425" y2="328.0303" gradientTransform="matrix(0 22.9275 22.9275 0 -7505.1362 11574.9805)">
		<stop  offset="0" style="stop-color:#EBC189"/>
		<stop  offset="0.2018" style="stop-color:#EBC189"/>
		<stop  offset="0.3178" style="stop-color:#CAA46B"/>
		<stop  offset="0.3823" style="stop-color:#BD995F"/>
		<stop  offset="0.5167" style="stop-color:#A4824B"/>
		<stop  offset="0.6138" style="stop-color:#977641"/>
		<stop  offset="0.6751" style="stop-color:#8F6B3B"/>
		<stop  offset="0.7712" style="stop-color:#855E33"/>
		<stop  offset="0.9528" style="stop-color:#755400"/>
		<stop  offset="1" style="stop-color:#755400"/>
	</linearGradient>
	<rect x="9.7" y="6.5" class="st1" width="12.1" height="12.1"/>
</g>
</svg>
