<svg width="141" height="95" viewBox="0 0 141 95" fill="none" xmlns="http://www.w3.org/2000/svg">
<path d="M113.477 34.9538L107.815 40.3692L70.1539 10.0923L32.2462 40.3692L26.8308 34.9538L70.1539 0L113.477 34.9538Z" fill="#18601F"/>
<path d="M116.923 90.0923C123.569 68.9231 112.738 57.1077 99.2 49.2308C89.1077 43.3231 77.7846 39.6308 70.4 35.6923C63.2616 39.6308 51.6923 43.3231 41.6 49.2308C27.8154 57.1077 16.9846 68.4308 22.6462 89.1077L0 66.9538L32.7384 40.6154L70.1538 10.0923L107.815 40.3692L140.554 66.7077L116.923 90.0923Z" fill="#6CBE45"/>
<path fill-rule="evenodd" clip-rule="evenodd" d="M64.7385 45.5385C52.9231 53.4154 20.6771 60.0615 34.954 94.7692H60.8001C39.8771 70.1538 60.0616 50.9538 64.7385 45.5385Z" fill="#6CBE45"/>
<path fill-rule="evenodd" clip-rule="evenodd" d="M99.1999 94.7692C99.446 94.7692 99.6922 94.5231 99.6922 94.2769C99.9384 92.8 94.523 89.1077 93.5383 88.6154C91.323 87.3846 91.3229 87.1385 93.046 85.4154C96.4922 82.2154 107.323 80.2462 107.077 78.7692C106.831 77.2923 102.154 76.8 102.4 74.3385C102.4 73.3538 104.615 70.4 105.846 68.9231C107.077 67.4462 105.6 67.2 104.123 67.4461C102.646 67.6923 99.446 68.6769 97.9691 68.6769C94.2768 68.6769 95.0152 67.4462 95.5076 64.2462C95.5076 63.7539 95.7537 62.5231 95.0153 62.2769C94.2768 62.0308 90.3384 66.7077 88.8614 67.6923C87.6307 68.4308 85.1691 70.8923 83.6922 70.1539C82.2153 69.4154 83.1999 65.4769 83.1999 64.2462C83.446 61.7846 86.1537 54.1538 85.1691 53.6615C84.1845 52.9231 82.9537 54.4 82.4614 54.6462C77.5384 57.6 77.046 59.5692 75.8152 54.1539C75.8152 53.9077 75.5691 53.4154 75.5691 53.1692C75.0768 50.2154 76.7999 46.2769 76.0614 45.7846C75.5691 45.2923 73.1076 48.7385 72.6153 49.2308C67.9384 55.3846 67.4461 65.2308 71.6307 72.8615C76.3076 81.7231 76.3076 89.6 75.323 93.0462C75.323 93.2923 74.8306 94.0308 74.8306 94.5231H99.1999V94.7692Z" fill="#ED1C24"/>
<path fill-rule="evenodd" clip-rule="evenodd" d="M65.723 50.9538C54.4 71.1385 72.3691 94.5231 72.3691 94.5231H65.723C65.9692 94.7692 46.523 73.3538 65.723 50.9538Z" fill="#6CBE45"/>
</svg>
